<?xml version="1.0" encoding="UTF-8" standalone="no"?><!DOCTYPE svg PUBLIC "-//W3C//DTD SVG 1.1//EN" "http://www.w3.org/Graphics/SVG/1.1/DTD/svg11.dtd"><svg width="100%" height="100%" viewBox="0 0 401 442" version="1.1" xmlns="http://www.w3.org/2000/svg" xmlns:xlink="http://www.w3.org/1999/xlink" xml:space="preserve" xmlns:serif="http://www.serif.com/" style="fill-rule:evenodd;clip-rule:evenodd;stroke-miterlimit:10;"><g><g id="Layer0_1_MEMBER_0_MEMBER_0_FILL"><path d="M65.777,234.012c1.48,-1.933 2.824,-3.986 4.032,-6.161c1.359,-2.054 2.567,-4.198 3.624,-6.433c-1.57,2.114 -2.914,4.168 -4.032,6.161c-1.359,2.054 -2.567,4.198 -3.624,6.433Z" style="fill:#e0e0e0;fill-rule:nonzero;"/></g></g><g><g id="Layer0_1_MEMBER_0_MEMBER_1_FILL"><path d="M62.606,169.639c1.48,-1.933 2.824,-3.986 4.032,-6.161c1.268,-1.903 2.461,-4.047 3.579,-6.433c-1.57,2.144 -2.914,4.198 -4.032,6.161c-1.359,2.144 -2.552,4.288 -3.579,6.433Z" style="fill:#e0e0e0;fill-rule:nonzero;"/></g></g><g><g id="Layer0_1_MEMBER_0_MEMBER_2_FILL"><path d="M69.175,323.572c1.419,-1.842 2.763,-3.896 4.032,-6.161c1.299,-1.963 2.492,-4.092 3.579,-6.387c-1.54,2.084 -2.884,4.137 -4.032,6.161c-1.419,2.205 -2.612,4.334 -3.579,6.387Z" style="fill:#e0e0e0;fill-rule:nonzero;"/></g></g><g><g id="Layer0_1_MEMBER_0_MEMBER_3_FILL"><path d="M186.595,421.241c1.57,-2.144 2.914,-4.198 4.032,-6.161c1.359,-2.114 2.552,-4.258 3.579,-6.433c-1.48,1.933 -2.824,3.986 -4.032,6.161c-1.268,1.903 -2.461,4.047 -3.579,6.433Z" style="fill:#e0e0e0;fill-rule:nonzero;"/></g></g><g><g id="Layer0_1_MEMBER_0_MEMBER_4_FILL"><path d="M3.579,340.062c1.54,-2.023 2.884,-4.062 4.032,-6.116c1.268,-1.933 2.476,-4.077 3.624,-6.433c-1.48,1.933 -2.824,3.986 -4.032,6.161c-1.419,2.114 -2.627,4.243 -3.624,6.387Z" style="fill:#e0e0e0;fill-rule:nonzero;"/></g></g><g><g id="Layer0_1_MEMBER_0_MEMBER_5_FILL"><path d="M278.601,295.531c1.57,-2.114 2.914,-4.168 4.032,-6.161c1.359,-2.054 2.567,-4.198 3.624,-6.433c-1.419,1.872 -2.778,3.926 -4.077,6.161c-1.359,2.144 -2.552,4.288 -3.579,6.433Z" style="fill:#e0e0e0;fill-rule:nonzero;"/></g></g><g><g id="Layer0_1_MEMBER_0_MEMBER_6_FILL"><path d="M202.133,390.255c1.57,-2.054 2.914,-4.107 4.032,-6.161c1.419,-2.114 2.627,-4.243 3.624,-6.387c-1.57,2.054 -2.914,4.107 -4.032,6.161c-1.419,2.114 -2.627,4.243 -3.624,6.387Z" style="fill:#e0e0e0;fill-rule:nonzero;"/></g></g><g><g id="Layer0_1_MEMBER_0_MEMBER_7_FILL"><path d="M238.102,426.36c1.419,-1.842 2.763,-3.896 4.032,-6.161c1.299,-1.963 2.492,-4.092 3.579,-6.387c-1.419,1.842 -2.763,3.896 -4.032,6.161c-1.419,2.205 -2.612,4.334 -3.579,6.387Z" style="fill:#e0e0e0;fill-rule:nonzero;"/></g></g><g><g id="Layer0_1_MEMBER_0_MEMBER_8_FILL"><path d="M323.449,279.494c1.48,-1.933 2.824,-3.986 4.032,-6.161c1.359,-2.054 2.567,-4.198 3.624,-6.433c-1.57,2.114 -2.914,4.168 -4.032,6.161c-1.45,2.205 -2.658,4.349 -3.624,6.433Z" style="fill:#e0e0e0;fill-rule:nonzero;"/></g></g><g><g id="Layer0_1_MEMBER_0_MEMBER_9_FILL"><path d="M338.535,213.309c1.299,-1.963 2.492,-4.092 3.579,-6.387c-1.51,2.023 -2.854,4.062 -4.032,6.116c-1.45,2.325 -2.643,4.47 -3.579,6.433c1.299,-1.691 2.643,-3.745 4.032,-6.161Z" style="fill:#e0e0e0;fill-rule:nonzero;"/></g></g><g><g id="Layer0_1_MEMBER_0_MEMBER_10_FILL"><path d="M304.649,134.35c1.48,-1.933 2.824,-3.986 4.032,-6.161c1.359,-2.054 2.567,-4.198 3.624,-6.433c-1.48,1.933 -2.824,3.986 -4.032,6.161c-1.359,2.054 -2.567,4.198 -3.624,6.433Z" style="fill:#e0e0e0;fill-rule:nonzero;"/></g></g><g><g id="Layer0_1_MEMBER_0_MEMBER_11_FILL"><path d="M258.397,245.065c1.57,-2.054 2.914,-4.107 4.032,-6.161c1.419,-2.114 2.627,-4.243 3.624,-6.387c-1.57,2.054 -2.914,4.107 -4.032,6.161c-1.238,1.872 -2.446,4.002 -3.624,6.387Z" style="fill:#e0e0e0;fill-rule:nonzero;"/></g></g><g><g id="Layer0_1_MEMBER_0_MEMBER_12_FILL"><path d="M301.705,207.511c1.299,-1.691 2.643,-3.745 4.032,-6.161c1.268,-1.903 2.461,-4.047 3.579,-6.433c-1.57,2.144 -2.914,4.198 -4.032,6.161c-1.359,2.144 -2.552,4.288 -3.579,6.433Z" style="fill:#e0e0e0;fill-rule:nonzero;"/></g></g><g><g id="Layer0_1_MEMBER_0_MEMBER_13_FILL"><path d="M120.546,238.904c1.419,-2.114 2.627,-4.243 3.624,-6.387c-1.57,2.054 -2.914,4.107 -4.032,6.161c-1.238,1.872 -2.446,4.002 -3.624,6.387c1.57,-2.054 2.914,-4.107 4.032,-6.161Z" style="fill:#e0e0e0;fill-rule:nonzero;"/></g></g><g><g id="Layer0_1_MEMBER_0_MEMBER_14_FILL"><path d="M31.167,419.067c1.57,-2.144 2.914,-4.198 4.032,-6.161c1.329,-2.054 2.522,-4.198 3.579,-6.433c-1.48,1.933 -2.824,3.986 -4.032,6.161c-1.268,1.903 -2.461,4.047 -3.579,6.433Z" style="fill:#e0e0e0;fill-rule:nonzero;"/></g></g><g><g id="Layer0_1_MEMBER_0_MEMBER_15_FILL"><path d="M119.051,153.467c1.48,-1.933 2.824,-3.986 4.032,-6.161c1.359,-2.054 2.567,-4.198 3.624,-6.433c-1.48,1.933 -2.824,3.986 -4.032,6.161c-1.359,2.054 -2.567,4.198 -3.624,6.433Z" style="fill:#e0e0e0;fill-rule:nonzero;"/></g></g><g><g id="Layer0_1_MEMBER_0_MEMBER_16_FILL"><path d="M11.235,275.825c1.51,-2.023 2.854,-4.062 4.032,-6.116c1.45,-2.325 2.643,-4.47 3.579,-6.433c-1.57,2.054 -2.914,4.107 -4.032,6.161c-1.299,1.963 -2.492,4.092 -3.579,6.387Z" style="fill:#e0e0e0;fill-rule:nonzero;"/></g></g><g><g id="Layer0_1_MEMBER_0_MEMBER_17_FILL"><path d="M65.777,281.216c1.48,-1.933 2.824,-3.986 4.032,-6.161c1.359,-2.054 2.567,-4.198 3.624,-6.433c-1.57,2.114 -2.914,4.168 -4.032,6.161c-1.178,1.782 -2.386,3.926 -3.624,6.433Z" style="fill:#e0e0e0;fill-rule:nonzero;"/></g></g><g><g id="Layer0_1_MEMBER_0_MEMBER_18_FILL"><path d="M318.149,34.144c-4.258,-1.842 -8.547,-1.933 -12.865,-0.272c-1.993,0.755 -3.775,1.872 -5.346,3.352c-1.54,1.45 -2.778,3.126 -3.715,5.028c-0.513,-0.121 -1.057,-0.106 -1.631,0.045c-0.634,0.211 -1.178,0.347 -1.631,0.408c-2.023,0.423 -3.745,1.374 -5.164,2.854c-1.45,1.48 -2.356,3.231 -2.718,5.255c-3.262,-1.057 -6.448,-0.8 -9.559,0.77c-1.48,0.785 -2.643,1.903 -3.488,3.352c-0.846,1.45 -1.253,3.02 -1.223,4.711c0.06,1.691 0.664,3.171 1.812,4.44c1.148,1.268 2.567,2.008 4.258,2.22c-1.691,2.869 -2.114,5.919 -1.268,9.151c0.846,3.231 2.703,5.678 5.572,7.339c2.688,1.601 5.557,2.069 8.607,1.404c3.05,-0.634 5.481,-2.22 7.293,-4.757c1.087,2.476 2.763,4.424 5.028,5.844c2.295,1.419 4.787,2.054 7.475,1.903c2.658,-0.211 5.044,-1.163 7.158,-2.854c2.084,-1.691 3.518,-3.82 4.304,-6.387c1.027,2.265 2.703,3.835 5.028,4.711c2.325,0.906 4.621,0.846 6.886,-0.181c1.812,-0.815 3.201,-2.099 4.168,-3.851c0.966,-1.752 1.314,-3.624 1.042,-5.617c2.295,1.268 4.681,1.54 7.158,0.815c2.507,-0.725 4.379,-2.22 5.617,-4.485c1.389,-2.476 1.601,-5.044 0.634,-7.701l-0.045,0c-0.695,-1.812 -1.812,-3.292 -3.352,-4.44c-1.601,-1.148 -3.367,-1.752 -5.3,-1.812c0.604,-2.96 0.076,-5.708 -1.586,-8.245c-1.661,-2.567 -3.986,-4.137 -6.976,-4.711c-2.537,-0.574 -4.953,-0.242 -7.248,0.997c-1.691,-4.319 -4.666,-7.414 -8.924,-9.287Z" style="fill:#ebebeb;fill-rule:nonzero;"/></g></g><g><g id="Layer0_1_MEMBER_0_MEMBER_19_FILL"><path d="M387.686,111.02c0.453,-2.174 0.076,-4.183 -1.133,-6.025c-1.238,-1.872 -2.945,-3.035 -5.119,-3.488c-1.872,-0.362 -3.654,-0.106 -5.346,0.77c-1.238,-3.171 -3.413,-5.451 -6.523,-6.84c-3.111,-1.359 -6.252,-1.419 -9.423,-0.181c-3.05,1.178 -5.27,3.231 -6.659,6.161c-0.393,-0.121 -0.785,-0.121 -1.178,0c-0.483,0.151 -0.891,0.257 -1.223,0.317c-1.48,0.302 -2.748,0.997 -3.805,2.084c-1.057,1.057 -1.706,2.325 -1.948,3.805c-2.476,-0.755 -4.817,-0.559 -7.022,0.589c-1.087,0.604 -1.948,1.435 -2.582,2.492c-0.634,1.057 -0.936,2.205 -0.906,3.443c0.06,1.238 0.513,2.325 1.359,3.262c0.846,0.906 1.888,1.435 3.126,1.586c-1.117,2.205 -1.299,4.47 -0.544,6.795c0.755,2.325 2.22,4.047 4.394,5.164c1.872,0.966 3.835,1.223 5.889,0.77c2.054,-0.423 3.73,-1.45 5.028,-3.08c0.785,1.812 2.023,3.231 3.715,4.258c1.661,1.027 3.473,1.495 5.436,1.404c1.963,-0.151 3.715,-0.846 5.255,-2.084c1.51,-1.238 2.552,-2.794 3.126,-4.666c0.785,1.661 2.023,2.809 3.715,3.443c1.721,0.634 3.413,0.574 5.074,-0.181c1.329,-0.604 2.341,-1.54 3.035,-2.809c0.725,-1.268 0.982,-2.627 0.77,-4.077c1.661,0.936 3.413,1.133 5.255,0.589c1.812,-0.513 3.186,-1.601 4.122,-3.262c0.997,-1.842 1.163,-3.73 0.498,-5.663l-0.045,0c-0.513,-1.329 -1.344,-2.416 -2.492,-3.262c-1.148,-0.815 -2.431,-1.253 -3.851,-1.314Z" style="fill:#f5f5f5;fill-rule:nonzero;"/></g></g><g><g id="Layer0_1_MEMBER_0_MEMBER_20_FILL"><path d="M64.418,41.301l0,-0.045c-0.483,-1.329 -1.314,-2.416 -2.492,-3.262c-1.148,-0.846 -2.431,-1.299 -3.851,-1.359c0.423,-2.174 0.03,-4.183 -1.178,-6.025c-1.238,-1.872 -2.945,-3.02 -5.119,-3.443c-1.933,-0.393 -3.715,-0.151 -5.346,0.725c-1.208,-3.171 -3.382,-5.436 -6.523,-6.795c-3.111,-1.359 -6.252,-1.419 -9.423,-0.181c-3.05,1.178 -5.27,3.216 -6.659,6.116c-0.362,-0.091 -0.755,-0.076 -1.178,0.045c-0.695,0.181 -1.087,0.272 -1.178,0.272c-1.51,0.332 -2.794,1.027 -3.851,2.084c-1.057,1.087 -1.706,2.371 -1.948,3.851c-2.386,-0.785 -4.726,-0.589 -7.022,0.589c-1.087,0.574 -1.933,1.404 -2.537,2.492c-0.634,1.027 -0.951,2.159 -0.951,3.398c0.06,1.238 0.513,2.325 1.359,3.262c0.846,0.906 1.888,1.45 3.126,1.631c-1.117,2.174 -1.299,4.424 -0.544,6.75c0.755,2.325 2.22,4.047 4.394,5.164c1.872,0.966 3.835,1.223 5.889,0.77c2.054,-0.423 3.73,-1.45 5.028,-3.08c0.785,1.812 2.023,3.247 3.715,4.304c1.661,1.027 3.473,1.495 5.436,1.404c1.963,-0.151 3.715,-0.846 5.255,-2.084c1.51,-1.238 2.567,-2.794 3.171,-4.666c0.755,1.661 1.993,2.824 3.715,3.488c1.691,0.634 3.367,0.574 5.028,-0.181c1.329,-0.574 2.356,-1.51 3.08,-2.809c0.725,-1.299 0.982,-2.673 0.77,-4.122c1.661,0.936 3.413,1.148 5.255,0.634c1.812,-0.544 3.186,-1.646 4.122,-3.307c0.997,-1.812 1.148,-3.684 0.453,-5.617Z" style="fill:#f5f5f5;fill-rule:nonzero;"/></g></g><g><g id="Layer0_1_MEMBER_0_MEMBER_21_FILL"><path d="M164.805,82.389c-2.748,-1.963 -5.814,-3.02 -9.196,-3.171c1.057,-5.195 0.136,-9.996 -2.763,-14.406c-2.929,-4.409 -6.991,-7.142 -12.186,-8.199c-4.44,-0.876 -8.652,-0.272 -12.639,1.812c-2.96,-7.55 -8.124,-12.956 -15.493,-16.218c-7.399,-3.231 -14.874,-3.382 -22.424,-0.453c-3.473,1.329 -6.569,3.262 -9.287,5.799c-2.748,2.537 -4.923,5.481 -6.523,8.834c-0.936,-0.242 -1.872,-0.242 -2.809,0c-1.117,0.362 -2.069,0.619 -2.854,0.77c-3.564,0.695 -6.599,2.325 -9.106,4.893c-2.537,2.567 -4.107,5.632 -4.711,9.196c-2.839,-0.846 -5.678,-1.163 -8.517,-0.951c-2.99,0.211 -5.693,0.982 -8.109,2.31c-2.567,1.45 -4.621,3.428 -6.161,5.934c-1.57,2.597 -2.28,5.3 -2.129,8.109c0.151,2.929 1.253,5.527 3.307,7.792c2.084,2.325 4.53,3.594 7.339,3.805c-2.718,4.621 -3.413,9.77 -2.084,15.448c1.329,5.648 4.228,9.936 8.698,12.865c4.5,2.899 9.604,3.805 15.312,2.718c5.738,-1.057 10.163,-3.775 13.273,-8.154c1.872,4.288 4.802,7.671 8.788,10.147c3.986,2.476 8.32,3.594 13.001,3.352c4.651,-0.393 8.788,-2.054 12.412,-4.983c3.654,-2.929 6.161,-6.629 7.52,-11.099c1.782,3.956 4.696,6.705 8.743,8.245c4.047,1.54 8.048,1.419 12.005,-0.362c3.201,-1.419 5.648,-3.654 7.339,-6.705c1.691,-3.05 2.295,-6.312 1.812,-9.785c3.956,2.174 8.109,2.643 12.458,1.404c4.349,-1.268 7.611,-3.881 9.785,-7.837c1.148,-2.054 1.812,-4.243 1.993,-6.569c0.181,-2.325 -0.121,-4.591 -0.906,-6.795c-1.178,-3.171 -3.141,-5.753 -5.889,-7.746Z" style="fill:#ebebeb;fill-rule:nonzero;"/></g></g><g><g id="Layer0_1_MEMBER_0_MEMBER_22_FILL"><path d="M18.755,317.774l-0.951,0.045c-1.087,0.03 -2.099,0.68 -3.035,1.948c-1.872,2.507 -2.371,6.81 -1.495,12.911c0.876,6.131 1.872,11.703 2.99,16.716c0.574,2.537 1.042,4.44 1.404,5.708l-0.272,1.586c-0.362,1.057 -1.087,1.495 -2.174,1.314c-2.144,-0.634 -3.835,-1.087 -5.074,-1.359c-2.295,-0.483 -3.896,-0.181 -4.802,0.906c-1.057,1.299 -1.329,2.869 -0.815,4.711c0.483,1.752 1.676,3.7 3.579,5.844c1.661,1.812 4.077,4.606 7.248,8.381c2.809,3.352 4.455,5.346 4.938,5.98c0.423,0.574 0.619,1.102 0.589,1.586c-0.06,0.604 -0.498,0.906 -1.314,0.906c-2.99,-0.453 -5.648,-0.664 -7.973,-0.634c-4.5,0.03 -6.961,1.299 -7.384,3.805c-0.423,2.537 1.359,5.98 5.346,10.329c1.57,1.691 3.941,3.911 7.112,6.659c1.117,0.936 1.465,1.812 1.042,2.627c-0.151,0.332 -1.102,0.302 -2.854,-0.091c-2.295,-0.544 -4.047,-0.936 -5.255,-1.178c-5.225,-0.966 -7.958,-0.06 -8.199,2.718c-0.181,2.325 1.525,5.33 5.119,9.015c4.591,4.711 11.189,9.03 19.797,12.956l9.241,3.488l7.792,-6.161c7.037,-6.312 12.05,-12.397 15.04,-18.256c2.356,-4.591 3.096,-7.973 2.22,-10.147c-1.057,-2.597 -3.926,-2.643 -8.607,-0.136c-2.205,1.268 -3.775,2.159 -4.711,2.673c-1.54,0.876 -2.446,1.193 -2.718,0.951c-0.634,-0.664 -0.559,-1.616 0.227,-2.854c1.993,-3.05 3.609,-5.859 4.847,-8.426c2.537,-5.346 3.216,-9.166 2.039,-11.461c-1.148,-2.295 -3.866,-2.794 -8.154,-1.495c-4.379,1.842 -6.856,2.854 -7.429,3.035c-0.785,0.242 -1.299,0.076 -1.54,-0.498c-0.181,-0.513 -0.151,-1.072 0.091,-1.676c3.352,-8.184 5.799,-13.953 7.339,-17.305c2.476,-5.376 2.31,-9.015 -0.498,-10.918c-1.208,-0.785 -2.809,-0.604 -4.802,0.544c-2.174,1.51 -3.654,2.461 -4.44,2.854c-0.966,0.483 -1.797,0.287 -2.492,-0.589l-0.725,-1.45c0,-1.329 -0.106,-3.277 -0.317,-5.844c-0.423,-5.134 -1.133,-10.751 -2.129,-16.852c-0.966,-6.101 -2.733,-10.072 -5.3,-11.914c-0.815,-0.574 -1.661,-0.891 -2.537,-0.951Z" style="fill:#ebebeb;fill-rule:nonzero;"/></g></g><g><g id="Layer0_1_MEMBER_0_MEMBER_23_FILL"><path d="M22.56,348.397l-2.854,-17.441l0,0.317l8.834,59.299c3.654,25.58 5.904,41.058 6.75,46.434l0.227,-0.045c-0.302,-2.054 -2.522,-17.531 -6.659,-46.434c-1.903,-13.379 -4.002,-27.422 -6.297,-42.13Z" style="fill:#e0e0e0;fill-rule:nonzero;"/></g></g><g><g id="Layer0_1_MEMBER_0_MEMBER_24_FILL"><path d="M12.367,361.625l0.498,0.498l12.639,10.872c0.121,0.121 0.317,0.257 0.589,0.408l-6.75,-6.025c-2.507,-2.205 -4.122,-3.594 -4.847,-4.168l-1.54,-1.178c-0.181,-0.181 -0.378,-0.317 -0.589,-0.408Z" style="fill:#e0e0e0;fill-rule:nonzero;"/></g></g><g><g id="Layer0_1_MEMBER_0_MEMBER_25_FILL"><path d="M26.954,373.041c0.091,0.091 2.31,-2.597 6.659,-8.064c4.349,-5.406 6.493,-8.139 6.433,-8.199c-0.121,-0.06 -2.341,2.612 -6.659,8.018c-4.409,5.436 -6.554,8.184 -6.433,8.245Z" style="fill:#e0e0e0;fill-rule:nonzero;"/></g></g><g><g id="Layer0_1_MEMBER_0_MEMBER_26_FILL"><path d="M42.221,389.168l1.948,-1.857l-2.129,1.676c-1.178,1.057 -2.869,2.416 -5.074,4.077c-2.627,1.903 -4.394,3.186 -5.3,3.851l-2.174,1.54c0.121,-0.03 0.332,-0.136 0.634,-0.317l1.676,-1.042c1.782,-1.148 3.564,-2.416 5.346,-3.805c1.48,-1.117 3.171,-2.492 5.074,-4.122Z" style="fill:#e0e0e0;fill-rule:nonzero;"/></g></g><g><g id="Layer0_1_MEMBER_0_MEMBER_27_FILL"><path d="M14.043,391.025l7.656,3.76c2.627,1.238 4.455,2.069 5.481,2.492l2.31,0.997l-0.589,-0.362l-14.859,-6.886Z" style="fill:#e0e0e0;fill-rule:nonzero;"/></g></g><g><g id="Layer0_1_MEMBER_0_MEMBER_28_FILL"><path d="M13.409,413.812l19.932,9.015c-0.211,-0.181 -0.468,-0.317 -0.77,-0.408l-18.347,-8.335l-0.815,-0.272Z" style="fill:#e0e0e0;fill-rule:nonzero;"/></g></g><g><g id="Layer0_1_MEMBER_0_MEMBER_29_FILL"><path d="M32.934,422.51l2.809,-1.948c2.537,-1.842 4.742,-3.503 6.614,-4.983c1.842,-1.51 3.941,-3.307 6.297,-5.391l1.857,-1.721c0.272,-0.211 0.483,-0.438 0.634,-0.68l-8.97,7.52c-2.325,1.872 -4.515,3.564 -6.569,5.074l-2.673,2.129Z" style="fill:#e0e0e0;fill-rule:nonzero;"/></g></g><g><g id="Layer0_1_MEMBER_0_MEMBER_30_FILL"><path d="M374.232,386.088c-1.51,3.413 -2.22,6.795 -2.129,10.147c0.181,6.916 1.888,11.975 5.119,15.176c4.56,-5.225 7.278,-10.253 8.154,-15.085c0.604,-2.869 0.529,-5.738 -0.227,-8.607c-0.755,-2.96 -2.476,-5.164 -5.164,-6.614c-2.174,-0.544 -4.092,1.117 -5.753,4.983Z" style="fill:#ebebeb;fill-rule:nonzero;"/></g></g><g><g id="Layer0_1_MEMBER_0_MEMBER_31_FILL"><path d="M398.513,412.136c-0.936,-1.238 -2.205,-1.903 -3.805,-1.993c-3.352,-0.513 -6.403,0.242 -9.151,2.265c-1.299,0.997 -2.265,2.265 -2.899,3.805c-0.604,1.51 -0.8,3.08 -0.589,4.711l0,-0.091c3.715,1.389 8.094,0.71 13.137,-2.039c1.299,-0.634 2.341,-1.54 3.126,-2.718c0.393,-0.604 0.604,-1.253 0.634,-1.948c0.03,-0.725 -0.121,-1.389 -0.453,-1.993Z" style="fill:#ebebeb;fill-rule:nonzero;"/></g></g><g><g id="Layer0_1_MEMBER_0_MEMBER_32_FILL"><path d="M380.936,421.966c-0.906,1.208 -1.797,2.582 -2.673,4.122c-0.785,1.329 -1.329,2.567 -1.631,3.715c-0.393,0.997 -0.695,2.19 -0.906,3.579c0.574,-1.329 0.997,-2.476 1.268,-3.443c0.423,-1.178 0.997,-2.371 1.721,-3.579c0.785,-1.329 1.676,-2.673 2.673,-4.032c1.812,-2.386 4.017,-4.258 6.614,-5.617c0.815,-0.393 1.631,-0.725 2.446,-0.997l0.951,-0.317c-0.272,-0.03 -0.604,0 -0.997,0.091c-0.846,0.181 -1.706,0.453 -2.582,0.815c-2.809,1.359 -5.104,3.247 -6.886,5.663Z" style="fill:#e0e0e0;fill-rule:nonzero;"/></g></g><g><g id="Layer0_1_MEMBER_0_MEMBER_33_FILL"><path d="M378.218,396.326c0.06,-1.419 0.091,-3.111 0.091,-5.074c0,-0.846 -0.03,-1.48 -0.091,-1.903l-1.223,23.692c-0.211,3.684 -0.589,9.272 -1.133,16.761l-0.408,5.074c-0.091,0.513 -0.106,1.133 -0.045,1.857c0.151,-0.634 0.242,-1.253 0.272,-1.857c0.242,-1.57 0.438,-3.247 0.589,-5.028c0.544,-5.134 0.982,-10.721 1.314,-16.761c0.393,-6.825 0.604,-12.412 0.634,-16.761Z" style="fill:#e0e0e0;fill-rule:nonzero;"/></g></g><g><g id="Layer0_1_MEMBER_0_MEMBER_34_FILL"><path d="M374.866,423.098l0.045,-0.498c-0.846,-3.352 -2.386,-6.327 -4.621,-8.924c-2.265,-2.627 -4.998,-4.575 -8.199,-5.844c-2.265,-0.876 -3.896,-0.785 -4.893,0.272c-1.027,1.117 -1.027,2.763 0,4.938c1.661,3.322 4.092,5.889 7.293,7.701c3.231,1.842 6.689,2.627 10.374,2.356Z" style="fill:#ebebeb;fill-rule:nonzero;"/></g></g><g><g id="Layer0_1_MEMBER_0_MEMBER_35_FILL"><path d="M363.495,412.634c0.876,0.725 1.872,1.419 2.99,2.084c2.537,1.721 4.651,3.669 6.342,5.844c1.752,2.295 2.748,4.953 2.99,7.973c0.06,0.815 0.076,1.691 0.045,2.627c-0.03,0.664 -0.03,0.997 0,0.997c0.091,-0.181 0.166,-0.513 0.227,-0.997c0.121,-0.906 0.166,-1.797 0.136,-2.673c0,-1.299 -0.211,-2.612 -0.634,-3.941c-0.483,-1.51 -1.223,-2.96 -2.22,-4.349c-1.933,-2.446 -4.153,-4.394 -6.659,-5.844c-1.057,-0.634 -1.827,-1.072 -2.31,-1.314c-0.272,-0.181 -0.574,-0.317 -0.906,-0.408Z" style="fill:#e0e0e0;fill-rule:nonzero;"/></g></g><g><g id="Layer0_1_MEMBER_1_MEMBER_0_FILL"><path d="M88.382,157.77c1.54,-2.084 2.884,-4.137 4.032,-6.161c1.419,-2.205 2.612,-4.334 3.579,-6.387c-1.359,1.782 -2.703,3.82 -4.032,6.116c-1.329,2.054 -2.522,4.198 -3.579,6.433Z" style="fill:#263238;fill-rule:nonzero;"/></g></g><g><g id="Layer0_1_MEMBER_1_MEMBER_1_FILL"><path d="M123.128,178.201c1.45,-2.325 2.643,-4.47 3.579,-6.433c-1.299,1.691 -2.643,3.745 -4.032,6.161c-1.299,1.963 -2.492,4.092 -3.579,6.387c1.51,-2.023 2.854,-4.062 4.032,-6.116Z" style="fill:#263238;fill-rule:nonzero;"/></g></g><g><g id="Layer0_1_MEMBER_1_MEMBER_2_FILL"><path d="M86.887,204.612c1.54,-2.023 2.884,-4.062 4.032,-6.116c1.268,-1.933 2.476,-4.077 3.624,-6.433c-1.48,1.933 -2.824,3.986 -4.032,6.161c-1.419,2.114 -2.627,4.243 -3.624,6.387Z" style="fill:#263238;fill-rule:nonzero;"/></g></g><g><g id="Layer0_1_MEMBER_1_MEMBER_3_FILL"><path d="M47.747,281.578c1.299,-1.963 2.492,-4.092 3.579,-6.387c-1.54,2.084 -2.884,4.137 -4.032,6.161c-1.419,2.205 -2.612,4.334 -3.579,6.387c1.57,-2.054 2.914,-4.107 4.032,-6.161Z" style="fill:#263238;fill-rule:nonzero;"/></g></g><g><g id="Layer0_1_MEMBER_1_MEMBER_4_FILL"><path d="M185.508,423.234c1.57,-2.054 2.914,-4.107 4.032,-6.161c1.238,-1.872 2.446,-4.002 3.624,-6.387c-1.54,2.023 -2.884,4.062 -4.032,6.116c-1.45,2.205 -2.658,4.349 -3.624,6.433Z" style="fill:#263238;fill-rule:nonzero;"/></g></g><g><g id="Layer0_1_MEMBER_1_MEMBER_5_FILL"><path d="M267.367,151.156c1.389,-1.782 2.733,-3.82 4.032,-6.116c1.329,-2.054 2.522,-4.198 3.579,-6.433c-1.45,1.933 -2.794,3.986 -4.032,6.161c-1.419,2.205 -2.612,4.334 -3.579,6.387Z" style="fill:#263238;fill-rule:nonzero;"/></g></g><g><g id="Layer0_1_MEMBER_1_MEMBER_6_FILL"><path d="M317.334,153.421c1.54,-2.084 2.884,-4.137 4.032,-6.161c1.299,-1.963 2.492,-4.092 3.579,-6.387c-1.54,2.023 -2.884,4.062 -4.032,6.116c-1.329,2.054 -2.522,4.198 -3.579,6.433Z" style="fill:#263238;fill-rule:nonzero;"/></g></g><g><g id="Layer0_1_MEMBER_1_MEMBER_7_FILL"><path d="M274.796,200.127c1.48,-1.933 2.824,-3.986 4.032,-6.161c1.268,-1.903 2.461,-4.047 3.579,-6.433c-1.45,1.933 -2.794,3.986 -4.032,6.161c-1.359,2.144 -2.552,4.288 -3.579,6.433Z" style="fill:#263238;fill-rule:nonzero;"/></g></g><g><g id="Layer0_1_MEMBER_1_MEMBER_8_FILL"><path d="M294.819,257.387c1.299,-1.691 2.643,-3.745 4.032,-6.161c1.268,-1.903 2.461,-4.047 3.579,-6.433c-1.299,1.691 -2.643,3.745 -4.032,6.161c-1.268,1.903 -2.461,4.047 -3.579,6.433Z" style="fill:#263238;fill-rule:nonzero;"/></g></g><g><g id="Layer0_1_MEMBER_1_MEMBER_9_FILL"><path d="M301.478,317.185c-1.419,2.205 -2.612,4.334 -3.579,6.387c1.419,-1.842 2.763,-3.896 4.032,-6.161c1.299,-1.963 2.492,-4.092 3.579,-6.387c-1.54,2.084 -2.884,4.137 -4.032,6.161Z" style="fill:#263238;fill-rule:nonzero;"/></g></g><g><g id="Layer0_1_MEMBER_1_MEMBER_10_FILL"><path d="M0,411.864c1.54,-2.084 2.884,-4.137 4.032,-6.161c1.419,-2.205 2.612,-4.334 3.579,-6.387c-1.57,2.054 -2.914,4.107 -4.032,6.161c-1.299,1.963 -2.492,4.092 -3.579,6.387Z" style="fill:#263238;fill-rule:nonzero;"/></g></g><g><g id="Layer0_1_MEMBER_1_MEMBER_11_FILL"><path d="M39.185,240.762c1.57,-2.114 2.914,-4.168 4.032,-6.161c1.45,-2.205 2.658,-4.349 3.624,-6.433c-1.48,1.933 -2.824,3.986 -4.032,6.161c-1.178,1.782 -2.386,3.926 -3.624,6.433Z" style="fill:#263238;fill-rule:nonzero;"/></g></g><g><g id="Layer0_1_MEMBER_1_MEMBER_12_FILL"><path d="M93.094,253.763c1.389,-1.872 2.733,-3.926 4.032,-6.161c1.45,-2.325 2.643,-4.47 3.579,-6.433c-1.57,2.054 -2.914,4.107 -4.032,6.161c-1.268,1.903 -2.461,4.047 -3.579,6.433Z" style="fill:#263238;fill-rule:nonzero;"/></g></g><g><g id="Layer0_1_MEMBER_1_MEMBER_13_FILL"><path d="M36.241,347.31c1.48,-1.933 2.824,-3.986 4.032,-6.161c1.178,-1.782 2.386,-3.926 3.624,-6.433c-1.419,1.872 -2.778,3.926 -4.077,6.161c-1.359,2.144 -2.552,4.288 -3.579,6.433Z" style="fill:#263238;fill-rule:nonzero;"/></g></g><g><g id="Layer0_1_MEMBER_1_MEMBER_14_FILL"><path d="M194.251,372.135c1.48,-1.933 2.824,-3.986 4.032,-6.161c1.359,-2.054 2.567,-4.198 3.624,-6.433c-1.48,1.933 -2.824,3.986 -4.032,6.161c-1.359,2.054 -2.567,4.198 -3.624,6.433Z" style="fill:#263238;fill-rule:nonzero;"/></g></g><g><g id="Layer0_1_MEMBER_1_MEMBER_15_FILL"><path d="M231.805,395.329c1.299,-1.963 2.492,-4.092 3.579,-6.387c-1.51,2.023 -2.854,4.062 -4.032,6.116c-1.45,2.325 -2.643,4.47 -3.579,6.433c1.419,-1.842 2.763,-3.896 4.032,-6.161Z" style="fill:#263238;fill-rule:nonzero;"/></g></g><g><g id="Layer0_1_MEMBER_1_MEMBER_16_FILL"><path d="M220.39,235.235c1.54,-2.023 2.884,-4.062 4.032,-6.116c1.268,-1.933 2.476,-4.077 3.624,-6.433c-1.54,1.993 -2.899,4.047 -4.077,6.161c-1.419,2.205 -2.612,4.334 -3.579,6.387Z" style="fill:#263238;fill-rule:nonzero;"/></g></g><g><g id="Layer0_1_MEMBER_2_MEMBER_0_FILL"><path d="M315.023,75.141l0.045,0.045c-1.752,-4.711 -4.666,-8.547 -8.743,-11.506c-4.077,-2.96 -8.637,-4.545 -13.681,-4.757c1.601,-7.701 0.227,-14.844 -4.122,-21.427c-4.349,-6.554 -10.389,-10.616 -18.12,-12.186c-3.201,-0.664 -6.418,-0.77 -9.649,-0.317c-3.262,0.453 -6.342,1.435 -9.241,2.945c-4.379,-11.204 -12.08,-19.238 -23.104,-24.1c-11.023,-4.862 -22.152,-5.104 -33.387,-0.725c-5.164,2.023 -9.77,4.923 -13.817,8.698c-4.047,3.745 -7.278,8.124 -9.694,13.137c-1.389,-0.393 -2.794,-0.408 -4.213,-0.045c-1.661,0.574 -3.08,0.966 -4.258,1.178c-5.255,1.057 -9.755,3.503 -13.5,7.339c-3.745,3.835 -6.085,8.396 -7.022,13.681c-4.228,-1.268 -8.441,-1.752 -12.639,-1.45c-4.5,0.302 -8.547,1.465 -12.141,3.488c-3.805,2.114 -6.856,5.044 -9.151,8.788c-2.325,3.866 -3.382,7.882 -3.171,12.05c0.242,4.319 1.872,8.169 4.893,11.552c3.111,3.473 6.75,5.391 10.918,5.753c-4.017,6.856 -5.044,14.511 -3.08,22.968c1.993,8.426 6.312,14.813 12.956,19.162c6.674,4.319 14.27,5.678 22.786,4.077c8.517,-1.631 15.1,-5.678 19.751,-12.141c2.597,6.282 6.961,11.31 13.092,15.085c6.101,3.775 12.533,5.451 19.298,5.028c6.765,-0.453 12.941,-2.929 18.528,-7.429c5.587,-4.53 9.317,-10.057 11.189,-16.58c2.295,5.074 6.161,8.879 11.597,11.416c5.466,2.507 10.872,2.99 16.218,1.45c5.346,-1.54 9.649,-4.817 12.911,-9.83c3.292,-5.044 4.56,-10.329 3.805,-15.855c5.889,3.262 12.065,3.956 18.528,2.084c6.493,-1.872 11.355,-5.753 14.587,-11.642c1.691,-3.08 2.673,-6.342 2.945,-9.785c0.302,-3.503 -0.136,-6.886 -1.314,-10.147Z" style="fill:#74777b;fill-rule:nonzero;"/></g></g><g><g id="Layer0_1_MEMBER_2_MEMBER_1_FILL"><path d="M200.185,40.939c-2.174,-0.725 -4.409,-1.087 -6.705,-1.087c-2.597,-0.091 -5.179,0.362 -7.746,1.359c-2.839,1.148 -5.33,2.809 -7.475,4.983c-2.114,2.174 -3.745,4.696 -4.893,7.565c-1.067,2.798 -1.581,5.622 -1.54,8.471c-2.217,-0.755 -4.512,-1.133 -6.886,-1.133c-2.507,0.03 -4.923,0.498 -7.248,1.404c-2.114,0.876 -3.926,1.978 -5.436,3.307c-1.299,1.087 -2.507,2.461 -3.624,4.122c-1.45,2.174 -2.431,4.575 -2.945,7.203c-0.151,0.695 -0.242,1.389 -0.272,2.084l0,0.68l0.136,-0.68c0.03,-0.483 0.136,-1.178 0.317,-2.084c0.544,-2.507 1.555,-4.847 3.035,-7.022c2.235,-3.322 5.195,-5.693 8.879,-7.112c2.265,-0.876 4.621,-1.329 7.067,-1.359c2.446,0 4.817,0.423 7.112,1.268l0.362,0.136l0,-0.408c-0.121,-2.899 0.378,-5.783 1.495,-8.652c1.087,-2.778 2.673,-5.24 4.757,-7.384c2.114,-2.114 4.545,-3.745 7.293,-4.893c2.476,-0.966 4.983,-1.435 7.52,-1.404c2.356,0 4.575,0.332 6.659,0.997c3.201,0.966 6.01,2.567 8.426,4.802c1.148,1.087 1.978,1.963 2.492,2.627l-0.544,-0.815c-0.634,-0.785 -1.223,-1.435 -1.767,-1.948c-2.476,-2.356 -5.3,-4.032 -8.471,-5.028Z" style="fill:#263238;fill-rule:nonzero;"/></g></g><g><g id="Layer0_1_MEMBER_3_MEMBER_0_FILL"><path d="M359.826,396.008c-1.691,-1.54 -7.731,-0.468 -18.12,3.216l-15.04,5.934l-19.887,-22.016l-20.703,20.023l32.436,32.979l41.315,-40.137Z" style="fill:#ffca00;fill-rule:nonzero;"/></g></g><g><g><g id="flash0_ai_Assets_28_Layer_1__Group__0_Layer0_0_MEMBER_0_FILL"><path d="M341.706,399.225c-5.164,1.812 -10.178,3.79 -15.04,5.934l-19.887,-22.016l-20.703,20.023l32.436,32.979l41.315,-40.137c-1.691,-1.54 -7.731,-0.468 -18.12,3.216Z" style="fill-rule:nonzero;"/></g></g></g><g><g id="Layer0_1_MEMBER_3_MEMBER_2_FILL"><path d="M312.079,415.986c-0.224,0.462 -0.27,0.961 -0.136,1.495c0.151,0.574 0.468,1.027 0.951,1.359c0.483,0.302 1.027,0.393 1.631,0.272c0.604,-0.121 1.072,-0.438 1.404,-0.951c0.302,-0.544 0.378,-1.117 0.227,-1.721c-0.151,-0.634 -0.483,-1.133 -0.997,-1.495c-0.574,-0.272 -1.148,-0.302 -1.721,-0.091c-0.604,0.181 -1.057,0.559 -1.359,1.133Z" style="fill:#e0e0e0;fill-rule:nonzero;"/></g></g><g><g id="Layer0_1_MEMBER_3_MEMBER_3_FILL"><path d="M359.826,396.054c-0.423,-0.634 -1.163,-0.906 -2.22,-0.815l-1.45,0.317l-40.771,37.192l3.126,3.443l41.315,-40.137Z" style="fill:#263238;fill-rule:nonzero;"/></g></g><g><g id="Layer0_1_MEMBER_3_MEMBER_4_FILL"><path d="M327.164,404.299c-0.091,-0.181 -0.393,0 -0.906,0.544c-0.544,0.574 -0.921,1.284 -1.133,2.129c-0.211,0.846 -0.196,1.661 0.045,2.446c0.181,0.664 0.362,0.951 0.544,0.861c0.091,-0.03 0.136,-0.347 0.136,-0.951c0.03,-0.846 0.106,-1.555 0.227,-2.129c0.121,-0.574 0.378,-1.223 0.77,-1.948c0.272,-0.574 0.378,-0.891 0.317,-0.951Z" style="fill:#263238;fill-rule:nonzero;"/></g></g><g><g id="Layer0_1_MEMBER_3_MEMBER_5_FILL"><path d="M333.234,401.898c-0.151,-0.151 -0.378,0.076 -0.68,0.68c-0.362,0.695 -0.513,1.45 -0.453,2.265c0.06,0.846 0.317,1.555 0.77,2.129c0.393,0.544 0.664,0.74 0.815,0.589c0.06,-0.06 0.015,-0.362 -0.136,-0.906c-0.242,-0.725 -0.393,-1.359 -0.453,-1.903c-0.06,-0.544 -0.03,-1.193 0.091,-1.948c0.091,-0.574 0.106,-0.876 0.045,-0.906Z" style="fill:#263238;fill-rule:nonzero;"/></g></g><g><g id="Layer0_1_MEMBER_3_MEMBER_6_FILL"><path d="M339.667,402.26c-0.151,-0.393 -0.287,-0.982 -0.408,-1.767c-0.121,-0.513 -0.227,-0.785 -0.317,-0.815c-0.151,-0.06 -0.287,0.211 -0.408,0.815c-0.121,0.664 -0.045,1.359 0.227,2.084c0.242,0.695 0.619,1.284 1.133,1.767c0.453,0.393 0.725,0.513 0.815,0.362c0.06,-0.091 -0.03,-0.362 -0.272,-0.815c-0.362,-0.695 -0.619,-1.238 -0.77,-1.631Z" style="fill:#263238;fill-rule:nonzero;"/></g></g><g><g id="Layer0_1_MEMBER_3_MEMBER_7_FILL"><path d="M322.045,399.814c-0.03,-0.181 -0.347,-0.136 -0.951,0.136c-0.725,0.272 -1.374,0.71 -1.948,1.314c-0.574,0.574 -0.951,1.223 -1.133,1.948c-0.181,0.604 -0.181,0.936 0,0.997c0.091,0.03 0.302,-0.196 0.634,-0.68c0.483,-0.755 0.891,-1.314 1.223,-1.676c0.362,-0.393 0.876,-0.846 1.54,-1.359c0.453,-0.362 0.664,-0.589 0.634,-0.68Z" style="fill:#263238;fill-rule:nonzero;"/></g></g><g><g id="Layer0_1_MEMBER_3_MEMBER_8_FILL"><path d="M336.904,404.163l-15.04,5.934l-19.887,-22.016l-20.703,20.023l32.436,33.024l41.315,-40.137c-1.691,-1.54 -7.731,-0.483 -18.12,3.171Z" style="fill:#ffca00;fill-rule:nonzero;"/></g></g><g><g id="Layer0_1_MEMBER_3_MEMBER_9_FILL"><path d="M307.232,420.924l0.136,-0.181c-0.302,0.513 -0.378,1.072 -0.227,1.676c0.121,0.574 0.423,1.027 0.906,1.359c0.513,0.302 1.072,0.393 1.676,0.272c0.574,-0.121 1.027,-0.438 1.359,-0.951c0.332,-0.544 0.423,-1.117 0.272,-1.721c-0.151,-0.634 -0.498,-1.133 -1.042,-1.495c-0.574,-0.272 -1.148,-0.302 -1.721,-0.091c-0.604,0.211 -1.057,0.589 -1.359,1.133Z" style="fill:#e0e0e0;fill-rule:nonzero;"/></g></g><g><g id="Layer0_1_MEMBER_3_MEMBER_10_FILL"><path d="M355.024,400.992c-0.423,-0.634 -1.163,-0.906 -2.22,-0.815l-1.45,0.272l-40.771,37.237l3.126,3.443l41.315,-40.137Z" style="fill:#263238;fill-rule:nonzero;"/></g></g><g><g id="Layer0_1_MEMBER_3_MEMBER_11_FILL"><path d="M322.317,409.236c-0.091,-0.181 -0.378,0 -0.861,0.544c-0.574,0.574 -0.966,1.284 -1.178,2.129c-0.211,0.876 -0.196,1.691 0.045,2.446c0.211,0.664 0.408,0.951 0.589,0.861c0.091,-0.03 0.136,-0.347 0.136,-0.951c0,-0.846 0.06,-1.555 0.181,-2.129c0.121,-0.574 0.378,-1.223 0.77,-1.948c0.272,-0.574 0.378,-0.891 0.317,-0.951Z" style="fill:#263238;fill-rule:nonzero;"/></g></g><g><g id="Layer0_1_MEMBER_3_MEMBER_12_FILL"><path d="M328.387,406.835c-0.151,-0.151 -0.378,0.076 -0.68,0.68c-0.362,0.695 -0.513,1.45 -0.453,2.265c0.091,0.846 0.362,1.555 0.815,2.129c0.393,0.544 0.649,0.74 0.77,0.589c0.06,-0.06 0.015,-0.362 -0.136,-0.906c-0.242,-0.725 -0.393,-1.359 -0.453,-1.903c-0.06,-0.513 -0.015,-1.163 0.136,-1.948c0.091,-0.574 0.091,-0.876 0,-0.906Z" style="fill:#263238;fill-rule:nonzero;"/></g></g><g><g id="Layer0_1_MEMBER_3_MEMBER_13_FILL"><path d="M335.907,409.644c0.06,-0.091 -0.03,-0.362 -0.272,-0.815c-0.362,-0.664 -0.619,-1.208 -0.77,-1.631c-0.181,-0.453 -0.332,-1.042 -0.453,-1.767c-0.121,-0.513 -0.211,-0.785 -0.272,-0.815c-0.151,-0.06 -0.287,0.211 -0.408,0.815c-0.121,0.664 -0.06,1.359 0.181,2.084c0.272,0.695 0.664,1.284 1.178,1.767c0.453,0.393 0.725,0.513 0.815,0.362Z" style="fill:#263238;fill-rule:nonzero;"/></g></g><g><g id="Layer0_1_MEMBER_3_MEMBER_14_FILL"><path d="M317.243,404.752c-0.03,-0.181 -0.362,-0.151 -0.997,0.091c-0.695,0.242 -1.329,0.68 -1.903,1.314c-0.574,0.604 -0.951,1.268 -1.133,1.993c-0.181,0.634 -0.181,0.966 0,0.997c0.091,0.03 0.302,-0.196 0.634,-0.68c0.513,-0.725 0.921,-1.268 1.223,-1.631c0.362,-0.423 0.876,-0.891 1.54,-1.404c0.453,-0.393 0.664,-0.619 0.634,-0.68Z" style="fill:#263238;fill-rule:nonzero;"/></g></g><g><g id="Layer0_1_MEMBER_3_MEMBER_15_FILL"><path d="M238.918,162.572c0.634,-0.997 0.755,-1.918 0.362,-2.763c-0.423,-0.906 -1.208,-1.344 -2.356,-1.314c-1.087,0.03 -1.963,0.438 -2.627,1.223c-0.664,-0.604 -1.435,-0.891 -2.31,-0.861c-0.876,0.03 -1.601,0.362 -2.174,0.997l-0.317,0.453c-0.544,-0.695 -1.253,-1.102 -2.129,-1.223c-0.906,-0.121 -1.706,0.091 -2.401,0.634c-0.966,0.755 -1.374,1.706 -1.223,2.854c-1.51,-0.785 -3.08,-1.163 -4.711,-1.133c0.574,-0.876 0.483,-1.827 -0.272,-2.854c-0.755,-0.997 -1.646,-1.359 -2.673,-1.087c0.574,-0.846 0.861,-1.752 0.861,-2.718c-0.06,-0.513 -0.302,-0.936 -0.725,-1.268c-0.423,-0.332 -0.861,-0.423 -1.314,-0.272c0.604,-0.664 0.891,-1.435 0.861,-2.31c-0.03,-0.906 -0.378,-1.661 -1.042,-2.265c-0.755,-0.725 -1.691,-1.012 -2.809,-0.861l-0.362,-2.492c-0.695,-0.483 -1.465,-0.755 -2.31,-0.815c-0.846,-0.03 -1.631,0.166 -2.356,0.589c-0.695,0.513 -1.057,1.238 -1.087,2.174c0,0.865 0.302,1.484 0.906,1.857c-0.375,-0.17 -0.722,0.011 -1.042,0.544c-0.302,0.544 -0.423,1.148 -0.362,1.812l0.408,4.802c-0.211,-0.815 -0.664,-1.465 -1.359,-1.948c-0.664,-0.483 -1.419,-0.71 -2.265,-0.68c-0.181,-0.755 -0.604,-1.329 -1.268,-1.721c-0.664,-0.393 -1.374,-0.498 -2.129,-0.317l-0.091,0c0.06,-0.906 -0.423,-1.555 -1.45,-1.948c-1.057,-0.423 -1.857,-0.257 -2.401,0.498c0.121,-0.634 -0.378,-1.193 -1.495,-1.676c-1.087,-0.634 -2.19,-0.861 -3.307,-0.68c-0.574,0.151 -1.012,0.513 -1.314,1.087c-0.286,0.495 -0.317,0.948 -0.091,1.359c-0.277,-0.349 -0.7,-0.485 -1.268,-0.408c-0.634,0.091 -1.102,0.378 -1.404,0.861c-0.483,1.117 -0.498,2.22 -0.045,3.307c0.483,1.087 0.74,2.174 0.77,3.262c-0.574,-1.057 -1.389,-1.797 -2.446,-2.22c-1.178,-0.664 -2.099,-1.117 -2.763,-1.359c-1.057,-0.423 -2.039,-0.634 -2.945,-0.634c0.121,-0.755 -0.423,-1.329 -1.631,-1.721c-2.718,-0.906 -5.391,-0.997 -8.018,-0.272c-0.725,0.181 -1.314,0.453 -1.767,0.815c-0.574,0.453 -0.861,0.982 -0.861,1.586c0,0.574 0.166,1.117 0.498,1.631l3.443,6.478c-3.594,-0.785 -7.082,-0.483 -10.465,0.906c-0.423,0 -1.133,-0.106 -2.129,-0.317c-0.906,-0.211 -1.616,-0.287 -2.129,-0.227c-0.755,0.121 -1.314,0.559 -1.676,1.314c-0.362,0.785 -0.242,1.359 0.362,1.721c-0.604,0.091 -1.102,0.347 -1.495,0.77c-0.423,0.423 -0.664,0.921 -0.725,1.495c-0.091,0.453 -0,0.936 0.272,1.45c0,0.242 0.06,0.574 0.181,0.997c0.211,0.544 0.544,1.072 0.997,1.586c0.151,1.148 0.74,1.993 1.767,2.537c-1.57,0.272 -3.02,0.785 -4.349,1.54c-0.906,0.513 -1.616,1.208 -2.129,2.084c-0.513,0.876 -0.77,1.827 -0.77,2.854l0.045,0.317c-0.242,0.755 -0.181,1.45 0.181,2.084c-0.483,0.272 -0.815,0.68 -0.997,1.223c-1.661,-0.302 -3.171,0.03 -4.53,0.997c-1.389,0.966 -2.235,2.28 -2.537,3.941c-0.211,1.208 -0.06,2.401 0.453,3.579c0.393,0.846 1.042,1.45 1.948,1.812c0.966,0.362 1.691,0.211 2.174,-0.453c-0.151,1.631 0.438,2.99 1.767,4.077c-1.057,0.664 -1.721,1.631 -1.993,2.899c-0.272,1.238 -0.06,2.386 0.634,3.443l0.227,0.362c-1.631,0.242 -2.763,1.268 -3.398,3.08c-0.664,1.842 -0.438,3.367 0.68,4.575c-0.815,0.664 -1.268,1.51 -1.359,2.537c-0.121,1.057 0.151,1.978 0.815,2.763c0.664,0.815 1.51,1.268 2.537,1.359c1.027,0.121 1.948,-0.151 2.763,-0.815l0.091,-0.091c-0.242,1.51 -0.03,2.99 0.634,4.44c0.393,0.695 0.997,1.163 1.812,1.404c0.815,0.272 1.51,0.166 2.084,-0.317c-0.211,1.419 0.091,2.703 0.906,3.851c0.846,1.178 1.978,1.872 3.398,2.084c0.211,0.03 0.529,0.045 0.951,0.045c-0.483,0.785 -0.634,1.631 -0.453,2.537c0.211,0.906 0.695,1.601 1.45,2.084c0.725,0.483 1.51,0.649 2.356,0.498c0.876,-0.151 1.57,-0.574 2.084,-1.268l7.475,4.304c1.752,1.057 3.458,1.903 5.119,2.537c2.295,0.815 4.696,1.057 7.203,0.725c0.785,-0.181 1.555,-0.181 2.31,0c0.815,0.362 1.51,0.921 2.084,1.676c1.661,1.752 3.654,2.99 5.98,3.715c2.295,0.725 4.636,0.831 7.022,0.317c0.815,-0.242 1.555,-0.347 2.22,-0.317c0.755,0.121 1.54,0.438 2.356,0.951c1.903,1.057 3.851,1.857 5.844,2.401c2.265,0.634 4.032,0.559 5.3,-0.227c0.785,-0.513 1.238,-1.284 1.359,-2.31c0.091,-1.027 -0.242,-1.767 -0.997,-2.22c0.423,-1.208 1.253,-1.978 2.492,-2.31c0.604,-0.151 1.163,-0.091 1.676,0.181c0.544,0.302 0.921,0.74 1.133,1.314c0.151,0.574 -0.03,1.102 -0.544,1.586c-0.483,0.453 -0.997,0.574 -1.54,0.362c0.483,1.087 1.419,1.616 2.809,1.586c1.389,-0.03 2.401,-0.559 3.035,-1.586c0.604,-0.997 0.71,-2.129 0.317,-3.398c-0.393,-1.208 -1.117,-2.114 -2.174,-2.718c1.299,-1.238 2.22,-2.703 2.763,-4.394c0.181,0.997 0.68,1.797 1.495,2.401c0.815,0.604 1.721,0.846 2.718,0.725c0.06,1.993 0.8,3.609 2.22,4.847c0.695,0.604 1.51,0.921 2.446,0.951c0.936,0.03 1.782,-0.242 2.537,-0.815c0.695,-0.604 0.997,-1.419 0.906,-2.446c-0.121,-1.027 -0.589,-1.721 -1.404,-2.084c1.057,-0.544 1.586,-1.51 1.586,-2.899c-0.03,-1.389 -0.589,-2.341 -1.676,-2.854c0.755,-0.936 1.133,-2.008 1.133,-3.216c0,-1.06 -0.287,-2.027 -0.861,-2.899c0.388,0.458 0.887,0.76 1.495,0.906c0.755,0.181 1.465,0.076 2.129,-0.317l0.362,-0.272c0.03,0.936 0.559,1.691 1.586,2.265c0.876,0.513 1.888,0.77 3.035,0.77c2.174,0 3.518,-0.77 4.032,-2.31c0.332,-1.027 0.317,-1.993 -0.045,-2.899c-0.393,-0.966 -1.057,-1.872 -1.993,-2.718c-0.604,-0.544 -1.525,-1.193 -2.763,-1.948c0.181,-2.96 0.861,-5.874 2.039,-8.743c0.906,0.544 1.903,0.815 2.99,0.815l0.544,0.091c1.148,0.121 2.144,-0.347 2.99,-1.404c0.785,-1.027 1.133,-2.159 1.042,-3.398c-0.091,-1.057 -0.453,-2.174 -1.087,-3.352c-0.423,-0.725 -1.117,-1.721 -2.084,-2.99c0.513,0.362 1.057,0.966 1.631,1.812c0.755,1.057 1.253,1.721 1.495,1.993c0.574,0.664 1.299,1.072 2.174,1.223c0.906,0.181 1.601,-0.045 2.084,-0.68c0.272,-0.393 0.453,-0.861 0.544,-1.404l0.634,-2.945c0.332,-0.785 0.332,-1.586 0,-2.401c-0.302,-0.393 -0.725,-0.8 -1.268,-1.223c-0.423,-0.423 -0.8,-1.268 -1.133,-2.537c-0.332,-1.238 -0.725,-2.099 -1.178,-2.582c-0.423,-0.393 -1.012,-0.71 -1.767,-0.951c-0.936,-0.242 -1.631,-0.438 -2.084,-0.589c-0.725,-0.242 -1.329,-0.604 -1.812,-1.087c-0.544,-0.574 -0.74,-1.178 -0.589,-1.812c2.054,0.151 4.047,-0.196 5.98,-1.042c0.966,-0.513 1.691,-1.238 2.174,-2.174c0.544,-0.997 0.649,-1.963 0.317,-2.899c-0.393,-1.087 -1.555,-2.129 -3.488,-3.126c-2.295,-1.238 -3.956,-1.374 -4.983,-0.408c-0.936,-0.906 -2.039,-1.344 -3.307,-1.314c-1.299,0 -2.401,0.453 -3.307,1.359l-0.181,0.227l-3.76,-2.763c0.453,-0.121 1.389,-0.272 2.809,-0.453c1.208,-0.121 2.129,-0.332 2.763,-0.634c0.906,-0.393 1.555,-1.072 1.948,-2.039c0.393,-1.027 0.257,-1.857 -0.408,-2.492c-0.151,-0.121 -0.438,-0.302 -0.861,-0.544c-0.362,-0.211 -0.634,-0.423 -0.815,-0.634c-0.272,-0.664 -0.544,-1.072 -0.815,-1.223c-0.423,-0.151 -0.785,-0.211 -1.087,-0.181l-11.597,0.544l5.346,-3.941c1.027,-0.725 1.797,-1.465 2.31,-2.22Z" style="fill:#1b2d54;fill-rule:nonzero;"/></g></g><g><g id="Layer0_1_MEMBER_3_MEMBER_16_FILL"><path d="M188.452,178.699c-1.48,-0.544 -2.945,-0.498 -4.394,0.136c-1.45,0.634 -2.492,1.676 -3.126,3.126l-28.676,67.77l32.526,14.859l1.857,-3.08l3.76,-7.882l2.174,0.362c1.782,0.151 3.609,0.045 5.481,-0.317c5.889,-1.178 10.872,-4.772 14.949,-10.782c4.047,-6.01 8.924,-16.233 14.632,-30.669c2.084,-5.285 2.643,-10.6 1.676,-15.946c-1.057,-5.95 -3.866,-9.725 -8.426,-11.325l-32.436,-6.252Z" style="fill:#fff;fill-rule:nonzero;"/></g><path id="Layer0_1_MEMBER_3_MEMBER_16_1_STROKES" d="M188.452,178.699l32.436,6.252c4.56,1.601 7.369,5.376 8.426,11.325c0.966,5.346 0.408,10.661 -1.676,15.946c-5.708,14.436 -10.585,24.659 -14.632,30.669c-4.077,6.01 -9.06,9.604 -14.949,10.782c-1.872,0.362 -3.7,0.468 -5.481,0.317l-2.174,-0.362l-3.76,7.882l-1.857,3.08l-32.526,-14.859l28.676,-67.77c0.634,-1.45 1.676,-2.492 3.126,-3.126c1.45,-0.634 2.914,-0.68 4.394,-0.136Z" style="fill:none;fill-rule:nonzero;stroke:#1b294a;stroke-width:0.27px;"/></g><g><g><g id="flash0_ai_Assets_28_Layer_1__Path__56_0_Layer0_0_FILL"><path d="M188.633,257.387l1.767,-3.76c-7.49,-3.382 -13.545,-8.486 -18.166,-15.312c0.03,2.205 0.74,4.651 2.129,7.339c2.748,5.376 7.505,9.287 14.27,11.733Z" style="fill:#cdcdcd;fill-rule:nonzero;"/></g></g></g><g><g id="Layer0_1_MEMBER_3_MEMBER_18_MEMBER_0_FILL"><path d="M170.422,215.257l5.708,-12.503c-1.268,-1.238 -2.673,-2.054 -4.213,-2.446c-3.08,-0.815 -5.466,0.589 -7.158,4.213c-1.691,3.654 -1.268,6.554 1.268,8.698c0.815,0.695 1.767,1.253 2.854,1.676c0.936,0.362 1.45,0.483 1.54,0.362Z" style="fill:#fff;fill-rule:nonzero;"/></g></g><g><path id="Layer0_1_MEMBER_3_MEMBER_18_MEMBER_1_1_STROKES" d="M176.13,202.754c-1.268,-1.238 -2.673,-2.054 -4.213,-2.446c-3.08,-0.815 -5.466,0.589 -7.158,4.213c-1.691,3.654 -1.268,6.554 1.268,8.698c0.815,0.695 1.767,1.253 2.854,1.676c0.936,0.362 1.45,0.483 1.54,0.362" style="fill:none;fill-rule:nonzero;stroke:#1b294a;stroke-width:0.27px;"/></g><g><g id="Layer0_1_MEMBER_3_MEMBER_19_FILL"><path d="M189.54,169.277c-5.708,1.872 -10.963,4.636 -15.765,8.29c-3.926,3.02 -6.735,6.916 -8.426,11.688c-0.755,2.416 -0.921,4.787 -0.498,7.112c0.423,2.446 1.419,4.319 2.99,5.617l2.265,-0.997l4.077,-2.854c-0.453,0.423 -0.74,0.936 -0.861,1.54c-0.121,0.604 -0.06,1.193 0.181,1.767c0.302,0.483 0.71,0.785 1.223,0.906c0.544,0.121 1.042,0.03 1.495,-0.272l0.136,-0.091c0.151,0.604 0.574,0.876 1.268,0.815c0.725,-0.06 1.178,-0.423 1.359,-1.087c0.302,0.423 0.755,0.529 1.359,0.317c0.604,-0.242 0.966,-0.649 1.087,-1.223c0.362,0.362 0.861,0.362 1.495,0c0.151,-0.091 0.71,-0.513 1.676,-1.268c0.544,-0.393 1.133,-0.755 1.767,-1.087c1.933,-1.268 3.398,-2.96 4.394,-5.074c0.876,-0.393 1.721,-1.057 2.537,-1.993c0.513,-0.604 1.193,-1.555 2.039,-2.854l2.31,-3.624l1.133,-0.544c-0.211,0.453 -0.272,0.921 -0.181,1.404c0.06,0.513 0.272,0.936 0.634,1.268c0.695,0.604 1.48,0.966 2.356,1.087l2.492,0.68l1.223,1.087c-0.906,1.208 -1.359,2.522 -1.359,3.941c-0.242,0.997 -0.136,1.903 0.317,2.718c0.211,0.272 0.483,0.423 0.815,0.453c0.332,0.03 0.619,-0.076 0.861,-0.317c0.181,-0.121 0.317,-0.302 0.408,-0.544c0.151,0.332 0.393,0.574 0.725,0.725c0.332,0.151 0.664,0.151 0.997,0l0.227,-0.136c0.785,-0.513 1.344,-1.223 1.676,-2.129c0.936,-2.084 1.223,-4.228 0.861,-6.433l2.174,5.663c0.091,0.393 0.317,0.74 0.68,1.042c-0.181,0.302 -0.227,0.604 -0.136,0.906c0.06,0.332 0.227,0.574 0.498,0.725l0.181,0.091c0.695,0.151 1.359,0.06 1.993,-0.272c0.876,-0.332 1.601,-0.77 2.174,-1.314c0.695,-0.664 0.982,-1.344 0.861,-2.039c0.242,0.06 0.483,-0.03 0.725,-0.272c0.211,-0.272 0.287,-0.544 0.227,-0.815l2.899,5.617c-0.181,-0.211 -0.423,-0.242 -0.725,-0.091c-0.332,0.151 -0.544,0.393 -0.634,0.725c-0.151,0.604 -0.045,1.208 0.317,1.812c-0.725,0.453 -1.253,1.072 -1.586,1.857c-0.211,-0.544 -0.664,-0.68 -1.359,-0.408c-0.695,0.272 -1.117,0.74 -1.268,1.404c-0.121,0.604 -0.045,1.193 0.227,1.767c0.272,0.544 0.68,0.966 1.223,1.268c0.423,0.302 0.891,0.423 1.404,0.362c0.544,-0.091 0.966,-0.332 1.268,-0.725c0.453,0.362 0.997,0.362 1.631,0c0.634,-0.332 0.997,-0.831 1.087,-1.495c0.211,0.393 0.574,0.438 1.087,0.136c0.483,-0.272 0.876,-0.68 1.178,-1.223c0.865,-1.702 1.424,-3.499 1.676,-5.391c0.015,0.029 0.03,0.059 0.045,0.091c0.06,0.151 0.151,0.211 0.272,0.181c0.08,-0.032 0.14,-0.077 0.181,-0.136l-0.408,6.931c0,2.054 -0.362,4.032 -1.087,5.934c-0.574,1.178 -0.634,1.903 -0.181,2.174c0.211,0.091 0.393,0.121 0.544,0.091c2.476,-0.151 4.606,-1.072 6.387,-2.763c0.664,-0.513 1.223,-1.148 1.676,-1.903c0.362,-0.574 0.68,-1.389 0.951,-2.446c0.332,-1.329 0.574,-2.19 0.725,-2.582c0.362,-0.785 0.649,-1.51 0.861,-2.174c0.211,-1.117 0.121,-2.295 -0.272,-3.533c-0.725,-2.658 -1.344,-4.636 -1.857,-5.934c-0.876,-2.084 -1.903,-3.715 -3.08,-4.893c-0.544,-0.544 -1.45,-1.268 -2.718,-2.174c-1.268,-0.876 -2.19,-1.601 -2.763,-2.174c-1.057,-1.087 -1.993,-2.22 -2.809,-3.398c-3.322,-4.017 -8.215,-7.248 -14.678,-9.694c-3.08,-1.299 -6.297,-2.023 -9.649,-2.174c-3.956,0.181 -7.701,0.966 -11.235,2.356Z" style="fill:#1b2d54;fill-rule:nonzero;"/></g></g><g><g><g id="flash0_ai_Assets_28_Layer_1__Path__53_0_Layer0_0_FILL"><path d="M171.555,204.294c0.03,-0.211 0,-0.438 -0.091,-0.68c-0.151,-0.242 -0.393,-0.453 -0.725,-0.634c-0.876,-0.181 -1.616,0.03 -2.22,0.634c-0.755,0.634 -1.314,1.359 -1.676,2.174c-0.393,0.906 -0.544,1.797 -0.453,2.673c0.06,0.906 0.362,1.601 0.906,2.084c0.423,0.362 0.921,0.498 1.495,0.408c0.242,0 0.408,-0.076 0.498,-0.227l-0.498,0c-0.453,0 -0.846,-0.166 -1.178,-0.498c-0.362,-0.393 -0.559,-0.982 -0.589,-1.767c-0.03,-0.815 0.121,-1.616 0.453,-2.401c0.302,-0.755 0.77,-1.419 1.404,-1.993c0.483,-0.483 1.042,-0.695 1.676,-0.634c0.483,0.121 0.725,0.408 0.725,0.861c0,0.181 -0.03,0.332 -0.091,0.453c0.121,0.121 0.242,-0.03 0.362,-0.453Z" style="fill:#cdcdcd;fill-rule:nonzero;"/></g></g></g><g><g id="Layer0_1_MEMBER_3_MEMBER_21_FILL"><path d="M227.185,211.95l0.272,0.362c0.272,0.272 0.619,0.498 1.042,0.68c1.389,0.483 2.703,0.362 3.941,-0.362c1.178,-0.664 2.099,-1.646 2.763,-2.945c0.332,-0.513 0.559,-1.027 0.68,-1.54l-0.861,1.404c-0.695,1.148 -1.616,2.069 -2.763,2.763c-1.178,0.695 -2.416,0.831 -3.715,0.408c-0.604,-0.272 -1.057,-0.529 -1.359,-0.77Z" style="fill:#455a64;fill-rule:nonzero;"/></g></g><g><g><g id="flash0_ai_Assets_28_Layer_1__Path__51_0_Layer0_0_FILL"><path d="M239.371,190.432c-0.151,-1.238 -0.74,-2.159 -1.767,-2.763c-0.634,-0.362 -1.329,-0.544 -2.084,-0.544l-0.544,0.091c-0.088,0.029 -0.148,0.044 -0.181,0.045l0.725,0c0.725,0.06 1.389,0.272 1.993,0.634c0.936,0.634 1.465,1.495 1.586,2.582c0.089,1.419 -0.425,2.521 -1.54,3.307c-0.034,0.024 -0.064,0.039 -0.091,0.045l0,0.045l-0.997,0.589l1.087,-0.227c1.117,-0.242 1.993,0.076 2.627,0.951l0.136,0.408c0.121,0.423 0.076,0.831 -0.136,1.223c-0.224,0.364 -0.526,0.621 -0.906,0.77c-0.03,0.019 -0.06,0.034 -0.091,0.045l-0.861,0.091l0.815,0.317l0.136,0c0.936,0.242 1.646,0.815 2.129,1.721l0,0.045c0.151,0.393 0.151,0.785 0,1.178c-0.152,0.328 -0.378,0.57 -0.68,0.725c-0.029,0.016 -0.059,0.031 -0.091,0.045c-0.029,0.018 -0.06,0.033 -0.091,0.045l-1.404,0.272l1.45,0.136c1.057,-0.03 2.039,0.257 2.945,0.861c0.362,0.272 0.589,0.619 0.68,1.042c0.121,0.423 0.076,0.831 -0.136,1.223l-0.136,0.227l0.272,0c0.785,0.06 1.465,0.211 2.039,0.453c0.513,0.242 0.876,0.604 1.087,1.087c0.181,0.423 0.181,0.861 0,1.314c0.091,-0.151 0.136,-0.272 0.136,-0.362c0.151,-0.332 0.151,-0.68 0,-1.042c-0.211,-0.604 -0.559,-1.042 -1.042,-1.314c-0.605,-0.275 -1.255,-0.456 -1.948,-0.544c0.16,-0.391 0.19,-0.799 0.091,-1.223c-0.091,-0.513 -0.347,-0.936 -0.77,-1.268c-0.741,-0.502 -1.557,-0.804 -2.446,-0.906c0.182,-0.168 0.318,-0.38 0.408,-0.634c0.181,-0.513 0.181,-1.042 0,-1.586c-0.405,-0.862 -1.025,-1.466 -1.857,-1.812c0.355,-0.199 0.612,-0.516 0.77,-0.951c0.242,-0.664 0.196,-1.268 -0.136,-1.812c-0.606,-0.849 -1.392,-1.272 -2.356,-1.268c0.353,-0.313 0.64,-0.69 0.861,-1.133c0.302,-0.664 0.408,-1.374 0.317,-2.129Z" style="fill:#cdcdcd;fill-rule:nonzero;"/></g></g></g><g><g><g id="flash0_ai_Assets_28_Layer_1__Path__50_0_Layer0_0_FILL"><path d="M245.305,183.184c-0.423,-0.151 -0.906,-0.393 -1.45,-0.725c-0.695,-0.483 -1.51,-0.77 -2.446,-0.861c-0.604,0 -1.102,0.242 -1.495,0.725c-0.078,0.078 -0.154,0.154 -0.227,0.227l-0.362,-0.634c-0.423,-0.695 -0.936,-1.284 -1.54,-1.767c-0.634,-0.544 -1.389,-0.77 -2.265,-0.68c-0.725,0.05 -1.284,0.367 -1.676,0.951c-0.459,-0.881 -1.124,-1.545 -1.993,-1.993c-0.755,-0.453 -1.586,-0.68 -2.492,-0.68c-0.544,-0.03 -1.087,0.045 -1.631,0.227l-0.544,0.272c0.695,-0.181 1.419,-0.272 2.174,-0.272c0.846,0.091 1.616,0.332 2.31,0.725c0.966,0.574 1.646,1.329 2.039,2.265l0.227,0.498l0.181,-0.498c0.242,-0.695 0.725,-1.042 1.45,-1.042c0.755,-0.091 1.419,0.106 1.993,0.589c0.513,0.423 0.997,0.966 1.45,1.631c0.117,0.205 0.283,0.492 0.498,0.861c0.005,0.063 0.005,0.124 0,0.181c-0.03,0.332 0.045,0.634 0.227,0.906l0.227,0.362l0.136,-0.408c0.117,-0.408 0.056,-0.771 -0.181,-1.087c0.072,-0.162 0.177,-0.313 0.317,-0.453c0.302,-0.393 0.695,-0.589 1.178,-0.589c0.785,0.03 1.57,0.272 2.356,0.725c0.483,0.272 0.997,0.483 1.54,0.634c0.121,0.06 0.317,0.091 0.589,0.091l-0.589,-0.181Z" style="fill:#cdcdcd;fill-rule:nonzero;"/></g></g></g><g><g><g id="flash0_ai_Assets_28_Layer_1__Path__49_0_Layer0_0_FILL"><path d="M230.175,166.695l-0.227,-0.181c-0.362,-0.181 -0.634,-0.287 -0.815,-0.317c-0.544,-0.091 -1.012,-0.06 -1.404,0.091c-0.605,0.193 -1.058,0.51 -1.359,0.951c-0.293,-0.181 -0.626,-0.272 -0.997,-0.272c-0.453,0 -0.831,0.151 -1.133,0.453c-0.491,0.491 -0.853,1.034 -1.087,1.631c-0.244,-0.418 -0.606,-0.735 -1.087,-0.951c-0.604,-0.272 -1.223,-0.287 -1.857,-0.045c-1.027,0.393 -1.706,1.117 -2.039,2.174c-0.181,0.695 -0.257,1.359 -0.227,1.993c0,0.302 0.03,0.529 0.091,0.68c0.06,-0.302 0.076,-0.529 0.045,-0.68c0.06,-0.664 0.196,-1.299 0.408,-1.903c0.332,-0.906 0.951,-1.555 1.857,-1.948c0.513,-0.181 1.027,-0.181 1.54,0c0.513,0.211 0.876,0.619 1.087,1.223l0,0.136l0.181,0.815l0.227,-0.815c0.181,-0.815 0.544,-1.51 1.087,-2.084c0.242,-0.242 0.544,-0.378 0.906,-0.408c0.332,-0.03 0.634,0.06 0.906,0.272l0.181,0.181l0.091,-0.227c0.302,-0.423 0.725,-0.74 1.268,-0.951c0.393,-0.181 0.815,-0.242 1.268,-0.181c0.483,0.121 0.846,0.242 1.087,0.362Z" style="fill:#cdcdcd;fill-rule:nonzero;"/></g></g></g><g><g><g id="flash0_ai_Assets_28_Layer_1__Path__48_0_Layer0_0_FILL"><path d="M185.145,175.257l1.721,1.721l-0.317,-0.544c-0.302,-0.423 -0.725,-0.876 -1.268,-1.359c-0.725,-0.664 -1.525,-1.178 -2.401,-1.54c-0.574,-0.242 -1.163,-0.242 -1.767,0c-0.599,0.277 -0.962,0.669 -1.087,1.178c-0.369,-0.347 -0.852,-0.543 -1.45,-0.589c-0.332,0 -0.695,0.076 -1.087,0.227c-0.393,0.272 -0.68,0.438 -0.861,0.498c-0.664,0.181 -1.299,0.076 -1.903,-0.317c-0.574,-0.362 -1.284,-0.695 -2.129,-0.997c-0.362,-0.091 -0.74,-0.06 -1.133,0.091c-0.332,0.121 -0.634,0.317 -0.906,0.589c-0.242,0.211 -0.498,0.287 -0.77,0.227l-0.906,-0.408c-0.664,-0.332 -1.344,-0.332 -2.039,0c-0.533,0.267 -0.82,0.674 -0.861,1.223c-0.444,-0.271 -0.942,-0.347 -1.495,-0.227c-0.513,0.151 -0.921,0.453 -1.223,0.906c-0.269,0.403 -0.375,0.826 -0.317,1.268c-0.329,-0.019 -0.631,0.072 -0.906,0.272c-0.272,0.151 -0.513,0.408 -0.725,0.77c-0.272,0.453 -0.408,0.966 -0.408,1.54l0.091,0.997l0.091,0.362c-0.03,-0.332 -0.015,-0.755 0.045,-1.268c0,-0.513 0.136,-0.997 0.408,-1.45c0.332,-0.634 0.876,-0.906 1.631,-0.815l0.181,0l0,-0.227c-0.06,-0.725 0.196,-1.268 0.77,-1.631c0.302,-0.181 0.634,-0.257 0.997,-0.227c0.362,0.03 0.68,0.151 0.951,0.362l0.453,0.362l-0.136,-0.544c-0.06,-0.604 0.166,-1.027 0.68,-1.268c0.574,-0.272 1.148,-0.272 1.721,0l0.906,0.453c0.393,0.091 0.77,-0.015 1.133,-0.317l0.815,-0.544c0.242,-0.091 0.544,-0.106 0.906,-0.045c0.906,0.362 1.555,0.664 1.948,0.906l1.087,0.408c0.362,0.091 0.755,0.076 1.178,-0.045l0.951,-0.544c0.242,-0.121 0.529,-0.181 0.861,-0.181c0.556,0 1.039,0.242 1.45,0.725c0.017,0.014 0.032,0.029 0.045,0.045l0.453,0.68l-0.136,-0.815l0,-0.045c0.014,-0.61 0.301,-1.033 0.861,-1.268c0.513,-0.242 1.027,-0.242 1.54,0c0.846,0.302 1.631,0.77 2.356,1.404Z" style="fill:#cdcdcd;fill-rule:nonzero;"/></g></g></g><g><g><g id="flash0_ai_Assets_28_Layer_1__Path__47_0_Layer0_0_FILL"><path d="M159.55,190.478l1.993,-0.362c0.906,-0.242 1.842,-0.287 2.809,-0.136l0.997,0.272l-0.227,-0.136l-0.77,-0.317c-0.966,-0.181 -1.948,-0.181 -2.945,0l-1.948,0.362c-0.876,0.091 -1.616,0.378 -2.22,0.861c-0.332,0.272 -0.604,0.604 -0.815,0.997c-0.151,0.302 -0.453,0.453 -0.906,0.453c-0.513,-0.06 -0.966,0.045 -1.359,0.317c-0.453,0.302 -0.785,0.664 -0.997,1.087c-0.42,0.735 -0.48,1.46 -0.181,2.174c-0.369,0.037 -0.701,0.203 -0.997,0.498c-0.362,0.302 -0.589,0.71 -0.68,1.223c-0.142,0.85 -0.127,1.605 0.045,2.265c-0.802,0.345 -1.36,0.934 -1.676,1.767c-0.272,0.604 -0.317,1.253 -0.136,1.948c0.091,0.453 0.272,0.831 0.544,1.133l0.317,0.317c-0.272,-0.393 -0.483,-0.891 -0.634,-1.495c-0.091,-0.664 -0.015,-1.268 0.227,-1.812c0.332,-0.785 0.891,-1.314 1.676,-1.586l0.136,0l0,-0.136c-0.181,-0.695 -0.196,-1.45 -0.045,-2.265c0.06,-0.393 0.242,-0.71 0.544,-0.951c0.332,-0.272 0.695,-0.423 1.087,-0.453l0.453,0l-0.227,-0.362c-0.453,-0.695 -0.453,-1.389 0,-2.084c0.393,-0.846 1.057,-1.238 1.993,-1.178c0.272,0.03 0.513,-0.015 0.725,-0.136c0.211,-0.091 0.393,-0.257 0.544,-0.498c0.181,-0.393 0.423,-0.71 0.725,-0.951c0.544,-0.453 1.193,-0.725 1.948,-0.815Z" style="fill:#cdcdcd;fill-rule:nonzero;"/></g></g></g><g><g><g id="flash0_ai_Assets_28_Layer_1__Path__46_0_Layer0_0_FILL"><path d="M181.657,188.258c-0.876,0.181 -1.631,0.513 -2.265,0.997c-0.728,0.527 -1.316,1.191 -1.767,1.993c-0.098,-0.171 -0.249,-0.322 -0.453,-0.453c-0.362,-0.211 -0.77,-0.272 -1.223,-0.181c-0.753,0.338 -1.221,0.866 -1.404,1.586c-0.791,-0.553 -1.681,-0.628 -2.673,-0.227c-0.695,0.242 -1.178,0.695 -1.45,1.359c-0.151,0.302 -0.287,0.438 -0.408,0.408c-0.091,0 -0.302,-0.136 -0.634,-0.408c-0.332,-0.272 -0.664,-0.362 -0.997,-0.272c-0.302,0.03 -0.574,0.196 -0.815,0.498c-0.217,0.347 -0.353,0.724 -0.408,1.133c-0.152,-0.091 -0.333,-0.136 -0.544,-0.136c-0.362,0 -0.664,0.136 -0.906,0.408c-0.362,0.453 -0.513,0.982 -0.453,1.586c0.06,1.51 0.634,2.839 1.721,3.986l0.453,0.362c-0.453,-0.544 -0.876,-1.178 -1.268,-1.903c-0.362,-0.755 -0.544,-1.57 -0.544,-2.446c-0.06,-0.513 0.06,-0.966 0.362,-1.359c0.151,-0.181 0.378,-0.272 0.68,-0.272c0.23,0.023 0.381,0.099 0.453,0.227l0,0.045c0.026,0.028 0.041,0.058 0.045,0.091l0.272,1.087l0.091,-1.133l0,-0.045c0.008,-0.496 0.144,-0.949 0.408,-1.359c0.151,-0.211 0.347,-0.332 0.589,-0.362c0.242,-0.06 0.438,0.015 0.589,0.227c0.242,0.242 0.529,0.408 0.861,0.498c0.242,0.06 0.438,-0.015 0.589,-0.227l0.227,-0.453c0.302,-0.544 0.71,-0.921 1.223,-1.133c0.936,-0.393 1.797,-0.242 2.582,0.453l0.272,0.272l0.045,-0.408c0.091,-0.755 0.483,-1.299 1.178,-1.631c0.272,-0.121 0.559,-0.091 0.861,0.091c0.282,0.154 0.418,0.335 0.408,0.544l0,0.045c0.007,0.03 0.007,0.06 0,0.091l-0.227,1.54l0.589,-1.45c0.332,-0.906 0.951,-1.706 1.857,-2.401c0.664,-0.513 1.374,-0.861 2.129,-1.042c0.604,-0.151 1.314,-0.227 2.129,-0.227l-0.589,-0.091c-0.604,-0.06 -1.133,-0.03 -1.586,0.091Z" style="fill:#cdcdcd;fill-rule:nonzero;"/></g></g></g><g><g><g id="flash0_ai_Assets_28_Layer_1__Path__45_0_Layer0_0_FILL"><path d="M197.784,180.194c0.06,-0.362 0.272,-0.68 0.634,-0.951c0.272,-0.211 0.619,-0.362 1.042,-0.453c-0.332,-0.151 -0.74,-0.091 -1.223,0.181c-0.453,0.302 -0.74,0.695 -0.861,1.178c-0.132,0.554 -0.056,1.052 0.227,1.495l-0.227,0.227c-0.423,0.544 -0.559,1.178 -0.408,1.903c0.091,0.574 0.287,1.042 0.589,1.404c0.332,0.453 0.649,0.785 0.951,0.997l-0.634,-1.178c-0.242,-0.453 -0.408,-0.876 -0.498,-1.268c-0.091,-0.604 0.045,-1.133 0.408,-1.586l0.227,-0.227l0.181,-0.136l-0.091,-0.181c-0.332,-0.453 -0.438,-0.921 -0.317,-1.404Z" style="fill:#cdcdcd;fill-rule:nonzero;"/></g></g></g><g><g><g id="flash0_ai_Assets_28_Layer_1__Path__44_0_Layer0_0_FILL"><path d="M208.521,181.055c-0.03,-0.604 -0.302,-1.102 -0.815,-1.495c-0.453,-0.242 -0.906,-0.302 -1.359,-0.181c-0.124,0.034 -0.245,0.08 -0.362,0.136c0.053,-0.6 -0.068,-1.204 -0.362,-1.812c-0.393,-0.695 -0.921,-1.193 -1.586,-1.495c-0.393,-0.211 -0.846,-0.317 -1.359,-0.317c-0.121,-0.03 -0.302,-0.015 -0.544,0.045c0.604,0.03 1.193,0.196 1.767,0.498c0.604,0.302 1.072,0.785 1.404,1.45c0.309,0.67 0.385,1.365 0.227,2.084c-0.063,0.117 -0.109,0.253 -0.136,0.408l0.408,0.091c0.006,-0.017 0.006,-0.032 0,-0.045l0.045,0c0.03,-0.302 0.242,-0.498 0.634,-0.589c0.362,-0.091 0.695,-0.045 0.997,0.136c0.362,0.272 0.574,0.664 0.634,1.178c0.06,0.453 0.015,0.906 -0.136,1.359l-0.091,0.362l0.362,-0.136c0.815,-0.211 1.48,0 1.993,0.634c0.393,0.513 0.498,1.057 0.317,1.631c-0.181,0.544 -0.513,0.982 -0.997,1.314c0.151,0 0.287,-0.06 0.408,-0.181c0.362,-0.242 0.619,-0.574 0.77,-0.997c0.302,-0.725 0.196,-1.389 -0.317,-1.993c-0.497,-0.68 -1.162,-0.967 -1.993,-0.861c0.11,-0.394 0.14,-0.802 0.091,-1.223Z" style="fill:#cdcdcd;fill-rule:nonzero;"/></g></g></g><g><g><g id="flash0_ai_Assets_28_Layer_1__Path__43_0_Layer0_0_FILL"><path d="M216.312,173.309l-0.544,0.498c0.151,-0.091 0.393,-0.181 0.725,-0.272c0.785,-0.181 1.51,-0.196 2.174,-0.045c1.117,0.242 1.978,0.861 2.582,1.857c0.696,1.218 0.741,2.472 0.136,3.76c-0.02,0.021 -0.05,0.036 -0.091,0.045l0.045,0.091l0,0.045l-0.181,0.272l0.362,-0.045c0.936,-0.181 1.812,0.015 2.627,0.589c0.906,0.604 1.404,1.435 1.495,2.492c0.087,1.017 -0.2,1.908 -0.861,2.673c-0.01,0.038 -0.026,0.068 -0.045,0.091l-0.272,0.272l0.362,0c0.513,0.03 0.966,0.211 1.359,0.544c0.393,0.362 0.634,0.8 0.725,1.314c0.143,0.945 -0.189,1.685 -0.997,2.22c-0.015,0.011 -0.03,0.011 -0.045,0c-0.029,0.042 -0.06,0.072 -0.091,0.091l-0.453,0.227l0.498,0c1.087,0.091 1.933,0.544 2.537,1.359c0.513,0.574 0.846,1.253 0.997,2.039c0.091,0.695 0.045,1.359 -0.136,1.993l0.227,-0.498c0.151,-0.544 0.181,-1.057 0.091,-1.54c-0.151,-0.846 -0.483,-1.57 -0.997,-2.174c-0.588,-0.802 -1.359,-1.286 -2.31,-1.45c0.409,-0.299 0.696,-0.706 0.861,-1.223c0.211,-0.664 0.151,-1.299 -0.181,-1.903c-0.403,-0.806 -1.022,-1.259 -1.857,-1.359c0.625,-0.781 0.897,-1.702 0.815,-2.763c-0.091,-1.208 -0.634,-2.114 -1.631,-2.718c-0.789,-0.599 -1.665,-0.825 -2.627,-0.68c0.581,-1.361 0.491,-2.705 -0.272,-4.032c-0.664,-1.027 -1.601,-1.661 -2.809,-1.903c-0.755,-0.151 -1.495,-0.106 -2.22,0.136Z" style="fill:#cdcdcd;fill-rule:nonzero;"/></g></g></g><g><g id="Layer0_1_MEMBER_3_MEMBER_31_FILL"><path d="M188.769,162.21c-2.899,0.664 -5.663,1.661 -8.29,2.99c-3.262,1.631 -6.025,3.654 -8.29,6.07c-3.443,3.715 -5.995,7.444 -7.656,11.189c-1.963,4.44 -2.552,8.728 -1.767,12.865c0.242,1.359 0.649,2.492 1.223,3.398c0.695,1.148 1.57,1.797 2.627,1.948c-1.57,-3.262 -1.737,-6.584 -0.498,-9.966c1.178,-3.171 2.824,-6.116 4.938,-8.834c1.752,-2.476 3.322,-4.455 4.711,-5.934c1.872,-2.023 3.79,-3.609 5.753,-4.757c3.715,-2.084 8.562,-3.126 14.542,-3.126c7.671,-0.242 15.055,1.208 22.152,4.349c3.473,1.54 6.614,3.624 9.423,6.252c2.809,2.597 5.104,5.602 6.886,9.015c1.721,3.443 2.673,7.082 2.854,10.918c0.177,3.897 -0.487,7.506 -1.993,10.827c3.243,-5.721 3.983,-12.002 2.22,-18.845c-1.299,-5.044 -3.669,-9.725 -7.112,-14.043c-2.265,-2.869 -5.27,-5.315 -9.015,-7.339c-2.567,-1.419 -6.221,-2.975 -10.963,-4.666c-8.275,-2.96 -15.523,-3.73 -21.744,-2.31Z" style="fill:#ffca00;fill-rule:nonzero;"/></g></g><g><g><g id="flash0_ai_Assets_28_Layer_1__Path__41_0_Layer0_0_FILL"><path d="M197.059,216.435c-0.815,0.242 -1.555,0.408 -2.22,0.498c-0.664,0.091 -1.435,0.106 -2.31,0.045c-0.634,-0.03 -0.951,-0.015 -0.951,0.045c1.057,0.513 2.159,0.649 3.307,0.408c1.178,-0.03 2.22,-0.453 3.126,-1.268c-0.03,-0.03 -0.347,0.06 -0.951,0.272Z" style="fill:#cdcdcd;fill-rule:nonzero;"/></g></g></g><g><g><g id="flash0_ai_Assets_28_Layer_1__Path__40_0_Layer0_0_FILL"><path d="M213.005,227.036c0.03,-0.03 -0.091,-0.302 -0.362,-0.815c-0.332,-0.695 -0.589,-1.314 -0.77,-1.857c-0.302,-1.027 -0.619,-1.948 -0.951,-2.763c-0.091,2.144 0.604,3.956 2.084,5.436Z" style="fill:#cdcdcd;fill-rule:nonzero;"/></g></g></g><g><g id="Layer0_1_MEMBER_3_MEMBER_34_FILL"><path d="M190.038,213.219c-1.148,0.181 -2.22,0.513 -3.216,0.997c-0.332,0.121 -0.649,0.332 -0.951,0.634c-0.302,0.332 -0.423,0.695 -0.362,1.087c0,0.544 0.242,0.936 0.725,1.178c0.664,0.393 1.45,0.106 2.356,-0.861c0.815,-0.876 1.299,-1.888 1.45,-3.035Z" style="fill:#f5f5f5;fill-rule:nonzero;"/></g></g><g><g id="Layer0_1_MEMBER_3_MEMBER_35_FILL"><path d="M218.623,225.088c-0.423,0.725 -0.725,1.465 -0.906,2.22c-0.091,0.302 -0.121,0.574 -0.091,0.815c0.06,0.272 0.196,0.498 0.408,0.68c0.302,0.242 0.634,0.287 0.997,0.136c0.513,-0.181 0.71,-0.74 0.589,-1.676c-0.091,-0.815 -0.423,-1.54 -0.997,-2.174Z" style="fill:#f5f5f5;fill-rule:nonzero;"/></g></g><g><g id="Layer0_1_MEMBER_3_MEMBER_36_FILL"><path d="M189.585,211.226l0,-0.181l-2.084,0.136c-0.272,0 -0.498,0.091 -0.68,0.272c-0.151,0.332 -0.091,0.589 0.181,0.77c0.211,0.121 0.483,0.151 0.815,0.091c0.695,-0.211 1.284,-0.574 1.767,-1.087Z" style="fill:#f5f5f5;fill-rule:nonzero;"/></g></g><g><g><g id="flash0_ai_Assets_28_Layer_1__Path__36_0_Layer0_0_FILL"><path d="M195.338,218.247c-0.846,0 -1.706,0.045 -2.582,0.136c-0.574,-0.06 -1.45,-0.091 -2.627,-0.091c0.785,0.483 1.661,0.68 2.627,0.589c0.936,0.091 1.797,-0.121 2.582,-0.634Z" style="fill:#cdcdcd;fill-rule:nonzero;"/></g></g></g><g><g><g id="flash0_ai_Assets_28_Layer_1__Path__35_0_Layer0_0_FILL"><path d="M212.371,228.984c-0.242,-0.846 -0.559,-1.646 -0.951,-2.401c-0.272,-0.815 -0.634,-1.586 -1.087,-2.31c0.151,1.782 0.831,3.352 2.039,4.711Z" style="fill:#cdcdcd;fill-rule:nonzero;"/></g></g></g><g><g><g id="flash0_ai_Assets_28_Layer_1__Path__34_0_Layer0_0_FILL"><path d="M187.184,229.301c0.06,0 0.121,-0.166 0.181,-0.498c0.121,-0.483 0.227,-0.861 0.317,-1.133c0.091,-0.242 0.242,-0.589 0.453,-1.042c0.151,-0.302 0.196,-0.468 0.136,-0.498c-0.06,-0.06 -0.211,0.045 -0.453,0.317c-0.272,0.272 -0.483,0.634 -0.634,1.087c-0.151,0.423 -0.211,0.831 -0.181,1.223c0.03,0.362 0.091,0.544 0.181,0.544Z" style="fill:#cdcdcd;fill-rule:nonzero;"/></g></g></g><g><g id="Layer0_1_MEMBER_3_MEMBER_40_FILL"><path d="M214.364,220.376c-0.211,0.544 -0.196,1.087 0.045,1.631c0.242,0.513 0.634,0.876 1.178,1.087c0.574,0.242 1.133,0.242 1.676,0c0.574,-0.211 0.982,-0.589 1.223,-1.133l0,-0.045c0.211,-0.544 0.196,-1.087 -0.045,-1.631c-0.242,-0.513 -0.634,-0.876 -1.178,-1.087c-0.544,-0.211 -1.087,-0.211 -1.631,0c-0.574,0.211 -0.982,0.589 -1.223,1.133l-0.045,0.045Z" style="fill:#1b2d54;fill-rule:nonzero;"/></g></g><g><g id="Layer0_1_MEMBER_3_MEMBER_41_FILL"><path d="M214.229,213.491c-0.242,0.121 -0.332,0.227 -0.272,0.317c0.03,0.091 0.498,0.196 1.404,0.317c1.148,0.121 2.114,0.362 2.899,0.725c0.846,0.393 1.661,0.982 2.446,1.767c0.604,0.664 0.951,0.982 1.042,0.951c0.091,-0.06 0.121,-0.211 0.091,-0.453c-0.03,-0.302 -0.136,-0.634 -0.317,-0.997c-0.604,-1.117 -1.48,-1.948 -2.627,-2.492c-1.178,-0.574 -2.386,-0.74 -3.624,-0.498c-0.423,0.091 -0.77,0.211 -1.042,0.362Z" style="fill:#1b2d54;fill-rule:nonzero;"/></g></g><g><g id="Layer0_1_MEMBER_3_MEMBER_42_FILL"><path d="M198.373,212.902l0.045,0c0.211,-0.574 0.196,-1.117 -0.045,-1.631c-0.242,-0.513 -0.634,-0.876 -1.178,-1.087c-0.574,-0.242 -1.133,-0.257 -1.676,-0.045c-0.574,0.211 -0.982,0.589 -1.223,1.133l0,0.045c-0.211,0.544 -0.196,1.087 0.045,1.631c0.242,0.513 0.634,0.876 1.178,1.087c0.544,0.242 1.087,0.242 1.631,0c0.574,-0.211 0.982,-0.589 1.223,-1.133Z" style="fill:#1b2d54;fill-rule:nonzero;"/></g></g><g><g id="Layer0_1_MEMBER_3_MEMBER_43_FILL"><path d="M197.014,205.382c0.815,0.393 1.631,0.982 2.446,1.767c0.634,0.634 0.997,0.936 1.087,0.906c0.091,-0.03 0.121,-0.181 0.091,-0.453c-0.06,-0.302 -0.181,-0.634 -0.362,-0.997c-0.604,-1.117 -1.48,-1.933 -2.627,-2.446c-1.148,-0.544 -2.356,-0.725 -3.624,-0.544c-0.423,0.091 -0.77,0.211 -1.042,0.362c-0.242,0.151 -0.332,0.272 -0.272,0.362c0.03,0.091 0.498,0.181 1.404,0.272c1.117,0.151 2.084,0.408 2.899,0.77Z" style="fill:#1b2d54;fill-rule:nonzero;"/></g></g><g><g id="Layer0_1_MEMBER_3_MEMBER_44_FILL"><path d="M207.796,221.962c0.604,-8.456 0.755,-12.684 0.453,-12.684c-0.151,-0.03 -0.362,1.193 -0.634,3.669c-0.302,2.476 -0.589,5.451 -0.861,8.924l-0.317,4.893c0.06,0.664 -0.076,1.268 -0.408,1.812c-0.211,0.242 -0.68,0.242 -1.404,0c-2.476,-0.785 -3.745,-1.117 -3.805,-0.997c1.148,0.695 2.325,1.238 3.533,1.631c0.423,0.181 0.755,0.287 0.997,0.317c0.513,0.091 0.936,-0.03 1.268,-0.362c0.544,-0.725 0.785,-1.495 0.725,-2.31l0.453,-4.893Z" style="fill:#1b2d54;fill-rule:nonzero;"/></g></g><g><g id="Layer0_1_MEMBER_3_MEMBER_45_FILL"><path d="M190.491,231.158c0.151,0.755 0.483,1.404 0.997,1.948c0.544,0.544 1.193,0.891 1.948,1.042c1.087,0.332 2.19,0.332 3.307,0l0.136,-0.181c0.785,-0.785 1.178,-1.752 1.178,-2.899c0,-1.148 -0.393,-2.114 -1.178,-2.899c-0.362,-0.362 -0.74,-0.634 -1.133,-0.815l-0.091,0c-0.906,-0.423 -1.827,-0.483 -2.763,-0.181c-0.966,0.332 -1.661,0.951 -2.084,1.857c-0.332,0.725 -0.438,1.435 -0.317,2.129Z" style="fill:#ffca00;fill-rule:nonzero;"/></g></g><g><g id="Layer0_1_MEMBER_3_MEMBER_46_FILL"><path d="M190.264,227.896c-0.302,0.091 -0.453,0.181 -0.453,0.272c0,0.03 0.544,0.211 1.631,0.544c1.268,0.393 2.31,0.982 3.126,1.767c0.815,0.815 1.389,1.827 1.721,3.035c0.272,1.027 0.438,1.54 0.498,1.54c0.091,0.03 0.196,-0.106 0.317,-0.408c0.121,-0.332 0.181,-0.74 0.181,-1.223c-0.06,-1.51 -0.619,-2.794 -1.676,-3.851c-1.117,-1.087 -2.446,-1.676 -3.986,-1.767c-0.513,-0.03 -0.966,0 -1.359,0.091Z" style="fill:#1b2d54;fill-rule:nonzero;"/></g></g><g><g id="Layer0_1_MEMBER_3_MEMBER_47_FILL"><path d="M193.254,199.674c-0.242,0.302 0.121,0.831 1.087,1.586c1.178,0.846 2.476,1.389 3.896,1.631c1.419,0.211 2.824,0.106 4.213,-0.317c1.117,-0.393 1.616,-0.77 1.495,-1.133c-0.06,-0.302 -0.619,-0.513 -1.676,-0.634c-1.51,-0.091 -2.718,-0.211 -3.624,-0.362c-0.423,-0.06 -1.616,-0.317 -3.579,-0.77c-1.057,-0.242 -1.661,-0.242 -1.812,0Z" style="fill:#1b2d54;fill-rule:nonzero;"/></g></g><g><g id="Layer0_1_MEMBER_3_MEMBER_48_FILL"><path d="M223.878,210.954c0.362,-0.151 0.332,-0.664 -0.091,-1.54c-0.574,-1.027 -1.374,-1.812 -2.401,-2.356c-1.057,-0.513 -2.174,-0.71 -3.352,-0.589c-0.846,0.121 -1.268,0.408 -1.268,0.861c0.03,0.272 0.408,0.559 1.133,0.861c0.453,0.211 1.253,0.544 2.401,0.997c0.302,0.151 1.042,0.589 2.22,1.314c0.664,0.423 1.117,0.574 1.359,0.453Z" style="fill:#1b2d54;fill-rule:nonzero;"/></g></g><g><g id="Layer0_1_MEMBER_3_MEMBER_49_FILL"><path d="M192.575,290.638l32.345,12.231c21.684,8.003 32.919,11.597 33.704,10.782c1.178,-1.268 1.706,-5.617 1.586,-13.047c-0.151,-8.728 -1.435,-17.26 -3.851,-25.595c-2.265,-7.762 -5.753,-18.362 -10.465,-31.801l-6.387,-17.849l-11.506,5.255l2.446,10.6c1.721,7.49 2.763,12.322 3.126,14.496c0.483,2.899 1.027,8.124 1.631,15.674c0.664,7.882 0.846,12.095 0.544,12.639c-0.272,0.483 -6.131,-2.069 -17.577,-7.656l-17.124,-8.471l-8.471,22.741Z" style="fill:#fff;fill-rule:nonzero;"/></g><path id="Layer0_1_MEMBER_3_MEMBER_49_1_STROKES" d="M201.046,267.897l17.124,8.471c11.446,5.587 17.305,8.139 17.577,7.656c0.302,-0.544 0.121,-4.757 -0.544,-12.639c-0.604,-7.55 -1.148,-12.775 -1.631,-15.674c-0.362,-2.174 -1.404,-7.007 -3.126,-14.496l-2.446,-10.6l11.506,-5.255l6.387,17.849c4.711,13.439 8.199,24.04 10.465,31.801c2.416,8.335 3.7,16.867 3.851,25.595c0.121,7.429 -0.408,11.778 -1.586,13.047c-0.785,0.815 -12.02,-2.778 -33.704,-10.782l-32.345,-12.231l8.471,-22.741Z" style="fill:none;fill-rule:nonzero;stroke:#1b294a;stroke-width:0.27px;"/></g><g><g id="Layer0_1_MEMBER_3_MEMBER_50_FILL"><path d="M239.597,297.026c-0.453,-0.362 -0.921,-0.891 -1.404,-1.586c-1.027,-1.389 -1.676,-2.945 -1.948,-4.666c-0.302,-1.54 -0.423,-3.231 -0.362,-5.074c0.06,-0.725 0.06,-1.45 0,-2.174c-0.242,0.725 -0.362,1.435 -0.362,2.129c-0.181,1.842 -0.121,3.594 0.181,5.255c0.332,1.842 1.057,3.428 2.174,4.757c0.453,0.574 1.027,1.027 1.721,1.359Z" style="fill:#1b2d54;fill-rule:nonzero;"/></g></g><g><g id="Layer0_1_MEMBER_3_MEMBER_51_MEMBER_0_FILL"><path d="M225.599,193.332c0.03,0.936 0.664,1.661 1.903,2.174l3.986,3.488l1.54,7.611l-5.119,15.402c-0.483,1.57 -0.604,3.473 -0.362,5.708c0.121,1.117 0.287,2.084 0.498,2.899l11.642,-3.715l1.903,-19.479l-8.517,-23.738c-0.332,0.03 -0.634,0.211 -0.906,0.544c-0.574,0.634 -0.77,1.691 -0.589,3.171l-3.624,-2.673l-0.408,1.404c-0.211,1.057 -0.196,1.872 0.045,2.446c1.238,1.933 2.552,3.669 3.941,5.21l-5.617,-1.721l-0.317,1.268Z" style="fill:#fff;fill-rule:nonzero;"/></g></g><g><path id="Layer0_1_MEMBER_3_MEMBER_51_MEMBER_1_1_STROKES" d="M239.688,226.9l1.903,-19.479l-8.517,-23.738c-0.332,0.03 -0.634,0.211 -0.906,0.544c-0.574,0.634 -0.77,1.691 -0.589,3.171l-3.624,-2.673l-0.408,1.404c-0.211,1.057 -0.196,1.872 0.045,2.446c1.238,1.933 2.552,3.669 3.941,5.21l-5.617,-1.721l-0.317,1.268c0.03,0.936 0.664,1.661 1.903,2.174l3.986,3.488l1.54,7.611l-5.119,15.402c-0.483,1.57 -0.604,3.473 -0.362,5.708c0.121,1.117 0.287,2.084 0.498,2.899" style="fill:none;fill-rule:nonzero;stroke:#1b294a;stroke-width:0.27px;"/></g><g><g id="Layer0_1_MEMBER_3_MEMBER_52_FILL"><path d="M232.44,194.419c1.268,1.117 2.159,2.386 2.673,3.805c0.574,1.45 0.982,2.975 1.223,4.575c0.121,0.755 0.272,1.404 0.453,1.948c0.091,-0.634 0.091,-1.299 0,-1.993c-0.181,-1.661 -0.559,-3.231 -1.133,-4.711c-0.574,-1.51 -1.555,-2.794 -2.945,-3.851c-0.574,-0.483 -1.208,-0.77 -1.903,-0.861c0,0.03 0.151,0.136 0.453,0.317c0.453,0.272 0.846,0.529 1.178,0.77Z" style="fill:#1b2d54;fill-rule:nonzero;"/></g></g><g><g id="Layer0_1_MEMBER_3_MEMBER_53_FILL"><path d="M236.471,194.283c-0.574,-1.45 -1.374,-2.794 -2.401,-4.032c-0.876,-1.359 -1.918,-2.522 -3.126,-3.488c0.815,1.329 1.721,2.597 2.718,3.805c0.906,1.389 1.842,2.627 2.809,3.715Z" style="fill:#1b2d54;fill-rule:nonzero;"/></g></g><g><g id="Layer0_1_MEMBER_3_MEMBER_54_FILL"><path d="M222.926,282.892c-3.08,-1.057 -7.701,-0.317 -13.862,2.22l-8.29,4.077l1.993,35.969l20.476,21.065l79.73,67.136l17.531,-16.761c-15.04,-18.543 -30.382,-37.177 -46.026,-55.901c-31.288,-37.509 -48.472,-56.777 -51.553,-57.804Z" style="fill:#1b2d54;fill-rule:nonzero;"/></g></g><g><g id="Layer0_1_MEMBER_3_MEMBER_55_FILL"><path d="M205.938,341.647c0.785,-0.121 2.341,1.933 4.666,6.161c3.413,6.282 7.218,11.944 11.416,16.988c4.923,5.859 18.362,17.124 40.318,33.795c10.993,8.335 21.488,16.082 31.484,23.239l19.797,-18.483l-67.634,-78.325c-4.893,-5.587 -10.223,-11.265 -15.991,-17.033c-11.506,-11.537 -19.434,-17.713 -23.783,-18.528c-7.671,-1.389 -17.441,3.292 -29.31,14.043c-4.228,3.866 -43.323,33.674 -117.284,89.424l3.035,9.287c2.688,7.097 5.783,12.956 9.287,17.577c7.611,10.238 17.229,15.417 28.857,15.538c13.59,0.151 26.275,-4.53 38.053,-14.043c4.017,-3.262 7.988,-7.158 11.914,-11.688c0.423,-0.483 2.914,-3.549 7.475,-9.196c2.356,-2.899 10.857,-13.741 25.504,-32.526c13.681,-17.365 21.08,-26.108 22.198,-26.229Z" style="fill:#1b2d54;fill-rule:nonzero;"/></g></g><g><g><g id="flash0_ai_Assets_28_Layer_1__Path__17_0_Layer0_0_FILL"><path d="M242.814,340.56c-8.396,-8.215 -15.357,-14.919 -20.884,-20.114c-4.953,-4.651 -8.728,-8.094 -11.325,-10.329l-5.889,-4.53l-0.544,-0.181c-1.359,-0.181 -2.688,-0.045 -3.986,0.408c-1.299,0.362 -2.567,0.815 -3.805,1.359c-2.325,0.997 -4.621,2.159 -6.886,3.488l-60.432,55.992c-5.255,5.285 -10.661,10.057 -16.218,14.315c-4.742,3.594 -9.951,6.357 -15.629,8.29c-4.379,1.389 -8.773,2.023 -13.183,1.903c-2.869,-0.091 -5.632,-0.589 -8.29,-1.495c-0.302,-0.091 -0.982,-0.347 -2.039,-0.77l-0.725,-0.227l2.718,1.133c2.627,0.876 5.406,1.389 8.335,1.54c4.5,0.181 8.924,-0.423 13.273,-1.812c5.648,-1.842 10.902,-4.591 15.765,-8.245c5.768,-4.409 11.189,-9.196 16.263,-14.36l60.522,-55.856c2.144,-1.299 4.409,-2.461 6.795,-3.488c1.057,-0.483 2.295,-0.921 3.715,-1.314c1.238,-0.423 2.507,-0.559 3.805,-0.408l0.815,0.408c0.302,0.151 0.559,0.332 0.77,0.544c0.393,0.242 0.921,0.634 1.586,1.178c0.664,0.513 1.646,1.329 2.945,2.446c2.597,2.235 6.372,5.678 11.325,10.329c7.339,6.886 14.3,13.575 20.884,20.068c8.698,8.517 14.904,14.678 18.619,18.483l46.162,48.925l0.589,0.544l-30.85,-33.024c-6.584,-7.188 -11.793,-12.745 -15.629,-16.671c-3.745,-3.835 -9.936,-10.012 -18.573,-18.528Z" style="fill:#cdcdcd;fill-rule:nonzero;"/></g></g></g><g><g><g id="flash0_ai_Assets_28_Layer_1__Path__16_0_Layer0_0_FILL"><path d="M111.712,434.333l0.272,-0.498l1.993,-7.203l0,-0.091l-0.091,-0.091l-10.918,-9.513l-0.091,-0.091l-0.136,0c-3.141,0.634 -6.312,0.725 -9.513,0.272c-4.017,-0.544 -7.958,-1.495 -11.824,-2.854c-3.111,-1.057 -6.206,-2.325 -9.287,-3.805l-0.272,-0.136l0,0.272c0.06,1.993 0.091,4.394 0.091,7.203l0.045,1.993l0.091,0.68l0.136,-9.559c2.933,1.452 5.938,2.721 9.015,3.805c3.896,1.419 7.867,2.401 11.914,2.945c3.243,0.446 6.414,0.341 9.513,-0.317l10.827,9.332l-1.767,7.656Z" style="fill:#cdcdcd;fill-rule:nonzero;"/></g></g></g><g><g><g id="flash0_ai_Assets_28_Layer_1__Path__15_0_Layer0_0_FILL"><path d="M283.856,368.42c-19.725,-22.785 -29.812,-34.322 -30.261,-34.61c0.087,0.361 10.038,12.003 29.853,34.927c19.686,22.803 29.758,34.34 30.216,34.61c0.121,-0.121 -9.815,-11.763 -29.808,-34.927Z" style="fill:#cdcdcd;fill-rule:nonzero;"/></g></g></g><g><g id="Layer0_1_MEMBER_3_MEMBER_59_FILL"><path d="M174.092,255.802c-4.409,-2.235 -10.736,-6.478 -18.981,-12.73c-3.231,-0.393 -7.127,0.03 -11.688,1.268c-9.09,2.416 -16.943,7.626 -23.557,15.629c-3.926,4.802 -9.468,14.527 -16.625,29.174c-7.701,15.795 -13.228,26.093 -16.58,30.895c-6.584,7.792 -12.156,15.508 -16.716,23.149c-8.758,14.587 -13.016,28.479 -12.775,41.677l1.359,8.245l24.417,-9.196c5.527,-2.476 10.631,-5.753 15.312,-9.83l28.811,-25.233l51.235,-46.479c0.664,0.362 2.416,-1.721 5.255,-6.252c3.171,-5.074 5.406,-10.057 6.705,-14.949l5.3,2.899l16.852,-11.008l-24.644,-15.131l-0.861,0.634c-3.654,0.604 -7.928,-0.317 -12.82,-2.763Z" style="fill:#74777b;fill-rule:nonzero;"/></g></g><g><g><g id="flash0_ai_Assets_28_Layer_1__Path__13_0_Layer0_0_FILL"><path d="M165.802,312.881c0.664,0 1.646,-0.649 2.945,-1.948c2.295,-2.295 5.361,-5.119 9.196,-8.471c-11.174,-7.278 -22.892,-13.47 -35.154,-18.573l-4.938,-0.453c2.96,4.711 5.285,8.154 6.976,10.329c2.809,3.654 5.708,6.569 8.698,8.743c0.876,0.634 2.22,1.555 4.032,2.763c1.51,1.087 2.658,2.19 3.443,3.307c0.453,0.634 1.133,1.601 2.039,2.899c0.876,0.997 1.797,1.465 2.763,1.404Z" style="fill-rule:nonzero;"/></g></g></g><g><g id="Layer0_1_MEMBER_3_MEMBER_61_FILL"><path d="M108.496,365.838l-0.453,0.181l-5.346,3.307c-2.144,1.178 -4.334,2.25 -6.569,3.216c-2.99,1.238 -5.814,2.205 -8.471,2.899c-3.171,0.785 -6.101,1.344 -8.788,1.676c-2.658,0.302 -5.089,0.453 -7.293,0.453c-0.725,0.06 -1.661,0.06 -2.809,0c-0.634,0 -1.344,-0.03 -2.129,-0.091l-1.314,-0.045c-0.151,-0.03 -0.317,-0.03 -0.498,0l0.453,0.091l1.359,0.136c0.906,0.121 1.616,0.181 2.129,0.181c0.876,0.091 1.812,0.136 2.809,0.136c2.325,0.03 4.772,-0.091 7.339,-0.362c5.98,-0.634 11.793,-2.174 17.441,-4.621c2.023,-0.846 4.213,-1.948 6.569,-3.307l5.21,-3.533c0.181,-0.121 0.302,-0.227 0.362,-0.317Z" style="fill:#263238;fill-rule:nonzero;"/></g></g><g><g><g id="flash0_ai_Assets_28_Layer_1__Path__11_0_Layer0_0_FILL"><path d="M91.055,374.898c5.829,-1.782 11.265,-4.364 16.308,-7.746l0.68,-0.997c-7.46,3.141 -15.266,4.802 -23.421,4.983c-3.473,0.091 -5.814,0.257 -7.022,0.498c-2.567,0.483 -4.5,1.51 -5.799,3.08c-0.302,0.242 -0.498,0.559 -0.589,0.951c-0.091,0.393 -0.076,0.77 0.045,1.133c0.302,0.453 0.966,0.68 1.993,0.68c6.07,0.03 12.005,-0.831 17.803,-2.582Z" style="fill-rule:nonzero;"/></g></g></g><g><g id="Layer0_1_MEMBER_3_MEMBER_63_FILL"><path d="M190.944,267.988c-0.362,-1.842 -0.846,-3.926 -1.45,-6.252c-0.242,-0.906 -0.513,-1.752 -0.815,-2.537c0.03,0.755 0.181,1.631 0.453,2.627c0.544,2.386 0.982,4.47 1.314,6.252c0.423,2.144 0.755,4.243 0.997,6.297c0.03,0.634 0.136,1.51 0.317,2.627c0.121,-0.846 0.136,-1.737 0.045,-2.673c-0.151,-2.235 -0.438,-4.349 -0.861,-6.342Z" style="fill:#263238;fill-rule:nonzero;"/></g></g><g><g id="Layer0_1_MEMBER_3_MEMBER_64_FILL"><path d="M174.635,261.283c-8.245,-7.55 -13.938,-11.491 -17.078,-11.824c-3.171,0.181 -6.523,0.891 -10.057,2.129c-7.067,2.446 -11.491,6.252 -13.273,11.416c-2.235,6.523 -2.054,11.99 0.544,16.399c1.117,1.933 3.911,4.998 8.381,9.196c2.235,2.114 4.364,4.032 6.387,5.753l36.467,-21.835c-3.473,-3.715 -7.263,-7.46 -11.371,-11.235Z" style="fill:#74777b;fill-rule:nonzero;"/></g></g><g><g id="Layer0_1_MEMBER_3_MEMBER_65_FILL"><path d="M174.817,259.381c-2.658,-2.718 -4.409,-4.47 -5.255,-5.255c-1.601,-1.48 -3.352,-2.733 -5.255,-3.76c-2.658,-1.48 -5.527,-2.567 -8.607,-3.262c-0.966,-0.242 -1.782,-0.393 -2.446,-0.453l-0.634,-0.091l-0.227,0l3.262,0.725c2.869,0.695 5.708,1.827 8.517,3.398c1.752,0.997 3.473,2.235 5.164,3.715c1.087,1.057 2.809,2.824 5.164,5.3l11.869,12.231l-0.227,0.181l-36.513,22.016l-0.091,0.045l-0.045,0.045l0.091,0l0.136,0.136l0.181,0l0.272,-0.136l36.739,-22.062l0.045,-0.045c0.06,-0.091 0.06,-0.181 0,-0.272l-0.181,-0.136l0.136,0.091l-12.095,-12.412Z" style="fill:#263238;fill-rule:nonzero;"/></g></g><g><g id="Layer0_1_MEMBER_3_MEMBER_66_FILL"><path d="M128.247,262.37c0.634,-3.171 1.933,-6.025 3.896,-8.562c0.997,-1.299 1.872,-2.28 2.627,-2.945c-0.362,0.211 -0.649,0.423 -0.861,0.634c-0.604,0.544 -1.284,1.238 -2.039,2.084c-2.114,2.567 -3.488,5.466 -4.122,8.698c-0.634,3.231 -0.468,6.433 0.498,9.604l1.087,2.718c0.151,0.362 0.332,0.664 0.544,0.906c0.03,0 -0.091,-0.332 -0.362,-0.997c-0.362,-0.936 -0.664,-1.857 -0.906,-2.763c-0.846,-3.111 -0.966,-6.236 -0.362,-9.377Z" style="fill:#263238;fill-rule:nonzero;"/></g></g><g><g id="Layer0_1_MEMBER_3_MEMBER_67_FILL"><path d="M185.055,273.152l-32.753,19.615c0.755,0.755 13.077,7.097 36.966,19.026c25.701,12.865 42.115,20.355 49.242,22.469c7.037,2.084 13.756,1.102 20.159,-2.945c3.201,-2.023 5.693,-4.258 7.475,-6.705l-4.938,-13.364c-2.778,-0.997 -7.158,-2.386 -13.137,-4.168c-3.715,-1.117 -7.173,-1.616 -10.374,-1.495l-3.715,0.498l-48.925,-32.934Z" style="fill:#fff;fill-rule:nonzero;"/></g><path id="Layer0_1_MEMBER_3_MEMBER_67_1_STROKES" d="M152.302,292.767c0.755,0.755 13.077,7.097 36.966,19.026c25.701,12.865 42.115,20.355 49.242,22.469c7.037,2.084 13.756,1.102 20.159,-2.945c3.201,-2.023 5.693,-4.258 7.475,-6.705l-4.938,-13.364c-2.778,-0.997 -7.158,-2.386 -13.137,-4.168c-3.715,-1.117 -7.173,-1.616 -10.374,-1.495l-3.715,0.498l-48.925,-32.934l-32.753,19.615Z" style="fill:none;fill-rule:nonzero;stroke:#1b294a;stroke-width:0.27px;"/></g><g><g id="Layer0_1_MEMBER_3_MEMBER_68_FILL"><path d="M247.48,326.29c-1.631,2.929 -4.077,4.787 -7.339,5.572c0.453,0.091 0.936,0.045 1.45,-0.136c1.148,-0.272 2.19,-0.77 3.126,-1.495c0.876,-0.664 1.631,-1.525 2.265,-2.582c0.272,-0.423 0.438,-0.876 0.498,-1.359Z" style="fill:#1b2d54;fill-rule:nonzero;"/></g></g><g><g id="Layer0_1_MEMBER_3_MEMBER_69_MEMBER_0_FILL"><path d="M261.296,308.849l-3.171,0.725l4.666,18.03l2.99,3.851c0.574,-1.933 1.284,-3.866 2.129,-5.799c0.211,-0.362 0.876,-1.057 1.993,-2.084c0.785,-0.695 1.133,-1.495 1.042,-2.401c-0.091,-1.087 -0.831,-3.065 -2.22,-5.934c-1.268,-2.627 -2.325,-4.515 -3.171,-5.663c-0.604,-0.815 -2.023,-1.057 -4.258,-0.725Z" style="fill:#fff;fill-rule:nonzero;"/></g></g><g><path id="Layer0_1_MEMBER_3_MEMBER_69_MEMBER_1_1_STROKES" d="M258.125,309.574l3.171,-0.725c2.235,-0.332 3.654,-0.091 4.258,0.725c0.846,1.148 1.903,3.035 3.171,5.663c1.389,2.869 2.129,4.847 2.22,5.934c0.091,0.906 -0.257,1.706 -1.042,2.401c-1.117,1.027 -1.782,1.721 -1.993,2.084c-0.846,1.933 -1.555,3.866 -2.129,5.799l-2.99,-3.851" style="fill:none;fill-rule:nonzero;stroke:#1b294a;stroke-width:0.27px;"/></g><g><g id="Layer0_1_MEMBER_3_MEMBER_70_FILL"><path d="M185.1,273.107c0.121,0.151 0.302,0.287 0.544,0.408l48.563,32.934c0.785,0.483 1.465,0.997 2.039,1.54c2.054,1.661 3.79,3.549 5.21,5.663l1.495,2.446c-0.03,-0.272 -0.121,-0.498 -0.272,-0.68l-1.042,-1.857c-1.299,-2.054 -3.005,-4.017 -5.119,-5.889l-51.417,-34.565Z" style="fill:#1b2d54;fill-rule:nonzero;"/></g></g><g><g id="Layer0_1_MEMBER_3_MEMBER_71_FILL"><path d="M233.663,306.176c1.51,-0.242 2.884,-0.408 4.122,-0.498c3.382,0 6.659,0.498 9.83,1.495c0.695,0.211 2.446,0.77 5.255,1.676c1.963,0.634 3.428,1.072 4.394,1.314c0.755,0.211 1.737,0.423 2.945,0.634l1.133,0.091l-1.042,-0.317c-0.634,-0.121 -1.616,-0.378 -2.945,-0.77c-0.846,-0.211 -2.28,-0.68 -4.304,-1.404c-2.265,-0.755 -4.032,-1.329 -5.3,-1.721c-3.352,-1.027 -6.674,-1.48 -9.966,-1.359c-1.238,0.121 -2.25,0.287 -3.035,0.498c-0.332,0.06 -0.695,0.181 -1.087,0.362Z" style="fill:#1b2d54;fill-rule:nonzero;"/></g></g><g><g id="Layer0_1_MEMBER_3_MEMBER_72_FILL"><path d="M264.694,326.018c-0.936,0.785 -1.767,1.661 -2.492,2.627c1.087,-0.574 2.069,-1.329 2.945,-2.265c0.574,-0.574 1.087,-1.284 1.54,-2.129c0.362,-0.695 0.468,-1.042 0.317,-1.042c-0.785,1.057 -1.555,1.993 -2.31,2.809Z" style="fill:#1b2d54;fill-rule:nonzero;"/></g></g><g><g id="Layer0_1_MEMBER_3_MEMBER_73_FILL"><path d="M264.83,308.94c-0.211,-0.121 -0.483,-0.227 -0.815,-0.317c-0.966,-0.242 -1.948,-0.242 -2.945,0c-1.359,0.181 -2.658,0.649 -3.896,1.404c0,0.06 0.393,-0.015 1.178,-0.227c1.117,-0.302 2.039,-0.529 2.763,-0.68c0.936,-0.181 1.872,-0.227 2.809,-0.136l1.178,0.181c0.03,-0.03 -0.06,-0.106 -0.272,-0.227Z" style="fill:#1b2d54;fill-rule:nonzero;"/></g></g><g><g id="Layer0_1_MEMBER_4_MEMBER_0_FILL"><path d="M189.404,436.734c-17.584,0 -34.074,0.076 -49.469,0.227c15.381,0.181 31.856,0.272 49.423,0.272c140.645,0 210.967,-0.076 210.967,-0.227c0,-0.181 -70.307,-0.272 -210.922,-0.272Z" style="fill:#263238;fill-rule:nonzero;"/></g></g></svg>