<?xml version="1.0" encoding="UTF-8" standalone="no"?><!DOCTYPE svg PUBLIC "-//W3C//DTD SVG 1.1//EN" "http://www.w3.org/Graphics/SVG/1.1/DTD/svg11.dtd"><svg width="100%" height="100%" viewBox="0 0 404 416" version="1.1" xmlns="http://www.w3.org/2000/svg" xmlns:xlink="http://www.w3.org/1999/xlink" xml:space="preserve" xmlns:serif="http://www.serif.com/" style="fill-rule:evenodd;clip-rule:evenodd;stroke-miterlimit:10;"><g><g id="Layer0_0_MEMBER_0_MEMBER_0_FILL"><path d="M49.852,371.803c-1.669,-0.089 -3.293,0.358 -4.873,1.341c-1.49,0.924 -2.682,2.161 -3.576,3.71c-0.03,0.06 -0.671,1.445 -1.922,4.157c-0.775,1.669 -1.624,2.891 -2.548,3.666c-1.371,0.983 -2.787,1.714 -4.247,2.19c-1.043,0.447 -1.773,0.805 -2.19,1.073c-0.775,0.477 -1.326,1.028 -1.654,1.654c-0.894,1.669 -0.998,3.383 -0.313,5.141c0.477,1.222 1.192,2.235 2.146,3.04l0.492,-0.313l21.592,0.671c1.58,0 2.593,-0.03 3.04,-0.089c1.073,-0.179 1.967,-0.596 2.682,-1.252c0.715,-0.685 1.207,-1.624 1.475,-2.816c0.149,-0.805 0.224,-1.922 0.224,-3.353c-0.03,-2.682 -0.104,-4.679 -0.224,-5.99c-0.238,-2.205 -0.685,-4.128 -1.341,-5.767c-0.805,-1.937 -1.952,-3.547 -3.442,-4.828c-1.639,-1.401 -3.412,-2.146 -5.32,-2.235Z" style="fill:#f5f5f5;fill-rule:nonzero;"/></g></g><g><g id="Layer0_0_MEMBER_0_MEMBER_1_FILL"><path d="M71.98,338.364l-56.819,0l10.237,61.021c0.209,1.282 0.745,2.414 1.609,3.397c0.894,0.983 1.967,1.654 3.219,2.012l0.179,0.089l0.536,0.134l1.162,0.134l0,0.045l0.268,-0.045l25.302,0c1.788,0 3.353,-0.581 4.694,-1.743c1.341,-1.162 2.161,-2.623 2.459,-4.381l7.153,-60.663m-56.103,0.581l5.767,0l2.682,16.406l-5.677,0l-2.772,-16.406m6.303,0l11.578,0l1.252,16.406l-10.148,0l-0.983,-6.348c-0.983,-6.11 -1.55,-9.462 -1.699,-10.058m42.916,0l6.259,0l-1.922,16.406l-5.722,0l1.386,-16.406m-8.36,0l7.823,0l-1.431,16.406l-6.929,0l0.536,-16.406m-11.355,0l10.774,0l-0.536,16.406l-9.835,0l-0.402,-16.406m-11.087,0l10.505,0l0.402,16.406l-9.611,0l-1.296,-16.406m29.058,20.653l5.588,0l-2.101,17.703l-5.007,0l1.52,-17.703m-17.479,0l9.611,0l-0.626,17.703l-8.583,0l-0.402,-17.703m15.423,17.703l-5.856,0l0.581,-17.703l6.75,0l-1.475,17.703m-5.99,4.247l5.588,0l-1.341,15.378l-4.739,0l0.492,-15.378m4.828,15.378l1.341,-15.378l4.873,0l-1.788,15.378l-4.426,0m-14.35,-15.378l0.358,15.378l-7.331,0l-1.207,-15.378l8.181,0m8.36,15.378l-7.466,0l-0.358,-15.378l8.36,0l-0.536,15.378m-8.851,-37.328l0.402,17.703l-8.36,0l-1.386,-17.703l9.343,0m-25.973,0l5.633,0l2.816,17.703l-5.499,0l-2.95,-17.703m6.259,37.328l-2.593,-15.378l5.409,0l2.414,15.378l-5.23,0m11.131,-19.625l-8.36,0l-2.772,-17.703l9.745,0l1.386,17.703m0.358,4.247l1.162,15.378l-6.84,0l-2.369,-15.378l8.047,0Z" style="fill:#e0e0e0;fill-rule:nonzero;"/></g></g><g><g id="Layer0_0_MEMBER_0_MEMBER_2_FILL"><rect x="109.8" y="295.672" width="145.914" height="67.279" style="fill:#f5f5f5;fill-rule:nonzero;"/></g></g><g><g id="Layer0_0_MEMBER_0_MEMBER_3_FILL"><path d="M252.226,299.203l-139.074,0l0,60.529l139.074,0l0,-60.529m-138.18,0.894l137.241,0l0,58.741l-137.241,0l0,-58.741Z" style="fill:#e0e0e0;fill-rule:nonzero;"/></g></g><g><g id="Layer0_0_MEMBER_0_MEMBER_4_FILL"><rect x="255.713" y="295.672" width="35.629" height="67.279" style="fill:#e0e0e0;fill-rule:nonzero;"/></g></g><g><g id="Layer0_0_MEMBER_0_MEMBER_5_FILL"><path d="M113.421,317.755c0,0.119 0.06,0.179 0.179,0.179l138.18,0c0.119,0 0.179,-0.06 0.179,-0.179c0,-0.119 -0.06,-0.179 -0.179,-0.179l-138.18,0c-0.119,0 -0.179,0.06 -0.179,0.179Z" style="fill:#e0e0e0;fill-rule:nonzero;"/></g></g><g><g id="Layer0_0_MEMBER_0_MEMBER_6_FILL"><path d="M183.025,299.293c-0.119,0 -0.179,0.06 -0.179,0.179c-0.358,6.229 -0.343,12.323 0.045,18.284c0,0.089 0.045,0.134 0.134,0.134c0.089,0 0.134,-0.045 0.134,-0.134c0.387,-6.348 0.402,-12.443 0.045,-18.284c0,-0.119 -0.06,-0.179 -0.179,-0.179Z" style="fill:#e0e0e0;fill-rule:nonzero;"/></g></g><g><g id="Layer0_0_MEMBER_0_MEMBER_7_FILL"><path d="M220.352,308.591c0,-0.507 -0.179,-0.939 -0.536,-1.296c-0.387,-0.358 -0.834,-0.536 -1.341,-0.536c-0.507,0 -0.939,0.179 -1.296,0.536c-0.358,0.358 -0.536,0.79 -0.536,1.296c0,0.507 0.179,0.954 0.536,1.341c0.358,0.358 0.79,0.536 1.296,0.536c0.507,0 0.954,-0.179 1.341,-0.536c0.358,-0.387 0.536,-0.834 0.536,-1.341Z" style="fill:#e0e0e0;fill-rule:nonzero;"/></g></g><g><g id="Layer0_0_MEMBER_0_MEMBER_8_FILL"><path d="M147.843,308.591c0,-0.507 -0.179,-0.939 -0.536,-1.296c-0.387,-0.358 -0.834,-0.536 -1.341,-0.536c-0.507,0 -0.939,0.179 -1.296,0.536c-0.358,0.358 -0.536,0.79 -0.536,1.296c0,0.507 0.179,0.954 0.536,1.341c0.358,0.358 0.79,0.536 1.296,0.536c0.507,0 0.954,-0.179 1.341,-0.536c0.358,-0.387 0.536,-0.834 0.536,-1.341Z" style="fill:#e0e0e0;fill-rule:nonzero;"/></g></g><g><g id="Layer0_0_MEMBER_0_MEMBER_9_FILL"><path d="M184.634,329.468c0,-0.507 -0.179,-0.939 -0.536,-1.296c-0.387,-0.358 -0.834,-0.536 -1.341,-0.536c-0.507,0 -0.939,0.179 -1.296,0.536c-0.358,0.358 -0.536,0.79 -0.536,1.296c0,0.507 0.179,0.939 0.536,1.296c0.358,0.358 0.79,0.536 1.296,0.536c0.507,0 0.954,-0.179 1.341,-0.536c0.358,-0.358 0.536,-0.79 0.536,-1.296Z" style="fill:#e0e0e0;fill-rule:nonzero;"/></g></g><g><g id="Layer0_0_MEMBER_0_MEMBER_10_FILL"><path d="M137.829,362.906l-10.55,0l-7.51,42.245l4.202,0l13.858,-42.245Z" style="fill:#e0e0e0;fill-rule:nonzero;"/></g></g><g><g id="Layer0_0_MEMBER_0_MEMBER_11_FILL"><path d="M245.387,362.906l-10.55,0l12.607,42.335l4.247,0l-6.303,-42.335Z" style="fill:#e0e0e0;fill-rule:nonzero;"/></g></g><g><g id="Layer0_0_MEMBER_0_MEMBER_12_FILL"><path d="M273.595,362.906l-10.55,0l13.456,42.335l4.202,0l-7.108,-42.335Z" style="fill:#e0e0e0;fill-rule:nonzero;"/></g></g><g><g id="Layer0_0_MEMBER_0_MEMBER_13_FILL"><path d="M184.455,348.512c0,-0.507 -0.179,-0.939 -0.536,-1.296c-0.358,-0.358 -0.79,-0.536 -1.296,-0.536c-0.507,0 -0.954,0.179 -1.341,0.536c-0.358,0.358 -0.536,0.79 -0.536,1.296c0,0.507 0.179,0.954 0.536,1.341c0.387,0.358 0.834,0.536 1.341,0.536c0.507,0 0.939,-0.179 1.296,-0.536c0.358,-0.387 0.536,-0.834 0.536,-1.341Z" style="fill:#e0e0e0;fill-rule:nonzero;"/></g></g><g><g id="Layer0_0_MEMBER_0_MEMBER_14_FILL"><path d="M113.421,338.632c0,0.119 0.06,0.179 0.179,0.179l138.18,0c0.119,0 0.179,-0.06 0.179,-0.179c0,-0.149 -0.06,-0.224 -0.179,-0.224l-138.18,0c-0.119,0 -0.179,0.075 -0.179,0.224Z" style="fill:#e0e0e0;fill-rule:nonzero;"/></g></g><g><g id="Layer0_0_MEMBER_0_MEMBER_15_FILL"><path d="M211.635,263.798l-44.123,0.268l0.045,8.941l44.123,-0.224l-0.045,-8.985Z" style="fill:#e0e0e0;fill-rule:nonzero;"/></g></g><g><g id="Layer0_0_MEMBER_0_MEMBER_16_FILL"><path d="M167.736,281.724l0.089,13.992l49.13,-0.268l-0.045,-13.948l-49.174,0.224Z" style="fill:#f5f5f5;fill-rule:nonzero;"/></g></g><g><g id="Layer0_0_MEMBER_0_MEMBER_17_FILL"><path d="M207.522,295.359c0.238,-2.444 0.313,-4.768 0.224,-6.974c0.089,-2.205 0.015,-4.53 -0.224,-6.974c-0.238,1.997 -0.328,4.321 -0.268,6.974c-0.06,2.652 0.03,4.977 0.268,6.974Z" style="fill:#e0e0e0;fill-rule:nonzero;"/></g></g><g><g id="Layer0_0_MEMBER_0_MEMBER_18_FILL"><path d="M209.579,295.359c0.238,-2.444 0.313,-4.768 0.224,-6.974c0.089,-2.205 0.015,-4.53 -0.224,-6.974c-0.238,2.444 -0.313,4.768 -0.224,6.974c-0.089,2.205 -0.015,4.53 0.224,6.974Z" style="fill:#e0e0e0;fill-rule:nonzero;"/></g></g><g><g id="Layer0_0_MEMBER_0_MEMBER_19_FILL"><path d="M175.201,295.359c0.238,-1.997 0.328,-4.321 0.268,-6.974c0.06,-2.652 -0.03,-4.977 -0.268,-6.974c-0.238,2.444 -0.313,4.768 -0.224,6.974c-0.089,2.205 -0.015,4.53 0.224,6.974Z" style="fill:#e0e0e0;fill-rule:nonzero;"/></g></g><g><g id="Layer0_0_MEMBER_0_MEMBER_20_FILL"><path d="M177.302,295.359c0.209,-2.056 0.283,-4.381 0.224,-6.974c0.06,-2.593 -0.015,-4.917 -0.224,-6.974c-0.268,2.325 -0.358,4.649 -0.268,6.974c-0.089,2.325 0,4.649 0.268,6.974Z" style="fill:#e0e0e0;fill-rule:nonzero;"/></g></g><g><g id="Layer0_0_MEMBER_0_MEMBER_21_FILL"><path d="M192.859,288.832c7.421,0 11.131,-0.075 11.131,-0.224c0,-0.149 -3.71,-0.224 -11.131,-0.224c-7.391,0 -11.087,0.075 -11.087,0.224c0,0.149 3.696,0.224 11.087,0.224Z" style="fill:#e0e0e0;fill-rule:nonzero;"/></g></g><g><g id="Layer0_0_MEMBER_0_MEMBER_22_FILL"><path d="M174.71,272.739l0.045,8.985l60.663,-0.313l-0.045,-8.985l-60.663,0.313Z" style="fill:#ebebeb;fill-rule:nonzero;"/></g></g><g><g id="Layer0_0_MEMBER_0_MEMBER_23_FILL"><path d="M226.745,280.294c0.805,0 1.49,-0.283 2.056,-0.849c0.566,-0.566 0.834,-1.252 0.805,-2.056c0,-0.805 -0.283,-1.49 -0.849,-2.056c-0.596,-0.566 -1.282,-0.834 -2.056,-0.805c-0.805,0 -1.49,0.283 -2.056,0.849c-0.566,0.566 -0.849,1.252 -0.849,2.056c0.03,0.805 0.328,1.49 0.894,2.056c0.566,0.566 1.252,0.834 2.056,0.805Z" style="fill:#e0e0e0;fill-rule:nonzero;"/></g></g><g><g id="Layer0_0_MEMBER_0_MEMBER_24_FILL"><rect x="178.286" y="276.494" width="40.591" height="1.833" style="fill:#e0e0e0;fill-rule:nonzero;"/></g></g><g><g id="Layer0_0_MEMBER_0_MEMBER_25_FILL"><path d="M294.471,61.513c-4.977,-12.279 -12.204,-23.157 -21.681,-32.634c-9.477,-9.477 -20.355,-16.704 -32.634,-21.681c-11.891,-4.798 -24.274,-7.197 -37.149,-7.197c-12.875,-0 -25.258,2.399 -37.149,7.197c-12.279,5.007 -23.157,12.234 -32.634,21.681c-9.477,9.477 -16.704,20.355 -21.681,32.634c-4.798,11.891 -7.197,24.274 -7.197,37.149c0,12.845 2.399,25.213 7.197,37.104c4.977,12.279 12.204,23.157 21.681,32.634c9.477,9.477 20.355,16.704 32.634,21.681c11.891,4.828 24.274,7.242 37.149,7.242c12.875,0 25.258,-2.414 37.149,-7.242c12.279,-4.977 23.157,-12.204 32.634,-21.681c9.477,-9.477 16.704,-20.355 21.681,-32.634c4.828,-11.891 7.242,-24.259 7.242,-37.104c0,-12.875 -2.414,-25.258 -7.242,-37.149Z" style="fill:#e0e0e0;fill-rule:nonzero;"/></g></g><g><g id="Layer0_0_MEMBER_0_MEMBER_26_FILL"><path d="M276.188,128.345c3.845,-9.507 5.767,-19.402 5.767,-29.683c0,-10.312 -1.922,-20.221 -5.767,-29.728c-3.994,-9.835 -9.775,-18.537 -17.345,-26.107c-7.57,-7.57 -16.272,-13.352 -26.107,-17.345c-9.507,-3.845 -19.416,-5.767 -29.728,-5.767c-10.312,0 -20.221,1.922 -29.728,5.767c-9.835,3.994 -18.537,9.775 -26.107,17.345c-7.57,7.57 -13.352,16.272 -17.345,26.107c-3.845,9.507 -5.767,19.416 -5.767,29.728c0,10.282 1.922,20.176 5.767,29.683c3.994,9.835 9.775,18.537 17.345,26.107c7.57,7.57 16.272,13.352 26.107,17.345c9.507,3.874 19.416,5.812 29.728,5.812c10.312,0 20.221,-1.937 29.728,-5.812c9.835,-3.994 18.537,-9.775 26.107,-17.345c7.57,-7.57 13.352,-16.272 17.345,-26.107Z" style="fill:#fafafa;fill-rule:nonzero;"/></g></g><g><g id="Layer0_0_MEMBER_0_MEMBER_27_FILL"><path d="M255.49,71.258c-7.57,-14.514 -19.148,-24.215 -34.735,-29.102c-15.587,-4.888 -30.637,-3.547 -45.151,4.023c-14.484,7.54 -24.17,19.103 -29.058,34.69c-4.917,15.617 -3.591,30.667 3.979,45.151c7.57,14.514 19.148,24.215 34.735,29.102c15.617,4.888 30.667,3.547 45.151,-4.023c14.484,-7.54 24.17,-19.118 29.058,-34.735c4.917,-15.587 3.591,-30.622 -3.979,-45.106Z" style="fill:#e0e0e0;fill-rule:nonzero;"/></g></g><g><g id="Layer0_0_MEMBER_0_MEMBER_28_FILL"><path d="M239.888,84.535c-3.904,-10.192 -10.833,-17.509 -20.787,-21.95c-9.954,-4.411 -20.027,-4.679 -30.22,-0.805c-10.163,3.904 -17.464,10.833 -21.905,20.787c-4.441,9.984 -4.709,20.057 -0.805,30.22c3.904,10.192 10.833,17.494 20.787,21.905c9.954,4.441 20.012,4.709 30.175,0.805c10.192,-3.874 17.509,-10.803 21.95,-20.787c4.441,-9.954 4.709,-20.012 0.805,-30.175Z" style="fill:#fafafa;fill-rule:nonzero;"/></g></g><g><g id="Layer0_0_MEMBER_0_MEMBER_29_FILL"><path d="M209.132,79.886c-5.186,-1.699 -10.207,-1.311 -15.065,1.162c-4.858,2.474 -8.136,6.303 -9.835,11.489c-1.669,5.186 -1.282,10.207 1.162,15.065c2.474,4.858 6.303,8.136 11.489,9.835c5.186,1.669 10.207,1.267 15.065,-1.207c4.858,-2.474 8.136,-6.288 9.835,-11.444c1.669,-5.186 1.267,-10.207 -1.207,-15.065c-2.444,-4.858 -6.259,-8.136 -11.444,-9.835Z" style="fill:#e0e0e0;fill-rule:nonzero;"/></g></g><g><g id="Layer0_0_MEMBER_0_MEMBER_30_FILL"><path d="M132.107,37.507l-3.129,3.085l56.685,46.537l-7.019,7.197l27.404,7.242l-11.444,-25.302l-5.499,7.51l-56.998,-46.269Z" style="fill:#ebebeb;fill-rule:nonzero;"/></g></g><g><g id="Layer0_0_MEMBER_0_MEMBER_31_FILL"><path d="M128.978,40.591l3.129,-3.04c0.924,-2.861 0.894,-5.707 -0.089,-8.538c-0.954,-2.831 -2.667,-5.081 -5.141,-6.75l-21.86,-14.976l1.699,16.809l-15.959,2.548l23.738,14.261c2.086,1.252 4.351,1.892 6.795,1.922c2.444,0.03 4.724,-0.551 6.84,-1.743l0.849,-0.492Z" style="fill:#ebebeb;fill-rule:nonzero;"/></g></g><g><g id="Layer0_0_MEMBER_0_MEMBER_32_FILL"><path d="M364.433,336.442l3.845,-4.828c2.384,-3.874 3.189,-7.436 2.414,-10.684c-1.967,2.116 -3.487,4.515 -4.56,7.197c-1.073,2.652 -1.639,5.424 -1.699,8.315Z" style="fill:#ebebeb;fill-rule:nonzero;"/></g></g><g><g id="Layer0_0_MEMBER_0_MEMBER_33_FILL"><path d="M373.463,332.061l5.946,1.565c4.53,0.656 8.121,-0.03 10.774,-2.056c-2.742,-0.954 -5.543,-1.386 -8.404,-1.296c-2.891,0.089 -5.662,0.685 -8.315,1.788Z" style="fill:#ebebeb;fill-rule:nonzero;"/></g></g><g><g id="Layer0_0_MEMBER_0_MEMBER_34_FILL"><path d="M374.536,327.009c0.834,-1.222 1.55,-2.667 2.146,-4.336c1.192,-3.397 1.222,-6.288 0.089,-8.673c-2.414,4.083 -3.159,8.419 -2.235,13.009Z" style="fill:#ebebeb;fill-rule:nonzero;"/></g></g><g><g id="Layer0_0_MEMBER_0_MEMBER_35_FILL"><path d="M341.098,311.184c1.341,1.878 2.787,3.606 4.336,5.186c4.888,5.007 9.701,7.51 14.439,7.51c-1.192,-1.907 -2.936,-3.979 -5.23,-6.214c-4.56,-4.441 -9.611,-7.391 -15.155,-8.851l1.609,2.369Z" style="fill:#ebebeb;fill-rule:nonzero;"/></g></g><g><g id="Layer0_0_MEMBER_0_MEMBER_36_FILL"><path d="M360.633,314.269l1.788,-2.28c1.431,-1.937 2.787,-4.023 4.068,-6.259c4.083,-7.182 6.557,-14.469 7.421,-21.86c-2.325,2.682 -4.619,5.961 -6.884,9.835c-4.53,7.778 -6.661,14.633 -6.393,20.564Z" style="fill:#ebebeb;fill-rule:nonzero;"/></g></g><g><g id="Layer0_0_MEMBER_0_MEMBER_37_FILL"><path d="M360.589,273.633l-3.219,6.795c-1.997,5.275 -2.593,9.805 -1.788,13.59c3.606,-6.318 5.275,-13.113 5.007,-20.385Z" style="fill:#ebebeb;fill-rule:nonzero;"/></g></g><g><g id="Layer0_0_MEMBER_0_MEMBER_38_FILL"><path d="M355.269,302.646c-0.596,-1.341 -1.714,-2.816 -3.353,-4.426c-3.278,-3.248 -7.54,-5.603 -12.785,-7.063l1.073,1.654c0.924,1.311 1.952,2.533 3.085,3.666c3.636,3.636 7.629,5.692 11.981,6.169Z" style="fill:#ebebeb;fill-rule:nonzero;"/></g></g><g><g id="Layer0_0_MEMBER_0_MEMBER_39_FILL"><path d="M338.818,346.813c4.56,-0.089 7.987,-1.341 10.282,-3.755c-2.831,-0.477 -5.662,-0.447 -8.494,0.089c-2.831,0.536 -5.469,1.565 -7.913,3.085l6.124,0.581Z" style="fill:#ebebeb;fill-rule:nonzero;"/></g></g><g><g id="Layer0_0_MEMBER_0_MEMBER_40_FILL"><path d="M359.739,350.926c-1.103,0.507 -2.22,1.222 -3.353,2.146c-2.265,1.818 -3.487,3.725 -3.666,5.722c3.278,-1.729 5.618,-4.351 7.019,-7.868Z" style="fill:#ebebeb;fill-rule:nonzero;"/></g></g><g><g id="Layer0_0_MEMBER_0_MEMBER_41_FILL"><path d="M358.398,349.361c-1.401,-0.328 -2.98,-0.477 -4.739,-0.447c-3.487,0.03 -6.065,0.924 -7.734,2.682c4.411,0.775 8.568,0.03 12.472,-2.235Z" style="fill:#ebebeb;fill-rule:nonzero;"/></g></g><g><g id="Layer0_0_MEMBER_0_MEMBER_42_FILL"><path d="M355.626,299.203c-1.162,-4.232 -1.967,-7.048 -2.414,-8.449l-0.894,-2.861l-0.089,-0.224l0,0.224l3.04,11.4c2.384,9.388 4.306,18.865 5.767,28.432c0.834,5.454 1.46,10.744 1.878,15.87c0.387,5.364 0.626,9.686 0.715,12.964c0.06,1.222 0.089,2.891 0.089,5.007l0,7.019l0.045,-0.179l0.045,-3.04c0.03,-1.52 0.06,-2.772 0.089,-3.755c0.06,-1.49 0.06,-3.159 0,-5.007c-0.06,-4.262 -0.268,-8.613 -0.626,-13.054c-0.447,-5.603 -1.058,-10.893 -1.833,-15.87c-1.431,-9.716 -3.368,-19.208 -5.812,-28.476Z" style="fill:#e0e0e0;fill-rule:nonzero;"/></g></g><g><g id="Layer0_0_MEMBER_0_MEMBER_43_FILL"><path d="M344.585,338.364c-0.089,0.119 2.965,2.31 9.164,6.571c6.139,4.232 9.269,6.288 9.388,6.169c0.089,-0.119 -2.95,-2.31 -9.12,-6.571c-6.199,-4.202 -9.343,-6.259 -9.433,-6.169Z" style="fill:#e0e0e0;fill-rule:nonzero;"/></g></g><g><g id="Layer0_0_MEMBER_0_MEMBER_44_FILL"><path d="M363.807,339.169c-0.298,0.238 -0.522,0.477 -0.671,0.715l9.075,-8.091c2.325,-2.176 4.381,-4.172 6.169,-5.99c0.596,-0.566 1.192,-1.177 1.788,-1.833c0.298,-0.298 0.507,-0.551 0.626,-0.76l-16.987,15.959Z" style="fill:#e0e0e0;fill-rule:nonzero;"/></g></g><g><g id="Layer0_0_MEMBER_0_MEMBER_45_FILL"><path d="M337.879,337.559c2.682,1.46 5.573,2.235 8.673,2.325c-1.907,-3.517 -5.037,-5.946 -9.388,-7.287l-5.99,-0.983c1.758,2.533 3.994,4.515 6.706,5.946Z" style="fill:#ebebeb;fill-rule:nonzero;"/></g></g><g><g id="Layer0_0_MEMBER_0_MEMBER_46_FILL"><path d="M345.926,327.277c-0.089,3.07 0.522,5.99 1.833,8.762c1.311,2.772 3.174,5.111 5.588,7.019c0.566,-3.964 -0.507,-7.778 -3.219,-11.444c-0.834,-1.162 -1.788,-2.235 -2.861,-3.219l-1.341,-1.118Z" style="fill:#ebebeb;fill-rule:nonzero;"/></g></g><g><g id="Layer0_0_MEMBER_0_MEMBER_47_FILL"><path d="M392.15,311.899c-3.427,1.103 -6.408,2.906 -8.941,5.409c-2.563,2.503 -4.411,5.454 -5.543,8.851c4.59,-0.924 8.375,-3.576 11.355,-7.957c1.52,-2.176 2.563,-4.277 3.129,-6.303Z" style="fill:#ebebeb;fill-rule:nonzero;"/></g></g><g><g id="Layer0_0_MEMBER_0_MEMBER_48_FILL"><path d="M341.142,267.017c0.06,4.679 1.162,9.09 3.308,13.232c2.176,4.172 5.156,7.615 8.941,10.327c0.626,-6.08 -1.237,-11.832 -5.588,-17.256c-1.341,-1.669 -2.861,-3.219 -4.56,-4.649l-2.101,-1.654Z" style="fill:#ebebeb;fill-rule:nonzero;"/></g></g><g><g id="Layer0_0_MEMBER_0_MEMBER_49_FILL"><path d="M386.874,346.813c-0.268,0.089 -0.596,0.238 -0.983,0.447c-0.983,0.626 -1.833,1.222 -2.548,1.788c-5.573,4.143 -10.133,9.209 -13.679,15.199l-1.52,2.816l-0.447,1.028c0.268,-0.298 0.477,-0.611 0.626,-0.939l1.609,-2.638c1.818,-2.861 3.859,-5.573 6.124,-8.136c2.146,-2.414 4.619,-4.754 7.421,-7.019c1.55,-1.132 2.384,-1.743 2.503,-1.833l0.894,-0.715Z" style="fill:#e0e0e0;fill-rule:nonzero;"/></g></g><g><g id="Layer0_0_MEMBER_0_MEMBER_50_FILL"><path d="M377.04,351.373c1.311,-3.755 1.654,-7.764 1.028,-12.025c-1.52,2.474 -2.548,5.111 -3.085,7.913c-0.536,2.831 -0.551,5.662 -0.045,8.494c0.775,-1.013 1.475,-2.474 2.101,-4.381Z" style="fill:#ebebeb;fill-rule:nonzero;"/></g></g><g><g id="Layer0_0_MEMBER_0_MEMBER_51_FILL"><path d="M384.192,350.702l3.532,0.402c2.891,-0.03 5.707,-0.775 8.449,-2.235c-4.232,-0.924 -8.226,-0.313 -11.981,1.833Z" style="fill:#ebebeb;fill-rule:nonzero;"/></g></g><g><g id="Layer0_0_MEMBER_0_MEMBER_52_FILL"><path d="M385.757,370.193l-42.066,-0.492l5.141,33.886l29.952,0l6.974,-33.394Z" style="fill:#ebebeb;fill-rule:nonzero;"/></g></g><g><g id="Layer0_0_MEMBER_0_MEMBER_53_FILL"><path d="M364.433,391.249c-11.444,0 -17.166,0.06 -17.166,0.179c0,0.119 5.722,0.179 17.166,0.179c11.414,0 17.122,-0.06 17.122,-0.179c0,-0.119 -5.707,-0.179 -17.122,-0.179Z" style="fill:#fafafa;fill-rule:nonzero;"/></g></g><g><g id="Layer0_0_MEMBER_0_MEMBER_54_FILL"><path d="M364.433,389.639c-11.534,0 -17.3,0.06 -17.3,0.179c0,0.119 5.767,0.179 17.3,0.179c11.504,0 17.256,-0.06 17.256,-0.179c0,-0.119 -5.752,-0.179 -17.256,-0.179Z" style="fill:#fafafa;fill-rule:nonzero;"/></g></g><g><g id="Layer0_0_MEMBER_0_MEMBER_55_FILL"><path d="M364.344,387.672c-11.504,0 -17.256,0.06 -17.256,0.179c0,0.119 5.752,0.179 17.256,0.179c11.534,0 17.3,-0.06 17.3,-0.179c0,-0.119 -5.767,-0.179 -17.3,-0.179Z" style="fill:#fafafa;fill-rule:nonzero;"/></g></g><g><g id="Layer0_0_MEMBER_0_MEMBER_56_FILL"><path d="M350.754,393.082c0.089,1.52 0.283,2.95 0.581,4.292c0.238,1.49 0.551,2.921 0.939,4.292c-0.268,-2.98 -0.775,-5.841 -1.52,-8.583Z" style="fill:#fafafa;fill-rule:nonzero;"/></g></g><g><g id="Layer0_0_MEMBER_0_MEMBER_57_FILL"><path d="M353.749,392.947c0,1.639 0.075,3.04 0.224,4.202c0,1.282 0.119,2.667 0.358,4.157c0.179,-2.682 -0.015,-5.469 -0.581,-8.36Z" style="fill:#fafafa;fill-rule:nonzero;"/></g></g><g><g id="Layer0_0_MEMBER_0_MEMBER_58_FILL"><path d="M357.593,396.971c-0.06,-1.192 -0.253,-2.623 -0.581,-4.292c-0.06,1.609 0.015,3.055 0.224,4.336c0.149,1.49 0.417,2.921 0.805,4.292c-0.089,-1.609 -0.238,-3.055 -0.447,-4.336Z" style="fill:#fafafa;fill-rule:nonzero;"/></g></g><g><g id="Layer0_0_MEMBER_0_MEMBER_59_FILL"><path d="M360.589,397.105c0,-1.311 -0.075,-2.757 -0.224,-4.336c-0.209,1.431 -0.253,2.891 -0.134,4.381c0,1.46 0.134,2.906 0.402,4.336c0.089,-1.222 0.075,-2.682 -0.045,-4.381Z" style="fill:#fafafa;fill-rule:nonzero;"/></g></g><g><g id="Layer0_0_MEMBER_0_MEMBER_60_FILL"><path d="M365.238,397.15c0.03,-1.192 -0.075,-2.563 -0.313,-4.113c-0.089,1.401 -0.089,2.787 0,4.157c0,1.46 0.104,2.831 0.313,4.113c0.149,-1.371 0.149,-2.757 0,-4.157Z" style="fill:#fafafa;fill-rule:nonzero;"/></g></g><g><g id="Layer0_0_MEMBER_0_MEMBER_61_FILL"><path d="M368.814,397.239c0.089,-1.431 0.045,-2.861 -0.134,-4.292c-0.179,1.341 -0.238,2.772 -0.179,4.292c-0.089,1.401 -0.045,2.816 0.134,4.247c0.179,-1.341 0.238,-2.757 0.179,-4.247Z" style="fill:#fafafa;fill-rule:nonzero;"/></g></g><g><g id="Layer0_0_MEMBER_0_MEMBER_62_FILL"><path d="M372.39,396.613c0.238,-1.46 0.328,-2.95 0.268,-4.47c-0.328,1.58 -0.536,3.055 -0.626,4.426c-0.179,1.58 -0.253,3.07 -0.224,4.47c0.298,-1.371 0.492,-2.846 0.581,-4.426Z" style="fill:#fafafa;fill-rule:nonzero;"/></g></g><g><g id="Layer0_0_MEMBER_0_MEMBER_63_FILL"><path d="M376.727,396.837c0.328,-1.311 0.581,-2.548 0.76,-3.71c-0.507,1.103 -0.879,2.325 -1.118,3.666c-0.328,1.311 -0.492,2.578 -0.492,3.8c0.328,-1.103 0.611,-2.354 0.849,-3.755Z" style="fill:#fafafa;fill-rule:nonzero;"/></g></g><g><g id="Layer0_0_MEMBER_0_MEMBER_64_FILL"><path d="M388.618,369.344l0,-6.348l-48.37,0l0,6.348c0,0.685 0.238,1.267 0.715,1.743c0.507,0.477 1.103,0.715 1.788,0.715l43.363,0c0.685,0 1.282,-0.238 1.788,-0.715c0.477,-0.477 0.715,-1.058 0.715,-1.743Z" style="fill:#ebebeb;fill-rule:nonzero;"/></g></g><g><g id="Layer0_0_MEMBER_0_MEMBER_65_FILL"><path d="M384.416,376.675l0.983,-4.873l-41.396,0l0.358,2.056l40.055,2.816Z" style="fill:#e0e0e0;fill-rule:nonzero;"/></g></g><g><g id="Layer0_0_MEMBER_1_MEMBER_0_FILL"><path d="M201.308,404.213c-15.427,0 -29.896,0.075 -43.408,0.224c13.512,0.179 27.981,0.268 43.408,0.268c123.442,0 185.164,-0.075 185.164,-0.224c0,-0.179 -61.721,-0.268 -185.164,-0.268Z" style="fill:#263238;fill-rule:nonzero;"/></g></g><g><g id="Layer0_0_MEMBER_2_MEMBER_0_FILL"><path d="M42.252,141.399c-10.699,-11.563 -24.334,-15.393 -40.904,-11.489l2.146,5.946c2.086,4.679 4.724,8.822 7.913,12.428c10.282,11.474 24.274,15.348 41.977,11.623c-2.056,-6.557 -5.767,-12.726 -11.131,-18.507Z" style="fill:#fff;fill-rule:nonzero;"/></g><path id="Layer0_0_MEMBER_2_MEMBER_0_1_STROKES" d="M1.348,129.91l2.146,5.946c2.086,4.679 4.724,8.822 7.913,12.428c10.282,11.474 24.274,15.348 41.977,11.623c-2.056,-6.557 -5.767,-12.726 -11.131,-18.507c-10.699,-11.563 -24.334,-15.393 -40.904,-11.489Z" style="fill:none;fill-rule:nonzero;stroke:#1b294a;stroke-width:0.27px;"/></g><g><g id="Layer0_0_MEMBER_2_MEMBER_1_FILL"><path d="M73.723,197.86c-3.666,-4.768 -8.568,-8.732 -14.708,-11.891c-12.308,-6.288 -24.677,-5.32 -37.104,2.906l3.576,4.247c3.099,3.219 6.512,5.812 10.237,7.778c11.891,6.348 24.557,5.335 37.998,-3.04Z" style="fill:#fff;fill-rule:nonzero;"/></g><path id="Layer0_0_MEMBER_2_MEMBER_1_1_STROKES" d="M21.912,188.874l3.576,4.247c3.099,3.219 6.512,5.812 10.237,7.778c11.891,6.348 24.557,5.335 37.998,-3.04c-3.666,-4.768 -8.568,-8.732 -14.708,-11.891c-12.308,-6.288 -24.677,-5.32 -37.104,2.906Z" style="fill:none;fill-rule:nonzero;stroke:#1b294a;stroke-width:0.27px;"/></g><g><g id="Layer0_0_MEMBER_2_MEMBER_2_FILL"><path d="M57.898,236.618c4.143,2.414 8.404,4.098 12.785,5.052c14.067,3.07 26.778,-1.654 38.132,-14.171c-5.156,-3.815 -11.34,-6.452 -18.552,-7.913c-14.454,-2.891 -26.867,1.684 -37.238,13.724l4.873,3.308Z" style="fill:#fff;fill-rule:nonzero;"/></g><path id="Layer0_0_MEMBER_2_MEMBER_2_1_STROKES" d="M53.026,233.31l4.873,3.308c4.143,2.414 8.404,4.098 12.785,5.052c14.067,3.07 26.778,-1.654 38.132,-14.171c-5.156,-3.815 -11.34,-6.452 -18.552,-7.913c-14.454,-2.891 -26.867,1.684 -37.238,13.724Z" style="fill:none;fill-rule:nonzero;stroke:#1b294a;stroke-width:0.27px;"/></g><g><g id="Layer0_0_MEMBER_2_MEMBER_3_FILL"><path d="M77.792,142.74c-3.636,2.623 -6.706,5.633 -9.209,9.03c-7.957,10.878 -8.747,23.559 -2.369,38.043c5.752,-3.159 10.625,-7.689 14.618,-13.59c7.391,-10.997 7.942,-23.127 1.654,-36.389l-4.694,2.906Z" style="fill:#fff;fill-rule:nonzero;"/></g><path id="Layer0_0_MEMBER_2_MEMBER_3_1_STROKES" d="M82.485,139.834l-4.694,2.906c-3.636,2.623 -6.706,5.633 -9.209,9.03c-7.957,10.878 -8.747,23.559 -2.369,38.043c5.752,-3.159 10.625,-7.689 14.618,-13.59c7.391,-10.997 7.942,-23.127 1.654,-36.389Z" style="fill:none;fill-rule:nonzero;stroke:#1b294a;stroke-width:0.27px;"/></g><g><g id="Layer0_0_MEMBER_2_MEMBER_4_FILL"><path d="M102.379,207.113c0.954,-9.745 -3.397,-18.18 -13.054,-25.302l-2.101,3.621c-1.46,3.04 -2.399,6.139 -2.816,9.298c-1.341,10.133 2.876,19.014 12.651,26.644c3.04,-4.709 4.813,-9.462 5.32,-14.261Z" style="fill:#fff;fill-rule:nonzero;"/></g><path id="Layer0_0_MEMBER_2_MEMBER_4_1_STROKES" d="M89.325,181.811l-2.101,3.621c-1.46,3.04 -2.399,6.139 -2.816,9.298c-1.341,10.133 2.876,19.014 12.651,26.644c3.04,-4.709 4.813,-9.462 5.32,-14.261c0.954,-9.745 -3.397,-18.18 -13.054,-25.302Z" style="fill:none;fill-rule:nonzero;stroke:#1b294a;stroke-width:0.27px;"/></g><g><g id="Layer0_0_MEMBER_2_MEMBER_5_FILL"><path d="M16.19,90.123c0.268,4.053 1.103,7.853 2.503,11.4c4.47,11.355 13.814,18.09 28.029,20.206c0.268,-5.454 -0.79,-11.072 -3.174,-16.853c-4.828,-11.563 -13.933,-18.15 -27.314,-19.759l-0.045,5.007Z" style="fill:#fff;fill-rule:nonzero;"/></g><path id="Layer0_0_MEMBER_2_MEMBER_5_1_STROKES" d="M16.234,85.116l-0.045,5.007c0.268,4.053 1.103,7.853 2.503,11.4c4.47,11.355 13.814,18.09 28.029,20.206c0.268,-5.454 -0.79,-11.072 -3.174,-16.853c-4.828,-11.563 -13.933,-18.15 -27.314,-19.759Z" style="fill:none;fill-rule:nonzero;stroke:#1b294a;stroke-width:0.27px;"/></g><g><g id="Layer0_0_MEMBER_2_MEMBER_6_FILL"><path d="M61.832,86.368c7.212,-9.596 8.315,-20.653 3.308,-33.17c-4.59,1.907 -8.687,5.171 -12.294,9.79c-7.182,9.209 -8.285,20.549 -3.308,34.02c4.619,-2.295 8.717,-5.841 12.294,-10.64Z" style="fill:#fff;fill-rule:nonzero;"/></g><path id="Layer0_0_MEMBER_2_MEMBER_6_1_STROKES" d="M65.14,53.198c-4.59,1.907 -8.687,5.171 -12.294,9.79c-7.182,9.209 -8.285,20.549 -3.308,34.02c4.619,-2.295 8.717,-5.841 12.294,-10.64c7.212,-9.596 8.315,-20.653 3.308,-33.17Z" style="fill:none;fill-rule:nonzero;stroke:#1b294a;stroke-width:0.27px;"/></g><g><g id="Layer0_0_MEMBER_2_MEMBER_7_FILL"><path d="M48.466,143.142c6.229,-1.103 12.279,-3.755 18.15,-7.957c11.772,-8.434 16.824,-20.4 15.155,-35.897c-6.08,0.685 -12.025,3.04 -17.837,7.063c-11.653,7.987 -16.809,20.251 -15.468,36.791Z" style="fill:#fff;fill-rule:nonzero;"/></g><path id="Layer0_0_MEMBER_2_MEMBER_7_1_STROKES" d="M81.77,99.287c-6.08,0.685 -12.025,3.04 -17.837,7.063c-11.653,7.987 -16.809,20.251 -15.468,36.791c6.229,-1.103 12.279,-3.755 18.15,-7.957c11.772,-8.434 16.824,-20.4 15.155,-35.897Z" style="fill:none;fill-rule:nonzero;stroke:#1b294a;stroke-width:0.27px;"/></g><g><g id="Layer0_0_MEMBER_2_MEMBER_8_FILL"><path d="M50.746,92.045l-1.743,7.108c-3.368,16.451 -3.293,32.902 0.224,49.353l3.308,12.562l2.325,6.437c0.089,0.238 0.387,0.954 0.894,2.146l5.007,10.729l3.576,6.259l8.091,11.489c3.636,4.619 7.57,8.956 11.802,13.009c7.153,6.855 15.125,12.666 23.917,17.435c5.961,3.159 12.115,5.692 18.463,7.6c0.775,0.238 2.533,0.715 5.275,1.431l1.386,0.313l0.447,0.045l-1.833,-0.492c-2.176,-0.566 -3.919,-1.058 -5.23,-1.475c-6.318,-1.937 -12.443,-4.515 -18.373,-7.734c-8.732,-4.768 -16.66,-10.58 -23.782,-17.435c-4.202,-3.994 -8.136,-8.315 -11.802,-12.964l-8.047,-11.489l-4.605,-8.404l-4.873,-10.64c-0.209,-0.477 -0.462,-1.192 -0.76,-2.146l-3.397,-10.595c-0.119,-0.387 -0.283,-1.073 -0.492,-2.056l-0.939,-4.157c-2.086,-9.686 -2.965,-19.461 -2.638,-29.326c0.238,-6.795 0.969,-13.411 2.19,-19.849l1.609,-7.153Z" style="fill:#263238;fill-rule:nonzero;"/></g></g><g><g id="Layer0_0_MEMBER_2_MEMBER_9_FILL"><path d="M93.304,202.196l-0.402,-2.369c0,-0.268 -0.045,-0.566 -0.134,-0.894c-0.03,0.328 -0.03,0.641 0,0.939c0,0.238 0.089,1.043 0.268,2.414c0.209,1.997 0.626,4.634 1.252,7.913c0.536,2.712 1.132,5.305 1.788,7.778l0.671,2.369l0.313,0.805c0,-0.298 -0.045,-0.611 -0.134,-0.939l-0.536,-2.325c-0.656,-2.682 -1.222,-5.29 -1.699,-7.823c-0.447,-2.146 -0.909,-4.768 -1.386,-7.868Z" style="fill:#263238;fill-rule:nonzero;"/></g></g><g><g id="Layer0_0_MEMBER_2_MEMBER_10_FILL"><path d="M104.39,228.258l3.353,-0.358c-0.298,-0.03 -0.611,-0.03 -0.939,0c-0.924,0 -1.729,0.03 -2.414,0.089c-2.354,0.089 -5.052,0.313 -8.091,0.671c-2.95,0.328 -5.618,0.73 -8.002,1.207l-2.369,0.492c-0.209,0 -0.522,0.06 -0.939,0.179c0.268,0.03 0.581,0 0.939,-0.089l2.414,-0.313c2.801,-0.417 5.469,-0.775 8.002,-1.073c2.563,-0.298 5.245,-0.566 8.047,-0.805Z" style="fill:#263238;fill-rule:nonzero;"/></g></g><g><g id="Layer0_0_MEMBER_2_MEMBER_11_FILL"><path d="M69.387,197.323l2.772,0.805c0.358,0.149 0.715,0.238 1.073,0.268c-0.298,-0.179 -0.641,-0.313 -1.028,-0.402c-0.477,-0.209 -1.401,-0.522 -2.772,-0.939c-2.712,-0.864 -5.826,-1.729 -9.343,-2.593c-3.517,-0.834 -6.691,-1.49 -9.522,-1.967l-2.95,-0.447c-0.298,-0.089 -0.641,-0.134 -1.028,-0.134c0.387,0.149 0.73,0.238 1.028,0.268l2.906,0.581c2.742,0.507 5.901,1.192 9.477,2.056c2.444,0.596 5.573,1.431 9.388,2.503Z" style="fill:#263238;fill-rule:nonzero;"/></g></g><g><g id="Layer0_0_MEMBER_2_MEMBER_12_FILL"><path d="M73.947,163.169l0.536,-1.073c-0.149,0.149 -0.373,0.462 -0.671,0.939l-1.52,2.772c-3.248,6.288 -5.171,12.964 -5.767,20.027l-0.179,4.336l0.134,-1.162c0,-0.596 0.104,-1.654 0.313,-3.174c0.775,-7.004 2.682,-13.635 5.722,-19.893c0.656,-1.371 1.132,-2.295 1.431,-2.772Z" style="fill:#263238;fill-rule:nonzero;"/></g></g><g><g id="Layer0_0_MEMBER_2_MEMBER_13_FILL"><path d="M33.088,144.394c-0.298,-0.209 -0.611,-0.358 -0.939,-0.447l3.174,2.101c2.652,1.758 5.126,3.576 7.421,5.454c2.295,1.848 4.59,3.889 6.884,6.124l1.967,1.967c0.149,0.179 0.402,0.417 0.76,0.715c-0.149,-0.268 -0.358,-0.536 -0.626,-0.805l-1.878,-2.101c-2.235,-2.265 -4.5,-4.336 -6.795,-6.214c-2.444,-1.997 -4.962,-3.785 -7.555,-5.364l-2.414,-1.431Z" style="fill:#263238;fill-rule:nonzero;"/></g></g><g><g id="Layer0_0_MEMBER_2_MEMBER_14_FILL"><path d="M71.756,115.47l0.268,-0.358l-0.313,0.224l-3.666,3.442c-2.921,2.861 -5.886,6.065 -8.896,9.611c-2.921,3.397 -5.603,6.825 -8.047,10.282c-0.626,0.924 -1.371,2.012 -2.235,3.263l-0.76,1.252l3.219,-4.336c2.652,-3.547 5.364,-6.944 8.136,-10.192c2.176,-2.533 5.096,-5.752 8.762,-9.656l3.532,-3.532Z" style="fill:#263238;fill-rule:nonzero;"/></g></g><g><g id="Layer0_0_MEMBER_2_MEMBER_15_FILL"><path d="M28.93,96.248c-0.358,-0.417 -0.656,-0.715 -0.894,-0.894c0.268,0.417 0.536,0.745 0.805,0.983l2.19,2.638c2.086,2.414 4.396,5.379 6.929,8.896c2.235,3.189 4.306,6.348 6.214,9.477l2.414,3.979c-0.119,-0.328 -0.298,-0.715 -0.536,-1.162c-0.507,-1.013 -1.058,-2.012 -1.654,-2.995c-1.818,-3.189 -3.859,-6.363 -6.124,-9.522c-2.235,-3.159 -4.575,-6.11 -7.019,-8.851c-0.775,-0.924 -1.55,-1.773 -2.325,-2.548Z" style="fill:#263238;fill-rule:nonzero;"/></g></g><g><g id="Layer0_0_MEMBER_2_MEMBER_16_FILL"><path d="M59.329,69.872l1.699,-4.47c-0.209,0.328 -0.387,0.715 -0.536,1.162l-1.431,3.219c-1.46,3.457 -2.876,7.048 -4.247,10.774c-1.699,4.649 -2.965,8.315 -3.8,10.997l-1.028,3.353c-0.179,0.536 -0.283,0.954 -0.313,1.252l1.654,-4.56c2.265,-6.348 3.561,-9.984 3.889,-10.908c0.983,-2.682 2.354,-6.288 4.113,-10.818Z" style="fill:#263238;fill-rule:nonzero;"/></g></g><g><g id="Layer0_0_MEMBER_2_MEMBER_17_FILL"><path d="M361.393,135.855c-3.338,3.636 -6.199,7.808 -8.583,12.517l-2.548,6.035c17.703,3.696 31.695,-0.194 41.977,-11.668c5.126,-5.752 8.479,-11.876 10.058,-18.373c-16.54,-3.904 -30.175,-0.075 -40.904,11.489Z" style="fill:#fff;fill-rule:nonzero;"/></g><path id="Layer0_0_MEMBER_2_MEMBER_17_1_STROKES" d="M402.297,124.366c-1.58,6.497 -4.932,12.621 -10.058,18.373c-10.282,11.474 -24.274,15.363 -41.977,11.668l2.548,-6.035c2.384,-4.709 5.245,-8.881 8.583,-12.517c10.729,-11.563 24.364,-15.393 40.904,-11.489Z" style="fill:none;fill-rule:nonzero;stroke:#1b294a;stroke-width:0.27px;"/></g><g><g id="Layer0_0_MEMBER_2_MEMBER_18_FILL"><path d="M367.92,195.401c5.961,-3.189 10.565,-7.212 13.814,-12.07c-12.398,-8.196 -24.751,-9.164 -37.06,-2.906c-3.845,1.967 -7.466,4.53 -10.863,7.689l-3.889,4.202c13.441,8.404 26.107,9.433 37.998,3.085Z" style="fill:#fff;fill-rule:nonzero;"/></g><path id="Layer0_0_MEMBER_2_MEMBER_18_1_STROKES" d="M381.733,183.331c-3.248,4.858 -7.853,8.881 -13.814,12.07c-11.891,6.348 -24.557,5.32 -37.998,-3.085l3.889,-4.202c3.397,-3.159 7.019,-5.722 10.863,-7.689c12.308,-6.259 24.662,-5.29 37.06,2.906Z" style="fill:none;fill-rule:nonzero;stroke:#1b294a;stroke-width:0.27px;"/></g><g><g id="Layer0_0_MEMBER_2_MEMBER_19_FILL"><path d="M313.426,214.042c-4.53,0.894 -8.985,2.474 -13.366,4.739l-5.23,3.174c11.385,12.517 24.095,17.241 38.132,14.171c7.033,-1.52 12.919,-4.306 17.658,-8.36c-10.342,-12.04 -22.739,-16.615 -37.194,-13.724Z" style="fill:#fff;fill-rule:nonzero;"/></g><path id="Layer0_0_MEMBER_2_MEMBER_19_1_STROKES" d="M350.62,227.766c-4.739,4.053 -10.625,6.84 -17.658,8.36c-14.037,3.07 -26.748,-1.654 -38.132,-14.171l5.23,-3.174c4.381,-2.265 8.836,-3.845 13.366,-4.739c14.454,-2.891 26.852,1.684 37.194,13.724Z" style="fill:none;fill-rule:nonzero;stroke:#1b294a;stroke-width:0.27px;"/></g><g><g id="Layer0_0_MEMBER_2_MEMBER_20_FILL"><path d="M321.16,134.291c-6.259,13.292 -5.692,25.422 1.699,36.389c3.934,5.812 8.792,10.342 14.573,13.59c6.378,-14.484 5.588,-27.165 -2.369,-38.043c-2.503,-3.397 -5.573,-6.408 -9.209,-9.03l-4.694,-2.906Z" style="fill:#fff;fill-rule:nonzero;"/></g><path id="Layer0_0_MEMBER_2_MEMBER_20_1_STROKES" d="M321.16,134.291l4.694,2.906c3.636,2.623 6.706,5.633 9.209,9.03c7.957,10.878 8.747,23.559 2.369,38.043c-5.782,-3.248 -10.64,-7.778 -14.573,-13.59c-7.391,-10.967 -7.957,-23.097 -1.699,-36.389Z" style="fill:none;fill-rule:nonzero;stroke:#1b294a;stroke-width:0.27px;"/></g><g><g id="Layer0_0_MEMBER_2_MEMBER_21_FILL"><path d="M301.266,201.57c0.507,4.798 2.28,9.552 5.32,14.261c9.775,-7.629 13.992,-16.511 12.651,-26.644c-0.417,-3.159 -1.356,-6.259 -2.816,-9.298l-2.101,-3.621c-9.656,7.123 -14.007,15.557 -13.054,25.302Z" style="fill:#fff;fill-rule:nonzero;"/></g><path id="Layer0_0_MEMBER_2_MEMBER_21_1_STROKES" d="M314.32,176.268l2.101,3.621c1.46,3.04 2.399,6.139 2.816,9.298c1.341,10.133 -2.876,19.014 -12.651,26.644c-3.04,-4.709 -4.813,-9.462 -5.32,-14.261c-0.954,-9.745 3.397,-18.18 13.054,-25.302Z" style="fill:none;fill-rule:nonzero;stroke:#1b294a;stroke-width:0.27px;"/></g><g><g id="Layer0_0_MEMBER_2_MEMBER_22_FILL"><path d="M387.456,84.58l-0.045,-5.007c-13.381,1.639 -22.471,8.24 -27.269,19.804c-2.384,5.752 -3.442,11.355 -3.174,16.809c14.186,-2.116 23.514,-8.851 27.985,-20.206c1.401,-3.547 2.235,-7.346 2.503,-11.4Z" style="fill:#fff;fill-rule:nonzero;"/></g><path id="Layer0_0_MEMBER_2_MEMBER_22_1_STROKES" d="M387.411,79.573l0.045,5.007c-0.268,4.053 -1.103,7.853 -2.503,11.4c-4.47,11.355 -13.799,18.09 -27.985,20.206c-0.268,-5.454 0.79,-11.057 3.174,-16.809c4.798,-11.563 13.888,-18.165 27.269,-19.804Z" style="fill:none;fill-rule:nonzero;stroke:#1b294a;stroke-width:0.27px;"/></g><g><g id="Layer0_0_MEMBER_2_MEMBER_23_FILL"><path d="M338.55,47.61c-5.007,12.547 -3.919,23.619 3.263,33.215c3.606,4.798 7.719,8.345 12.338,10.64c5.007,-13.471 3.904,-24.826 -3.308,-34.064c-2.235,-2.861 -4.962,-5.35 -8.181,-7.466l-4.113,-2.325Z" style="fill:#fff;fill-rule:nonzero;"/></g><path id="Layer0_0_MEMBER_2_MEMBER_23_1_STROKES" d="M338.55,47.61l4.113,2.325c3.219,2.116 5.946,4.605 8.181,7.466c7.212,9.239 8.315,20.594 3.308,34.064c-4.619,-2.295 -8.732,-5.841 -12.338,-10.64c-7.182,-9.596 -8.27,-20.668 -3.263,-33.215Z" style="fill:none;fill-rule:nonzero;stroke:#1b294a;stroke-width:0.27px;"/></g><g><g id="Layer0_0_MEMBER_2_MEMBER_24_FILL"><path d="M327.508,94.996l-5.633,-1.252c-1.669,15.527 3.383,27.493 15.155,35.897c5.901,4.232 11.951,6.899 18.15,8.002c1.311,-16.57 -3.845,-28.849 -15.468,-36.836c-3.636,-2.503 -7.704,-4.441 -12.204,-5.812Z" style="fill:#fff;fill-rule:nonzero;"/></g><path id="Layer0_0_MEMBER_2_MEMBER_24_1_STROKES" d="M321.875,93.744l5.633,1.252c4.5,1.371 8.568,3.308 12.204,5.812c11.623,7.987 16.779,20.266 15.468,36.836c-6.199,-1.103 -12.249,-3.77 -18.15,-8.002c-11.772,-8.404 -16.824,-20.37 -15.155,-35.897Z" style="fill:none;fill-rule:nonzero;stroke:#1b294a;stroke-width:0.27px;"/></g><g><g id="Layer0_0_MEMBER_2_MEMBER_25_FILL"><path d="M357.012,113.459c-0.209,-6.527 -0.983,-13.143 -2.325,-19.849l-1.788,-7.153l1.609,7.153c1.282,6.676 2.027,13.292 2.235,19.849c0.268,9.954 -0.626,19.759 -2.682,29.415l-3.353,12.562l-1.52,4.247c-0.387,1.132 -0.641,1.848 -0.76,2.146l-2.772,6.393c-0.149,0.328 -0.849,1.743 -2.101,4.247l-4.605,8.404l-8.002,11.489c-3.666,4.619 -7.585,8.926 -11.757,12.919c-7.182,6.855 -15.125,12.666 -23.827,17.435c-5.871,3.189 -11.996,5.767 -18.373,7.734c-1.311,0.417 -3.055,0.909 -5.23,1.475l-1.833,0.492l0.447,-0.045l1.341,-0.358c1.967,-0.447 3.725,-0.909 5.275,-1.386c6.437,-1.937 12.592,-4.485 18.463,-7.644c8.792,-4.739 16.764,-10.55 23.917,-17.435c4.321,-4.083 8.27,-8.404 11.847,-12.964l8.047,-11.489l4.649,-8.449c0.149,-0.328 0.849,-1.743 2.101,-4.247l5.052,-12.875l3.308,-12.562c2.086,-9.596 2.965,-19.431 2.638,-29.505Z" style="fill:#263238;fill-rule:nonzero;"/></g></g><g><g id="Layer0_0_MEMBER_2_MEMBER_26_FILL"><path d="M310.878,193.434c-0.089,0.268 -0.134,0.566 -0.134,0.894l-0.402,2.369c-0.447,2.921 -0.909,5.543 -1.386,7.868c-0.387,2.116 -0.939,4.724 -1.654,7.823l-0.715,3.263c0.179,-0.328 0.283,-0.611 0.313,-0.849l0.671,-2.325c0.715,-2.682 1.311,-5.29 1.788,-7.823c0.477,-2.325 0.909,-4.962 1.296,-7.913l0.224,-2.369c0.06,-0.298 0.06,-0.611 0,-0.939Z" style="fill:#263238;fill-rule:nonzero;"/></g></g><g><g id="Layer0_0_MEMBER_2_MEMBER_27_FILL"><path d="M296.841,222.357c-0.298,-0.03 -0.596,-0.03 -0.894,0l3.353,0.358c2.682,0.238 5.35,0.507 8.002,0.805c2.772,0.328 5.439,0.685 8.002,1.073l3.353,0.447c-0.179,-0.089 -0.477,-0.164 -0.894,-0.224l-2.414,-0.492c-2.414,-0.417 -5.081,-0.82 -8.002,-1.207c-3.01,-0.358 -5.692,-0.581 -8.047,-0.671c-0.685,-0.06 -1.505,-0.089 -2.459,-0.089Z" style="fill:#263238;fill-rule:nonzero;"/></g></g><g><g id="Layer0_0_MEMBER_2_MEMBER_28_FILL"><path d="M357.102,186.415c-0.477,0 -0.834,0.03 -1.073,0.089l-2.95,0.447c-3.308,0.536 -6.482,1.192 -9.522,1.967c-3.517,0.864 -6.631,1.729 -9.343,2.593l-3.8,1.341l1.073,-0.224l2.816,-0.849c3.815,-1.073 6.944,-1.907 9.388,-2.503c3.397,-0.775 6.557,-1.46 9.477,-2.056l3.934,-0.805Z" style="fill:#263238;fill-rule:nonzero;"/></g></g><g><g id="Layer0_0_MEMBER_2_MEMBER_29_FILL"><path d="M329.162,156.553l1.967,3.889c3.07,6.348 4.992,12.994 5.767,19.938c0.179,1.729 0.268,2.772 0.268,3.129c0,0.387 0.045,0.775 0.134,1.162c0.06,-0.417 0.06,-0.805 0,-1.162c0,-0.924 -0.06,-1.982 -0.179,-3.174c-0.566,-6.974 -2.474,-13.65 -5.722,-20.027c-0.596,-1.162 -1.118,-2.086 -1.565,-2.772c-0.149,-0.328 -0.373,-0.656 -0.671,-0.983Z" style="fill:#263238;fill-rule:nonzero;"/></g></g><g><g id="Layer0_0_MEMBER_2_MEMBER_30_FILL"><path d="M368.144,140.281c-2.623,1.609 -5.126,3.397 -7.51,5.364c-2.295,1.818 -4.575,3.889 -6.84,6.214l-1.833,2.101c-0.268,0.268 -0.477,0.536 -0.626,0.805l2.727,-2.682c1.878,-1.878 4.157,-3.919 6.84,-6.124c2.503,-2.027 4.977,-3.845 7.421,-5.454l2.369,-1.52c0.447,-0.298 0.715,-0.492 0.805,-0.581l-0.939,0.447l-2.414,1.431Z" style="fill:#263238;fill-rule:nonzero;"/></g></g><g><g id="Layer0_0_MEMBER_2_MEMBER_31_FILL"><path d="M331.665,109.569l0.224,0.358l3.532,3.576c3.368,3.517 6.303,6.72 8.807,9.611c3.099,3.696 5.797,7.108 8.091,10.237l2.995,4.023l0.268,0.268l-0.76,-1.252c-1.013,-1.431 -1.758,-2.518 -2.235,-3.263c-2.593,-3.606 -5.275,-7.033 -8.047,-10.282c-3.129,-3.636 -6.095,-6.825 -8.896,-9.567l-3.979,-3.71Z" style="fill:#263238;fill-rule:nonzero;"/></g></g><g><g id="Layer0_0_MEMBER_2_MEMBER_32_FILL"><path d="M375.654,89.855l-3.219,3.397c-2.325,2.593 -4.664,5.543 -7.019,8.851c-2.265,3.159 -4.306,6.333 -6.124,9.522l-1.654,3.04c-0.209,0.328 -0.387,0.7 -0.536,1.118l2.414,-3.979c2.205,-3.576 4.277,-6.72 6.214,-9.433c2.444,-3.368 4.754,-6.348 6.929,-8.941l2.995,-3.576Z" style="fill:#263238;fill-rule:nonzero;"/></g></g><g><g id="Layer0_0_MEMBER_2_MEMBER_33_FILL"><path d="M342.618,59.903l5.856,15.289c0.328,0.924 1.624,4.56 3.889,10.908l1.609,4.515c-0.03,-0.298 -0.134,-0.715 -0.313,-1.252l-1.028,-3.353c-1.132,-3.547 -2.399,-7.197 -3.8,-10.952c-1.431,-3.934 -2.846,-7.54 -4.247,-10.818l-1.967,-4.336Z" style="fill:#263238;fill-rule:nonzero;"/></g></g><g><g id="Layer0_0_MEMBER_3_MEMBER_0_FILL"><path d="M170.91,294.018l-4.113,14.484l54.047,18.552c5.305,1.848 10.625,1.907 15.959,0.179c5.364,-1.729 9.656,-4.903 12.875,-9.522l0.626,-0.894c1.997,-3.248 2.593,-8.717 1.788,-16.406l-1.788,-10.595l-7.644,-1.609l-37.06,10.103l-34.69,-4.292Z" style="fill:#fff;fill-rule:nonzero;"/></g><path id="Layer0_0_MEMBER_3_MEMBER_0_1_STROKES" d="M250.304,289.816l1.788,10.595c0.805,7.689 0.209,13.158 -1.788,16.406l-0.626,0.894c-3.219,4.619 -7.51,7.793 -12.875,9.522c-5.335,1.729 -10.654,1.669 -15.959,-0.179l-54.047,-18.552l4.113,-14.484l34.69,4.292l37.06,-10.103l7.644,1.609Z" style="fill:none;fill-rule:nonzero;stroke:#1b294a;stroke-width:0.27px;"/></g><g><g id="Layer0_0_MEMBER_3_MEMBER_1_MEMBER_0_FILL"><path d="M216.642,319.32l-3.129,4.426c-2.444,3.934 -4.575,8.3 -6.393,13.098c-0.507,1.371 -1.132,4.411 -1.878,9.12c-0.894,5.752 -1.624,9.805 -2.19,12.159c-2.503,10.342 -5.633,21.443 -9.388,33.304l14.663,6.75c5.573,-10.55 11.191,-21.622 16.853,-33.215c11.295,-23.127 17.122,-37.209 17.479,-42.245l-16.451,-62.496l-33.126,10.64l23.559,48.459Z" style="fill:#fff;fill-rule:nonzero;"/></g></g><g><path id="Layer0_0_MEMBER_3_MEMBER_1_MEMBER_1_1_STROKES" d="M242.66,322.718c-0.358,5.037 -6.184,19.118 -17.479,42.245c-5.662,11.593 -11.28,22.665 -16.853,33.215l-14.663,-6.75c3.755,-11.861 6.884,-22.963 9.388,-33.304c0.566,-2.354 1.296,-6.408 2.19,-12.159c0.745,-4.709 1.371,-7.749 1.878,-9.12c1.818,-4.798 3.949,-9.164 6.393,-13.098l3.129,-4.426l-23.559,-48.459l33.126,-10.64" style="fill:none;fill-rule:nonzero;stroke:#1b294a;stroke-width:0.27px;"/></g><g><g id="Layer0_0_MEMBER_3_MEMBER_2_FILL"><path d="M176.677,235.277c-1.103,6.884 -0.924,13.098 0.536,18.642c1.46,5.543 8.032,18.493 19.714,38.848c5.841,10.192 11.534,19.819 17.077,28.879l38.49,-22.263c-0.238,-8.077 -1.043,-17.286 -2.414,-27.627c-2.742,-20.683 -6.914,-36.657 -12.517,-47.923l-58.786,2.772l-2.101,8.673Z" style="fill:#1b2d54;fill-rule:nonzero;"/></g></g><g><g id="Layer0_0_MEMBER_3_MEMBER_3_FILL"><path d="M242.347,305.149c-0.03,0 0.164,0.611 0.581,1.833c0.447,1.46 0.745,3.099 0.894,4.917c0.209,2.295 0.119,4.768 -0.268,7.421c-0.268,1.729 -0.566,3.174 -0.894,4.336c-0.387,1.371 -0.864,2.861 -1.431,4.47c-1.52,4.232 -3.561,9.403 -6.124,15.512l-2.459,5.901l-0.134,0.447l0.224,-0.402l2.682,-5.856c2.474,-5.603 4.575,-10.759 6.303,-15.468c0.596,-1.788 1.073,-3.308 1.431,-4.56c0.358,-1.55 0.626,-3.01 0.805,-4.381c0.387,-2.384 0.462,-4.888 0.224,-7.51c-0.179,-1.758 -0.551,-3.412 -1.118,-4.962l-0.492,-1.296l-0.224,-0.402Z" style="fill:#1b2d54;fill-rule:nonzero;"/></g></g><g><g id="Layer0_0_MEMBER_3_MEMBER_4_FILL"><path d="M214.809,321.734l-1.967,2.95c-2.176,3.368 -3.934,6.87 -5.275,10.505c-1.252,3.696 -2.146,7.51 -2.682,11.444l-0.402,3.532c-0.06,0.298 -0.089,0.73 -0.089,1.296c0.089,-0.268 0.164,-0.685 0.224,-1.252l0.581,-3.532c0.656,-4.053 1.58,-7.823 2.772,-11.31c1.401,-3.696 3.114,-7.197 5.141,-10.505l2.503,-4.157c-0.298,0.298 -0.566,0.641 -0.805,1.028Z" style="fill:#1b2d54;fill-rule:nonzero;"/></g></g><g><g id="Layer0_0_MEMBER_3_MEMBER_5_FILL"><path d="M229.74,256.958c-0.387,-1.013 -1.013,-2.563 -1.878,-4.649l-0.581,-1.252c-0.06,-0.179 -0.134,-0.313 -0.224,-0.402l2.369,6.348c2.056,5.513 3.919,10.669 5.588,15.468c1.639,4.858 3.323,10.058 5.052,15.602l1.878,6.08l0.179,0.447l-1.699,-6.571c-1.52,-5.245 -3.174,-10.461 -4.962,-15.646c-1.967,-5.662 -3.874,-10.803 -5.722,-15.423Z" style="fill:#fff;fill-rule:nonzero;"/></g></g><g><g id="Layer0_0_MEMBER_3_MEMBER_6_FILL"><path d="M198.447,250.074c1.639,0 3.04,0.075 4.202,0.224c1.52,0.149 3.204,0.447 5.052,0.894c1.937,0.596 3.547,1.177 4.828,1.743c1.132,0.477 2.369,1.118 3.71,1.922c1.341,0.805 2.414,1.505 3.219,2.101c-0.238,-0.298 -0.492,-0.522 -0.76,-0.671c-0.775,-0.685 -1.535,-1.252 -2.28,-1.699c-1.341,-0.834 -2.578,-1.52 -3.71,-2.056c-1.639,-0.745 -3.278,-1.326 -4.917,-1.743c-1.639,-0.447 -3.338,-0.76 -5.096,-0.939c-1.52,-0.149 -2.936,-0.179 -4.247,-0.089c-1.073,0.06 -2.027,0.164 -2.861,0.313c-0.298,0 -0.641,0.075 -1.028,0.224c0.03,0.06 1.326,-0.015 3.889,-0.224Z" style="fill:#fff;fill-rule:nonzero;"/></g></g><g><g id="Layer0_0_MEMBER_3_MEMBER_7_FILL"><path d="M174.218,150.205c-2.056,0.864 -3.472,2.31 -4.247,4.336l-11.4,28.968l-24.766,-16.63l-9.343,12.696l16.585,14.216c11.742,9.388 19.312,13.903 22.71,13.545c3.219,-0.328 6.497,-2.652 9.835,-6.974c2.325,-3.07 4.515,-6.884 6.571,-11.444l4.694,19.536l-3.889,9.298c-2.712,8.077 -4.381,16.719 -5.007,25.928l48.951,1.878c1.52,0.06 2.98,-0.224 4.381,-0.849c1.401,-0.626 2.578,-1.535 3.532,-2.727l9.298,-11.355c-1.46,-3.636 -2.906,-7.54 -4.336,-11.712c-2.891,-8.315 -4.277,-13.799 -4.157,-16.451c0.06,-1.282 0.492,-3.01 1.296,-5.186c1.073,-2.742 1.892,-4.947 2.459,-6.616c2.176,-6.557 2.876,-13.411 2.101,-20.564c-0.864,-7.898 -1.937,-16.198 -3.219,-24.9l-1.699,-10.729l-14.261,3.487l-2.459,-3.487l-23.559,5.588l-3.71,3.487l-16.362,6.661Z" style="fill:#ffca00;fill-rule:nonzero;"/></g></g><g><g id="Layer0_0_MEMBER_3_MEMBER_8_FILL"><path d="M283.698,82.345l-15.736,-6.571l-8.941,37.685l-24.811,21.637l-6.303,2.861l10.505,23.738l20.161,-17.032c13.62,-12.159 20.832,-20.251 21.637,-24.274c0.834,-4.053 1.669,-11.608 2.503,-22.665l0.983,-15.378Z" style="fill:#ffca00;fill-rule:nonzero;"/></g></g><g><g id="Layer0_0_MEMBER_3_MEMBER_9_FILL"><path d="M236.535,143.768c-0.06,0.298 -0.06,0.581 0,0.849l0.179,2.369c0.119,1.758 0.387,4.366 0.805,7.823l1.028,7.778c0.119,1.252 0.283,2.325 0.492,3.219c0.03,-0.298 0.03,-0.596 0,-0.894l-2.012,-17.926c-0.089,-1.013 -0.253,-2.086 -0.492,-3.219Z" style="fill:#263238;fill-rule:nonzero;"/></g></g><g><g id="Layer0_0_MEMBER_3_MEMBER_10_FILL"><path d="M188.97,156.955l0,0.268l0.268,-0.045c0.562,-0.107 1.427,-0.256 2.593,-0.447l-1.609,2.861l-0.089,0.134l0.089,0.089l28.923,34.109l0.492,0.447l-29.013,-34.735l1.967,-3.442l-0.447,0.089c-1.218,0.156 -2.142,0.29 -2.772,0.402l1.341,-12.785l-1.743,13.054Z" style="fill:#263238;fill-rule:nonzero;"/></g></g><g><g id="Layer0_0_MEMBER_3_MEMBER_11_FILL"><path d="M223.258,142.65l-3.085,-5.052l-0.402,-0.447l-0.134,-0.179l0.402,0.715c0.179,0.298 0.581,0.954 1.207,1.967l1.788,3.174c1.143,1.932 1.933,3.228 2.369,3.889l-2.593,1.565l3.532,0.849c0.714,3.957 1.027,8.144 0.939,12.562c-0.089,3.785 -0.432,7.689 -1.028,11.712c-0.507,3.338 -1.028,6.512 -1.565,9.522l-1.341,8.181c-0.06,0.268 -0.075,0.462 -0.045,0.581l1.699,-8.717c0.745,-3.696 1.311,-6.855 1.699,-9.477c0.626,-3.934 0.983,-7.868 1.073,-11.802c0.089,-4.232 -0.253,-8.509 -1.028,-12.83l0,-0.134l-0.134,0l-2.772,-0.626l1.922,-1.162l0.179,-0.089l-0.134,-0.179c-0.089,-0.119 -0.939,-1.46 -2.548,-4.023Z" style="fill:#263238;fill-rule:nonzero;"/></g></g><g><g id="Layer0_0_MEMBER_3_MEMBER_12_FILL"><path d="M223.437,202.866c-2.533,1.073 -4.903,1.997 -7.108,2.772c-2.414,0.834 -4.828,1.609 -7.242,2.325c-0.954,0.209 -1.967,0.507 -3.04,0.894c0.268,0.03 0.551,0 0.849,-0.089l2.235,-0.447c5.037,-1.222 9.85,-2.921 14.439,-5.096l2.772,-1.52c-0.924,0.298 -1.892,0.685 -2.906,1.162Z" style="fill:#263238;fill-rule:nonzero;"/></g></g><g><g id="Layer0_0_MEMBER_3_MEMBER_13_FILL"><path d="M224.912,208.946c-1.46,-0.089 -3.323,-0.089 -5.588,0c-2.176,0.089 -4.023,0.253 -5.543,0.492c-0.834,0.089 -1.594,0.238 -2.28,0.447c0.834,0.06 1.594,0.045 2.28,-0.045l5.499,-0.402c1.46,-0.06 3.308,-0.089 5.543,-0.089c0.715,0.03 1.49,0 2.325,-0.089c-0.834,-0.209 -1.58,-0.313 -2.235,-0.313Z" style="fill:#263238;fill-rule:nonzero;"/></g></g><g><g id="Layer0_0_MEMBER_3_MEMBER_14_FILL"><path d="M223.571,201.883c0.179,-1.46 0.224,-3.159 0.134,-5.096c0,-1.937 -0.134,-3.636 -0.402,-5.096c-0.179,1.788 -0.209,3.487 -0.089,5.096c-0.03,1.609 0.089,3.308 0.358,5.096Z" style="fill:#263238;fill-rule:nonzero;"/></g></g><g><g id="Layer0_0_MEMBER_3_MEMBER_15_FILL"><path d="M222.811,208.812c0.06,-1.848 -0.209,-3.621 -0.805,-5.32c-0.089,0.954 -0.03,1.848 0.179,2.682c0.03,0.924 0.238,1.803 0.626,2.638Z" style="fill:#263238;fill-rule:nonzero;"/></g></g><g><g id="Layer0_0_MEMBER_3_MEMBER_16_FILL"><path d="M224.778,215.071c-0.149,-0.745 -0.447,-1.967 -0.894,-3.666l-0.447,-1.341c0.03,0.477 0.119,0.939 0.268,1.386l0.805,3.71c0.924,4.5 1.654,8.598 2.19,12.294c0.656,4.5 1.147,8.628 1.475,12.383l0.447,5.186l0.045,-1.431c0,-1.103 -0.06,-2.369 -0.179,-3.8c-0.209,-3.964 -0.641,-8.106 -1.296,-12.428c-0.715,-4.619 -1.52,-8.717 -2.414,-12.294Z" style="fill:#263238;fill-rule:nonzero;"/></g></g><g><g><g id="flash0_ai_Assets_27_Layer_1__Group__7_0_Layer0_0_MEMBER_0_FILL"><path d="M192.189,156.464l-3.174,0.626l1.118,0.492l-1.207,2.772c12.368,15.11 20.236,24.125 23.604,27.046c2.41,2.093 4.123,3.643 5.141,4.649l-27.269,-32.366l1.788,-3.219Z" style="fill-rule:nonzero;"/></g></g></g><g><g><g id="flash0_ai_Assets_27_Layer_1__Group__6_0_Layer0_0_MEMBER_0_FILL"><path d="M202.337,209.974l0.134,0c6.199,0.834 13.277,0.134 21.234,-2.101c1.58,-0.358 3.04,-1.043 4.381,-2.056c0.656,-0.507 1.118,-1.162 1.386,-1.967c0.268,-0.775 0.328,-1.565 0.179,-2.369l-27.314,8.494Z" style="fill-rule:nonzero;"/></g></g></g><g><g id="Layer0_0_MEMBER_3_MEMBER_19_FILL"><path d="M165.322,189.5c-0.089,-0.596 -0.253,-1.088 -0.492,-1.475c-1.192,-2.295 -3.04,-3.889 -5.543,-4.783c-0.417,-0.209 -0.924,-0.313 -1.52,-0.313c3.397,1.162 5.916,3.353 7.555,6.571Z" style="fill:#263238;fill-rule:nonzero;"/></g></g><g><g id="Layer0_0_MEMBER_3_MEMBER_20_FILL"><path d="M175.157,164.6c0,-0.149 -0.045,-0.298 -0.134,-0.447l9.343,42.603l0.492,1.699l-0.045,-0.447l-9.656,-43.408Z" style="fill:#263238;fill-rule:nonzero;"/></g></g><g><g id="Layer0_0_MEMBER_3_MEMBER_21_FILL"><path d="M131.257,179.576c0.119,-0.447 0.06,-0.879 -0.179,-1.296c-0.358,-0.447 -0.805,-0.671 -1.341,-0.671c-0.387,0 -0.7,0.104 -0.939,0.313c-0.149,0.089 -0.224,0.194 -0.224,0.313c0.358,-0.238 0.73,-0.328 1.118,-0.268c0.417,0.06 0.76,0.253 1.028,0.581c0.238,0.447 0.194,0.879 -0.134,1.296c-0.298,0.447 -0.7,0.596 -1.207,0.447c-0.417,-0.089 -0.7,-0.343 -0.849,-0.76c-0.119,-0.328 -0.134,-0.715 -0.045,-1.162l-0.313,0.268c-0.149,0.328 -0.149,0.671 0,1.028c0.149,0.507 0.492,0.864 1.028,1.073c0.447,0.089 0.864,0.03 1.252,-0.179c0.387,-0.209 0.656,-0.536 0.805,-0.983Z" style="fill:#263238;fill-rule:nonzero;"/></g></g><g><g id="Layer0_0_MEMBER_3_MEMBER_22_FILL"><path d="M270.018,81.004l0.358,0c0.328,0 0.611,0.119 0.849,0.358c0.328,0.268 0.536,0.656 0.626,1.162c0,0.626 -0.283,1.013 -0.849,1.162c-0.536,0.238 -1.043,0.164 -1.52,-0.224c-0.298,-0.358 -0.387,-0.76 -0.268,-1.207c0.149,-0.536 0.313,-0.954 0.492,-1.252c-0.03,-0.03 -0.134,0.045 -0.313,0.224c-0.209,0.238 -0.387,0.551 -0.536,0.939c-0.179,0.596 -0.075,1.132 0.313,1.609c0.596,0.536 1.267,0.656 2.012,0.358c0.805,-0.238 1.177,-0.79 1.118,-1.654c-0.089,-0.596 -0.387,-1.058 -0.894,-1.386c-0.298,-0.268 -0.641,-0.373 -1.028,-0.313l-0.358,0.224Z" style="fill:#263238;fill-rule:nonzero;"/></g></g><g><g id="Layer0_0_MEMBER_3_MEMBER_23_FILL"><path d="M179.627,126.557c-5.156,-1.907 -10.476,-2.563 -15.959,-1.967c-5.484,0.745 -10.55,2.563 -15.199,5.454c-4.828,3.04 -9.015,6.855 -12.562,11.444c-0.417,0.447 -0.626,0.983 -0.626,1.609c0,0.596 0.209,1.118 0.626,1.565c0.447,0.417 0.983,0.626 1.609,0.626c0.596,0 1.118,-0.209 1.565,-0.626c3.219,-4.113 6.78,-7.466 10.684,-10.058c4.292,-2.861 8.807,-4.679 13.545,-5.454c4.619,-0.715 9.596,-0.149 14.931,1.699c1.729,0.596 4.277,1.49 7.644,2.682c2.98,0.954 5.618,1.58 7.913,1.878c2.831,0.358 5.961,0.462 9.388,0.313c2.414,-0.089 5.528,-0.358 9.343,-0.805c0.954,-0.089 2.056,-0.373 3.308,-0.849c1.58,-0.566 2.369,-1.147 2.369,-1.743c0,-0.477 -0.79,-0.954 -2.369,-1.431c-1.46,-0.417 -2.563,-0.581 -3.308,-0.492c-3.517,0.417 -6.348,0.685 -8.494,0.805c-3.129,0.179 -5.975,0.134 -8.538,-0.134c-2.354,-0.238 -5.037,-0.834 -8.047,-1.788c-3.457,-1.222 -6.065,-2.131 -7.823,-2.727Z" style="fill:#ffca00;fill-rule:nonzero;"/></g></g><g><g><g id="flash0_ai_Assets_27_Layer_1__Group__5_0_Layer0_0_MEMBER_0_FILL"><path d="M215.837,131.161c-1.46,-0.536 -2.548,-0.76 -3.263,-0.671c-3.636,0.417 -6.482,0.671 -8.538,0.76c-3.159,0.179 -6.005,0.149 -8.538,-0.089c-2.354,-0.238 -5.037,-0.834 -8.047,-1.788c-3.427,-1.222 -6.02,-2.131 -7.778,-2.727c-5.156,-1.907 -10.476,-2.563 -15.959,-1.967c-5.394,0.685 -10.461,2.489 -15.199,5.409c-4.888,3.07 -9.09,6.884 -12.607,11.444c-0.387,0.447 -0.581,0.983 -0.581,1.609c0,0.596 0.194,1.118 0.581,1.565c0.447,0.447 0.983,0.671 1.609,0.671c0.626,0 1.162,-0.224 1.609,-0.671c3.248,-4.113 6.795,-7.466 10.64,-10.058c4.292,-2.861 8.807,-4.664 13.545,-5.409c5.096,-0.685 10.088,-0.134 14.976,1.654c1.729,0.596 4.277,1.49 7.644,2.682c2.95,0.954 5.573,1.58 7.868,1.878c2.831,0.387 5.961,0.507 9.388,0.358c2.414,-0.089 5.543,-0.358 9.388,-0.805c1.073,-0.119 2.161,-0.343 3.263,-0.671c1.58,-0.477 2.369,-0.998 2.369,-1.565c0,-0.507 -0.79,-1.043 -2.369,-1.609Z" style="fill-rule:nonzero;"/></g></g></g><g><g id="Layer0_0_MEMBER_3_MEMBER_25_FILL"><path d="M192.099,83.239c-0.894,0.06 -1.729,0.358 -2.503,0.894c-0.358,0.268 -0.611,0.626 -0.76,1.073c-0.119,0.447 -0.119,0.879 0,1.296c-0.954,-0.149 -1.818,0.06 -2.593,0.626c-0.805,0.566 -1.282,1.311 -1.431,2.235c-0.119,0.834 0.015,1.609 0.402,2.325c0.417,0.715 1.013,1.222 1.788,1.52c-0.954,0.775 -1.49,1.788 -1.609,3.04c-0.119,1.222 0.209,2.31 0.983,3.263c0.417,0.507 0.954,0.924 1.609,1.252c-0.298,0.119 -0.507,0.343 -0.626,0.671c-0.149,0.298 -0.149,0.596 0,0.894l0.179,0.268c0.149,0.209 0.253,0.402 0.313,0.581c0.06,0.06 0.253,0.075 0.581,0.045l0.536,7.197c0.03,0.566 0.075,1.49 0.134,2.772c0.089,1.103 0.268,1.982 0.536,2.638c0.924,1.818 2.399,3.04 4.426,3.666l30.89,-11.578c1.043,-1.103 1.714,-2.414 2.012,-3.934c0.298,-1.49 0.164,-2.95 -0.402,-4.381c-0.179,-0.209 -0.253,-0.462 -0.224,-0.76c0.03,-0.298 0.164,-0.536 0.402,-0.715l0.224,-0.134c1.311,-1.013 2.056,-2.354 2.235,-4.023c0.06,-0.775 -0.075,-1.535 -0.402,-2.28c-0.358,-0.715 -0.864,-1.311 -1.52,-1.788c1.043,-0.566 1.669,-1.52 1.878,-2.861c0.209,-1.341 -0.06,-2.503 -0.805,-3.487c-0.775,-0.983 -1.758,-1.654 -2.95,-2.012c-1.192,-0.358 -2.399,-0.343 -3.621,0.045c0.268,-0.715 0.298,-1.431 0.089,-2.146c-0.238,-0.745 -0.671,-1.341 -1.296,-1.788c-1.282,-0.894 -2.682,-1.296 -4.202,-1.207c-1.132,0 -2.131,0.179 -2.995,0.536c-1.013,0.417 -1.714,1.043 -2.101,1.878c-0.149,-0.536 -0.507,-0.983 -1.073,-1.341c-0.536,-0.298 -1.132,-0.462 -1.788,-0.492c-1.699,-0.06 -3.204,0.447 -4.515,1.52c-1.311,1.103 -2.086,2.489 -2.325,4.157c-1.132,-0.656 -2.34,-0.909 -3.621,-0.76c-0.656,0.089 -1.207,0.358 -1.654,0.805c-0.477,0.447 -0.76,0.998 -0.849,1.654c-0.864,-0.954 -1.982,-1.341 -3.353,-1.162Z" style="fill:#1b2d54;fill-rule:nonzero;"/></g></g><g><g id="Layer0_0_MEMBER_3_MEMBER_26_FILL"><path d="M225.359,121.148c0.477,-4.292 0.194,-11.176 -0.849,-20.653c-0.358,-3.159 -1.997,-5.931 -4.917,-8.315c-2.921,-2.444 -5.916,-3.427 -8.985,-2.95l-20.072,4.739l5.32,48.817l21.726,12.964l-1.296,-22.352l1.252,-0.447c1.013,-0.417 1.967,-0.983 2.861,-1.699c2.831,-2.325 4.485,-5.692 4.962,-10.103Z" style="fill:#fff;fill-rule:nonzero;"/></g><path id="Layer0_0_MEMBER_3_MEMBER_26_1_STROKES" d="M224.51,100.494c-0.358,-3.159 -1.997,-5.931 -4.917,-8.315c-2.921,-2.444 -5.916,-3.427 -8.985,-2.95l-20.072,4.739l5.32,48.817l21.726,12.964l-1.296,-22.352l1.252,-0.447c1.013,-0.417 1.967,-0.983 2.861,-1.699c2.831,-2.325 4.485,-5.692 4.962,-10.103c0.477,-4.292 0.194,-11.176 -0.849,-20.653Z" style="fill:none;fill-rule:nonzero;stroke:#1b294a;stroke-width:0.27px;"/></g><g><g id="Layer0_0_MEMBER_3_MEMBER_27_FILL"><path d="M220.621,109.569c-0.03,-0.358 -0.179,-0.641 -0.447,-0.849c-0.268,-0.238 -0.581,-0.343 -0.939,-0.313c-0.358,0.06 -0.656,0.224 -0.894,0.492c-0.238,0.268 -0.343,0.581 -0.313,0.939c0.03,0.358 0.179,0.641 0.447,0.849c0.268,0.238 0.581,0.343 0.939,0.313c0.358,-0.03 0.656,-0.194 0.894,-0.492c0.238,-0.268 0.343,-0.581 0.313,-0.939Z" style="fill:#1b2d54;fill-rule:nonzero;"/></g></g><g><g id="Layer0_0_MEMBER_3_MEMBER_28_FILL"><path d="M222.856,104.965c0.149,-0.119 -0.03,-0.358 -0.536,-0.715c-0.685,-0.417 -1.401,-0.611 -2.146,-0.581c-0.775,0.06 -1.46,0.313 -2.056,0.76c-0.477,0.387 -0.656,0.641 -0.536,0.76c0.06,0.06 0.343,-0.015 0.849,-0.224c0.656,-0.268 1.252,-0.417 1.788,-0.447c0.536,-0.03 1.132,0.06 1.788,0.268c0.536,0.149 0.82,0.209 0.849,0.179Z" style="fill:#1b2d54;fill-rule:nonzero;"/></g></g><g><g id="Layer0_0_MEMBER_3_MEMBER_29_FILL"><path d="M208.059,109.972l-0.045,-0.045c-0.03,-0.358 -0.194,-0.641 -0.492,-0.849c-0.268,-0.209 -0.581,-0.298 -0.939,-0.268c-0.358,0.06 -0.656,0.224 -0.894,0.492c-0.238,0.268 -0.343,0.581 -0.313,0.939l0,0.045c0.06,0.358 0.224,0.641 0.492,0.849c0.298,0.238 0.611,0.328 0.939,0.268c0.387,-0.03 0.7,-0.194 0.939,-0.492c0.238,-0.268 0.343,-0.581 0.313,-0.939Z" style="fill:#1b2d54;fill-rule:nonzero;"/></g></g><g><g id="Layer0_0_MEMBER_3_MEMBER_30_FILL"><path d="M208.774,106.217c0.149,-0.149 -0.03,-0.387 -0.536,-0.715c-0.656,-0.417 -1.371,-0.611 -2.146,-0.581c-0.775,0.03 -1.46,0.283 -2.056,0.76c-0.447,0.358 -0.626,0.611 -0.536,0.76c0.06,0.06 0.343,-0.015 0.849,-0.224c0.656,-0.268 1.252,-0.417 1.788,-0.447c0.536,-0.03 1.132,0.06 1.788,0.268c0.536,0.149 0.82,0.209 0.849,0.179Z" style="fill:#1b2d54;fill-rule:nonzero;"/></g></g><g><g id="Layer0_0_MEMBER_3_MEMBER_31_FILL"><path d="M217.491,116.141c0.298,-0.089 0.492,-0.283 0.581,-0.581c0.06,-0.507 -0.03,-0.983 -0.268,-1.431c-0.715,-1.669 -1.118,-2.593 -1.207,-2.772c-2.027,-4.739 -3.144,-7.078 -3.353,-7.019c-0.209,0.089 0.715,2.503 2.772,7.242l1.252,2.772c0.179,0.328 0.268,0.685 0.268,1.073c-0.03,0.209 -0.283,0.343 -0.76,0.402c-0.775,0.089 -1.55,0.268 -2.325,0.536c0.805,0.089 1.609,0.045 2.414,-0.134l0.626,-0.089Z" style="fill:#1b2d54;fill-rule:nonzero;"/></g></g><g><g><g id="flash0_ai_Assets_27_Layer_1__Path__66_0_Layer0_0_FILL"><path d="M216.821,136.66l-0.536,-3.219c-4.977,0.328 -9.686,-0.7 -14.126,-3.085c0.715,1.311 1.863,2.548 3.442,3.71c3.129,2.354 6.87,3.219 11.221,2.593Z" style="fill:#cdcdcd;fill-rule:nonzero;"/></g></g></g><g><g id="Layer0_0_MEMBER_3_MEMBER_33_FILL"><path d="M214.183,119.896l-0.134,0c-0.656,-0.715 -1.445,-0.998 -2.369,-0.849c-0.656,0.089 -1.192,0.402 -1.609,0.939c-0.387,0.536 -0.387,1.103 0,1.699c0.536,0.566 1.177,0.7 1.922,0.402c0.656,-0.268 1.252,-0.671 1.788,-1.207l0.402,-0.447c0.089,-0.149 0.089,-0.328 0,-0.536Z" style="fill:#ffca00;fill-rule:nonzero;"/></g></g><g><g id="Layer0_0_MEMBER_3_MEMBER_34_FILL"><path d="M210.294,117.571c-0.209,0 -0.268,0.358 -0.179,1.073c0.149,0.924 0.596,1.639 1.341,2.146c0.745,0.596 1.594,0.849 2.548,0.76c0.715,-0.03 1.058,-0.149 1.028,-0.358c0,-0.03 -0.328,-0.089 -0.983,-0.179c-0.834,-0.149 -1.52,-0.432 -2.056,-0.849c-0.536,-0.417 -0.969,-0.983 -1.296,-1.699c-0.238,-0.596 -0.373,-0.894 -0.402,-0.894Z" style="fill:#1b2d54;fill-rule:nonzero;"/></g></g><g><g id="Layer0_0_MEMBER_3_MEMBER_35_FILL"><path d="M208.953,101.031c0.06,-0.268 -0.238,-0.492 -0.894,-0.671c-1.818,-0.536 -3.472,-0.268 -4.962,0.805c-0.596,0.417 -0.805,0.715 -0.626,0.894c0.089,0.149 0.447,0.149 1.073,0c1.371,-0.268 2.101,-0.417 2.19,-0.447c0.119,-0.03 0.849,-0.104 2.19,-0.224c0.626,-0.089 0.969,-0.209 1.028,-0.358Z" style="fill:#1b2d54;fill-rule:nonzero;"/></g></g><g><g id="Layer0_0_MEMBER_3_MEMBER_36_FILL"><path d="M222.14,100.807c0.089,-0.209 -0.075,-0.477 -0.492,-0.805c-0.566,-0.387 -1.222,-0.581 -1.967,-0.581c-0.745,0.06 -1.401,0.283 -1.967,0.671c-0.477,0.358 -0.626,0.626 -0.447,0.805c0.089,0.119 0.373,0.164 0.849,0.134c0.298,0 0.82,-0.045 1.565,-0.134c0.298,-0.03 0.82,-0.015 1.565,0.045c0.507,0.06 0.805,0.015 0.894,-0.134Z" style="fill:#1b2d54;fill-rule:nonzero;"/></g></g><g><g id="Layer0_0_MEMBER_3_MEMBER_37_FILL"><path d="M194.335,85.563c-1.371,-0.119 -2.667,0.149 -3.889,0.805c-2.474,1.46 -4.038,3.561 -4.694,6.303c-0.358,1.043 -0.417,2.131 -0.179,3.263c0.238,1.222 0.939,1.997 2.101,2.325c-0.834,1.192 -1.132,2.518 -0.894,3.979c0.238,1.431 0.954,2.578 2.146,3.442l1.207,0.626l0.447,1.028c-0.179,1.758 -0.238,3.666 -0.179,5.722c-0.06,0.834 0.104,1.624 0.492,2.369c0.209,0.387 0.507,0.671 0.894,0.849c0.358,0.179 0.745,0.238 1.162,0.179c1.341,-0.358 2.116,-0.879 2.325,-1.565c0.179,-0.566 0.238,-1.431 0.179,-2.593c-0.089,-1.401 -0.119,-2.28 -0.089,-2.638c1.282,-0.209 2.31,-0.834 3.085,-1.878c0.775,-1.043 1.073,-2.205 0.894,-3.487c-0.179,-1.132 -0.715,-2.101 -1.609,-2.906c1.282,0.566 2.578,0.581 3.889,0.045c1.311,-0.536 2.25,-1.46 2.816,-2.772c0.209,-0.596 0.328,-1.132 0.358,-1.609c1.609,1.49 3.472,2.116 5.588,1.878c1.043,-0.089 1.878,-0.492 2.503,-1.207c0.328,-0.387 0.492,-0.82 0.492,-1.296c-0.03,-0.507 -0.209,-0.954 -0.536,-1.341c0.924,0.417 1.907,0.551 2.95,0.402c0.983,-0.179 1.863,-0.611 2.638,-1.296c0.745,-0.745 1.222,-1.624 1.431,-2.638c0.209,-1.013 0.119,-1.997 -0.268,-2.95l-0.626,-0.268c0.477,-1.132 0.387,-2.31 -0.268,-3.532c-0.685,-1.192 -1.639,-1.937 -2.861,-2.235c-1.252,-0.209 -2.444,-0.015 -3.576,0.581c-1.132,0.566 -1.982,1.416 -2.548,2.548c-0.596,-0.983 -1.416,-1.699 -2.459,-2.146c-1.073,-0.417 -2.161,-0.462 -3.263,-0.134c-0.775,0.268 -1.535,0.745 -2.28,1.431c-0.417,0.358 -1.058,1.043 -1.922,2.056c-0.387,0.447 -0.73,0.656 -1.028,0.626c-0.328,-0.089 -0.581,-0.253 -0.76,-0.492c-1.073,-0.864 -2.295,-1.356 -3.666,-1.475Z" style="fill:#1b2d54;fill-rule:nonzero;"/></g></g><g><g id="Layer0_0_MEMBER_3_MEMBER_38_MEMBER_0_FILL"><path d="M194.066,120.119l-0.626,-8.851c-1.073,-0.298 -2.101,-0.328 -3.085,-0.089c-1.997,0.507 -2.906,2.041 -2.727,4.605c0.149,2.563 1.267,4.068 3.353,4.515c0.685,0.149 1.401,0.179 2.146,0.089c0.626,-0.089 0.939,-0.179 0.939,-0.268Z" style="fill:#fff;fill-rule:nonzero;"/></g></g><g><path id="Layer0_0_MEMBER_3_MEMBER_38_MEMBER_1_1_STROKES" d="M193.441,111.268c-1.073,-0.298 -2.101,-0.328 -3.085,-0.089c-1.997,0.507 -2.906,2.041 -2.727,4.605c0.149,2.563 1.267,4.068 3.353,4.515c0.685,0.149 1.401,0.179 2.146,0.089c0.626,-0.089 0.939,-0.179 0.939,-0.268" style="fill:none;fill-rule:nonzero;stroke:#1b294a;stroke-width:0.27px;"/></g><g><g id="Layer0_0_MEMBER_3_MEMBER_39_FILL"><path d="M191.071,113.235c-0.149,-0.149 -0.343,-0.194 -0.581,-0.134c-0.507,0.149 -0.864,0.492 -1.073,1.028c-0.238,0.566 -0.313,1.147 -0.224,1.743c0,0.566 0.149,1.088 0.447,1.565c0.328,0.447 0.745,0.775 1.252,0.983c0.328,0.089 0.641,0.015 0.939,-0.224c0.149,-0.089 0.224,-0.194 0.224,-0.313l-0.268,0.179c-0.298,0.149 -0.566,0.179 -0.805,0.089c-0.924,-0.536 -1.386,-1.311 -1.386,-2.325c-0.03,-0.507 0.045,-1.028 0.224,-1.565c0.119,-0.417 0.358,-0.7 0.715,-0.849c0.298,-0.089 0.522,0 0.671,0.268l0.089,0.268c0.03,0.03 0.06,0.015 0.089,-0.045c0,-0.089 -0.015,-0.194 -0.045,-0.313c-0.06,-0.149 -0.149,-0.268 -0.268,-0.358Z" style="fill:#1b2d54;fill-rule:nonzero;"/></g></g><g><g id="Layer0_0_MEMBER_3_MEMBER_40_FILL"><path d="M218.609,76.801l0.849,0.402c0.775,0.507 1.341,1.177 1.699,2.012c0.238,0.566 0.358,1.162 0.358,1.788c-0.06,0.775 -0.283,1.445 -0.671,2.012c-0.477,0.685 -1.103,1.177 -1.878,1.475c-0.685,0.318 -1.385,0.422 -2.101,0.313c-0.143,-0.017 -0.292,-0.047 -0.447,-0.089l-0.045,0.224l0,0.045c0.447,0.06 0.775,0.283 0.983,0.671c0.298,0.387 0.492,0.805 0.581,1.252c0.387,0.894 0.492,1.833 0.313,2.816c-0.268,0.805 -0.82,1.371 -1.654,1.699c-0.805,0.358 -1.565,0.551 -2.28,0.581c-1.52,0.149 -2.906,-0.194 -4.157,-1.028l-0.402,-0.268l0.224,0.447c0.328,0.566 0.417,1.177 0.268,1.833c-0.149,0.596 -0.417,1.118 -0.805,1.565c-0.298,0.358 -0.7,0.671 -1.207,0.939c-0.417,0.179 -0.834,0.313 -1.252,0.402c-0.507,0.119 -1.118,0.179 -1.833,0.179c0.745,0.06 1.371,0.03 1.878,-0.089c0.417,-0.089 0.834,-0.224 1.252,-0.402c0.507,-0.238 0.939,-0.551 1.296,-0.939c0.417,-0.477 0.7,-1.013 0.849,-1.609c0.144,-0.599 0.114,-1.166 -0.089,-1.699c1.225,0.733 2.551,1.031 3.979,0.894c0.775,-0.03 1.58,-0.224 2.414,-0.581c0.596,-0.358 0.954,-0.596 1.073,-0.715c0.328,-0.298 0.566,-0.685 0.715,-1.162c0.119,-0.477 0.134,-0.983 0.045,-1.52c-0.119,-0.656 -0.238,-1.147 -0.358,-1.475c-0.119,-0.387 -0.328,-0.834 -0.626,-1.341c-0.094,-0.14 -0.198,-0.26 -0.313,-0.358c0.632,0.016 1.243,-0.118 1.833,-0.402c0.805,-0.328 1.445,-0.849 1.922,-1.565c0.417,-0.596 0.656,-1.296 0.715,-2.101c0,-0.775 -0.194,-1.505 -0.581,-2.19c-0.387,-0.685 -0.924,-1.237 -1.609,-1.654c-0.358,-0.209 -0.671,-0.328 -0.939,-0.358Z" style="fill:#fff;fill-rule:nonzero;"/></g></g><g><g id="Layer0_0_MEMBER_3_MEMBER_41_FILL"><path d="M228.086,88.961c-0.477,0.477 -0.834,0.805 -1.073,0.983c-1.013,0.685 -2.116,0.909 -3.308,0.671l-0.089,0l-1.296,-0.313l1.207,0.536l0,0.045l0.045,0c0.237,0.224 0.341,0.447 0.313,0.671c0,0.268 -0.119,0.522 -0.358,0.76c-0.387,0.328 -0.834,0.536 -1.341,0.626c-0.507,0.06 -0.969,0.045 -1.386,-0.045l0.358,0.134c0.983,0.238 1.833,0.045 2.548,-0.581c0.298,-0.238 0.447,-0.536 0.447,-0.894c0,-0.237 -0.06,-0.446 -0.179,-0.626c1.173,0.188 2.216,-0.08 3.129,-0.805c0.238,-0.179 0.492,-0.447 0.76,-0.805l0.224,-0.358Z" style="fill:#fff;fill-rule:nonzero;"/></g></g><g><g id="Layer0_0_MEMBER_3_MEMBER_42_FILL"><path d="M282.804,66.072l0.626,-2.95c0.656,-0.149 1.103,-0.522 1.341,-1.118c0.536,-1.55 0.849,-3.174 0.939,-4.873c-0.03,-0.715 -0.894,-1.282 -2.593,-1.699c0,-0.626 -0.06,-1.177 -0.179,-1.654c0,-0.298 -0.06,-0.522 -0.179,-0.671c-0.209,-0.387 -0.507,-0.641 -0.894,-0.76c-0.387,-0.119 -0.775,-0.075 -1.162,0.134c-0.238,-0.745 -0.849,-1.222 -1.833,-1.431l-1.386,-0.134c-0.387,-0.805 -1.028,-1.207 -1.922,-1.207l-5.767,6.482l-0.179,2.995c-0.119,2.116 -0.224,3.427 -0.313,3.934c-0.089,0.507 0.224,2.25 0.939,5.23c0.358,1.49 0.715,2.936 1.073,4.336l-0.671,3.845l9.433,4.068l0.224,-6.035l0.849,-1.341c0.715,-1.52 1.267,-3.904 1.654,-7.153Z" style="fill:#fff;fill-rule:nonzero;"/></g><path id="Layer0_0_MEMBER_3_MEMBER_42_1_STROKES" d="M270.644,76.533l0.671,-3.845c-0.358,-1.401 -0.715,-2.846 -1.073,-4.336c-0.715,-2.98 -1.028,-4.724 -0.939,-5.23c0.089,-0.507 0.194,-1.818 0.313,-3.934l0.179,-2.995l5.767,-6.482c0.894,0 1.535,0.402 1.922,1.207l1.386,0.134c0.983,0.209 1.594,0.685 1.833,1.431c0.387,-0.209 0.775,-0.253 1.162,-0.134c0.387,0.119 0.685,0.373 0.894,0.76c0.119,0.149 0.179,0.373 0.179,0.671c0.119,0.477 0.179,1.028 0.179,1.654c1.699,0.417 2.563,0.983 2.593,1.699c-0.089,1.699 -0.402,3.323 -0.939,4.873c-0.238,0.596 -0.685,0.969 -1.341,1.118l-0.626,2.95c-0.387,3.248 -0.939,5.633 -1.654,7.153l-0.849,1.341l-0.224,6.035l-9.433,-4.068Z" style="fill:none;fill-rule:nonzero;stroke:#1b294a;stroke-width:0.27px;"/></g><g><g id="Layer0_0_MEMBER_3_MEMBER_43_FILL"><path d="M279.227,55.567c0.03,-0.209 0.03,-0.402 0,-0.581c-0.298,-1.52 -0.924,-2.965 -1.878,-4.336l-2.19,1.431c0.328,0.924 0.641,1.654 0.939,2.19c0.268,0.864 0.879,1.445 1.833,1.743c0.685,0.179 1.118,0.03 1.296,-0.447Z" style="fill:#fff;fill-rule:nonzero;"/></g><path id="Layer0_0_MEMBER_3_MEMBER_43_1_STROKES" d="M279.227,54.986c-0.298,-1.52 -0.924,-2.965 -1.878,-4.336l-2.19,1.431c0.328,0.924 0.641,1.654 0.939,2.19c0.268,0.864 0.879,1.445 1.833,1.743c0.685,0.179 1.118,0.03 1.296,-0.447c0.03,-0.209 0.03,-0.402 0,-0.581Z" style="fill:none;fill-rule:nonzero;stroke:#1b294a;stroke-width:0.27px;"/></g><g><g id="Layer0_0_MEMBER_3_MEMBER_44_FILL"><path d="M275.338,52.482l-0.179,-0.402l0.089,0.447l0.849,1.967c0.149,0.358 0.328,0.641 0.536,0.849c0.268,0.328 0.581,0.551 0.939,0.671c0.417,0.179 0.834,0.179 1.252,0c0.209,-0.089 0.358,-0.253 0.447,-0.492c0.06,-0.179 0.06,-0.373 0,-0.581l-0.268,-1.118c-0.119,-0.387 -0.358,-0.969 -0.715,-1.743l-0.626,-1.073l-0.313,-0.402l0.805,1.565c0.268,0.507 0.492,1.073 0.671,1.699l0.268,1.073c0.06,0.179 0.06,0.358 0,0.536c-0.089,0.209 -0.209,0.328 -0.358,0.358c-0.387,0.179 -0.745,0.179 -1.073,0c-0.328,-0.119 -0.626,-0.313 -0.894,-0.581l-0.536,-0.805l-0.358,-0.805c-0.209,-0.328 -0.387,-0.715 -0.536,-1.162Z" style="fill:#1b2d54;fill-rule:nonzero;"/></g></g><g><g id="Layer0_0_MEMBER_3_MEMBER_45_FILL"><path d="M280.747,52.393l0.089,0.536c0.06,0.417 0.164,0.849 0.313,1.296l0.849,3.129c0.089,0.268 0.164,0.685 0.224,1.252c0,0.179 -0.06,0.358 -0.179,0.536c-0.119,0.149 -0.283,0.253 -0.492,0.313c-0.387,0.089 -0.745,0.015 -1.073,-0.224c-0.566,-0.387 -1.013,-0.849 -1.341,-1.386c-0.209,-0.387 -0.343,-0.82 -0.402,-1.296l-0.045,-0.581l0,0.134c-0.06,0.149 -0.06,0.268 0,0.358c0,0.477 0.119,0.924 0.358,1.341c0.328,0.656 0.775,1.177 1.341,1.565c0.358,0.268 0.76,0.358 1.207,0.268c0.179,-0.03 0.373,-0.149 0.581,-0.358c0.149,-0.209 0.224,-0.432 0.224,-0.671c-0.06,-0.536 -0.134,-0.969 -0.224,-1.296l-1.431,-4.917Z" style="fill:#1b2d54;fill-rule:nonzero;"/></g></g><g><g id="Layer0_0_MEMBER_3_MEMBER_46_FILL"><path d="M283.117,57.623c0,0.477 0.06,1.282 0.179,2.414c0.06,0.983 0.06,1.967 0,2.95c-0.06,0.238 -0.149,0.447 -0.268,0.626c-0.179,0.179 -0.387,0.283 -0.626,0.313c-0.507,-0.06 -0.909,-0.238 -1.207,-0.536c-0.566,-0.536 -0.924,-1.222 -1.073,-2.056c-0.119,-0.685 -0.134,-1.416 -0.045,-2.19l-0.045,0.134l-0.089,0.447c-0.089,0.536 -0.089,1.088 0,1.654c0.089,0.805 0.447,1.52 1.073,2.146c0.328,0.328 0.775,0.522 1.341,0.581c0.358,-0.06 0.611,-0.179 0.76,-0.358c0.179,-0.209 0.283,-0.462 0.313,-0.76c0.06,-0.983 0.06,-1.982 0,-2.995l-0.313,-4.023l0,1.654Z" style="fill:#1b2d54;fill-rule:nonzero;"/></g></g><g><g id="Layer0_0_MEMBER_3_MEMBER_47_FILL"><path d="M222.498,56.506l-0.224,-0.089l-0.447,-0.358l-0.134,-0.224l-0.089,0.268c-0.06,0.179 -0.179,0.313 -0.358,0.402l-0.179,0.134l0.224,0.089l0.447,0.358l0.134,0.224l0.089,-0.224c0.119,-0.238 0.238,-0.387 0.358,-0.447l0.179,-0.134Z" style="fill:#e0e0e0;fill-rule:nonzero;"/></g></g><g><g id="Layer0_0_MEMBER_3_MEMBER_48_FILL"><path d="M283.385,30.488c-0.149,0.268 -0.358,0.522 -0.626,0.76l-0.358,0.224l0.402,0.179c0.298,0.089 0.551,0.283 0.76,0.581l0.268,0.358l0.134,-0.402c0.149,-0.328 0.358,-0.581 0.626,-0.76l0.313,-0.224l-0.358,-0.179c-0.358,-0.149 -0.611,-0.343 -0.76,-0.581l-0.268,-0.358l-0.134,0.402Z" style="fill:#e0e0e0;fill-rule:nonzero;"/></g></g><g><g id="Layer0_0_MEMBER_3_MEMBER_49_FILL"><path d="M280.926,16.004l-0.268,0.626c-0.238,0.536 -0.581,0.969 -1.028,1.296l-0.581,0.402l0.671,0.224c0.507,0.238 0.924,0.581 1.252,1.028l0.402,0.581l0.268,-0.626c0.238,-0.536 0.581,-0.969 1.028,-1.296l0.581,-0.402l-0.626,-0.268c-0.536,-0.179 -0.969,-0.522 -1.296,-1.028l-0.402,-0.536Z" style="fill:#e0e0e0;fill-rule:nonzero;"/></g></g><g><g id="Layer0_0_MEMBER_3_MEMBER_50_FILL"><path d="M251.958,74.074l0.179,-0.671l-0.671,0.224c-0.566,0.179 -1.118,0.209 -1.654,0.089l-0.671,-0.179l0.224,0.671c0.209,0.536 0.238,1.073 0.089,1.609l-0.179,0.671l0.671,-0.224c0.536,-0.179 1.088,-0.194 1.654,-0.045l0.671,0.134l-0.224,-0.626c-0.179,-0.566 -0.209,-1.118 -0.089,-1.654Z" style="fill:#e0e0e0;fill-rule:nonzero;"/></g></g><g><g id="Layer0_0_MEMBER_3_MEMBER_51_FILL"><path d="M251.824,65.268c-2.295,0.447 -4.634,0.268 -7.019,-0.536c-2.205,-0.745 -4.232,-1.729 -6.08,-2.95c-1.043,-0.507 -1.922,-1.207 -2.638,-2.101c-0.328,-0.566 -0.477,-1.177 -0.447,-1.833c0.06,-0.656 0.298,-1.222 0.715,-1.699c0.775,-0.983 1.967,-2.399 3.576,-4.247c0.209,-0.238 0.298,-0.522 0.268,-0.849c-0.06,-0.328 -0.209,-0.596 -0.447,-0.805c-0.238,-0.209 -0.522,-0.283 -0.849,-0.224c-0.298,0.03 -0.551,0.164 -0.76,0.402c-1.609,1.848 -2.801,3.263 -3.576,4.247c-1.043,1.311 -1.431,2.787 -1.162,4.426c0.387,1.699 1.326,2.965 2.816,3.8c5.424,3.785 10.416,5.394 14.976,4.828c3.815,-0.566 6.914,-2.34 9.298,-5.32c0.209,-0.238 0.298,-0.522 0.268,-0.849c-0.06,-0.298 -0.209,-0.551 -0.447,-0.76c-0.238,-0.209 -0.522,-0.298 -0.849,-0.268c-0.298,0.03 -0.551,0.164 -0.76,0.402c-1.818,2.295 -4.113,3.74 -6.884,4.336Z" style="fill:#ffca00;fill-rule:nonzero;"/></g></g><g><g id="Layer0_0_MEMBER_3_MEMBER_52_FILL"><path d="M269.437,17.3c-1.788,-0.477 -3.397,-0.089 -4.828,1.162c-1.55,1.55 -2.936,3.174 -4.157,4.873c-0.209,0.238 -0.298,0.522 -0.268,0.849c0.03,0.298 0.164,0.551 0.402,0.76c0.238,0.209 0.522,0.298 0.849,0.268c0.328,-0.03 0.596,-0.164 0.805,-0.402l3.308,-3.979c0.596,-0.864 1.445,-1.326 2.548,-1.386c0.596,0 1.177,0.194 1.743,0.581c0.328,0.238 0.775,0.656 1.341,1.252c3.964,4.083 6.08,8.062 6.348,11.936c0.149,3.189 -0.834,6.005 -2.95,8.449c-0.209,0.238 -0.283,0.522 -0.224,0.849c0.03,0.328 0.164,0.596 0.402,0.805c0.238,0.179 0.522,0.253 0.849,0.224c0.298,-0.03 0.551,-0.164 0.76,-0.402c2.205,-2.533 3.383,-5.499 3.532,-8.896c0,-2.891 -0.715,-5.603 -2.146,-8.136c-1.252,-2.265 -2.831,-4.366 -4.739,-6.303c-0.983,-1.222 -2.176,-2.056 -3.576,-2.503Z" style="fill:#ffca00;fill-rule:nonzero;"/></g></g><g><g id="Layer0_0_MEMBER_3_MEMBER_53_FILL"><path d="M288.436,61.915c-1.997,-0.417 -4.187,-1.282 -6.571,-2.593l-2.995,-1.878l-2.414,1.833l0,0.089l-0.089,0l-1.386,2.772l2.369,2.593c1.729,2.116 2.98,4.098 3.755,5.946l3.621,-4.336l0.089,-0.089l3.621,-4.336Z" style="fill:#ffca00;fill-rule:nonzero;"/></g></g><g><g id="Layer0_0_MEMBER_3_MEMBER_54_FILL"><path d="M279.943,56.908l0.045,-0.089c0.328,-0.387 0.462,-0.849 0.402,-1.386c-0.06,-0.536 -0.298,-0.969 -0.715,-1.296l0,-0.045c-0.417,-0.328 -0.894,-0.462 -1.431,-0.402c-0.536,0.03 -0.969,0.253 -1.296,0.671l-5.32,6.348l-0.045,0.089c-0.328,0.417 -0.462,0.894 -0.402,1.431c0.06,0.536 0.298,0.969 0.715,1.296c0.417,0.328 0.894,0.477 1.431,0.447c0.536,-0.06 0.969,-0.298 1.296,-0.715l5.32,-6.348Z" style="fill:#ffca00;fill-rule:nonzero;"/></g></g><g><g id="Layer0_0_MEMBER_3_MEMBER_55_FILL"><path d="M271.807,32.142c-2.474,-3.278 -5.513,-6.542 -9.12,-9.79c-2.712,-2.444 -4.306,-3.755 -4.783,-3.934l-25.079,30.041c0.358,0.507 1.952,1.848 4.783,4.023c3.815,2.921 7.57,5.32 11.265,7.197c11.653,5.931 20.266,5.335 25.839,-1.788c5.99,-6.765 5.022,-15.348 -2.906,-25.749Z" style="fill:#ffca00;fill-rule:nonzero;"/></g></g><g><g id="Layer0_0_MEMBER_3_MEMBER_56_FILL"><path d="M277.126,40.77c-1.311,-3.099 -2.995,-5.975 -5.052,-8.628c-3.07,-3.904 -6.408,-7.391 -10.014,-10.461l-3.04,-2.503l-1.118,-0.76l4.023,3.397c3.636,3.189 6.929,6.706 9.88,10.55c1.967,2.533 3.621,5.379 4.962,8.538c1.609,3.547 1.952,7.227 1.028,11.042c-0.596,2.027 -1.565,3.8 -2.906,5.32c-1.311,1.758 -2.876,3.174 -4.694,4.247c-1.848,1.073 -3.949,1.684 -6.303,1.833c-2.265,0.089 -4.515,-0.164 -6.75,-0.76c-4.798,-1.371 -9.254,-3.412 -13.366,-6.124c-1.729,-1.073 -3.636,-2.399 -5.722,-3.979l-4.917,-4.068l12.249,-15.021l-12.696,14.931l-0.134,0.134l0.134,0.089c0.298,0.298 0.7,0.685 1.207,1.162l1.296,1.073c0.745,0.656 1.609,1.356 2.593,2.101c1.848,1.401 3.77,2.742 5.767,4.023c4.172,2.772 8.658,4.828 13.456,6.169c2.295,0.596 4.605,0.849 6.929,0.76c2.325,-0.149 4.485,-0.775 6.482,-1.878c1.848,-1.103 3.457,-2.548 4.828,-4.336c1.401,-1.669 2.384,-3.502 2.95,-5.499c0.983,-3.934 0.626,-7.719 -1.073,-11.355Z" style="fill:#263238;fill-rule:nonzero;"/></g></g><g><g><g id="flash0_ai_Assets_27_Layer_1__Group__4_0_Layer0_0_MEMBER_0_FILL"><path d="M257.904,18.418l-0.671,1.431c5.513,6.497 10.267,12.592 14.261,18.284c2.503,3.547 3.725,8.017 3.666,13.411c-0.03,2.682 -0.313,5.007 -0.849,6.974l3.04,-4.605c1.907,-4.59 1.431,-9.731 -1.431,-15.423c-2.533,-5.037 -6.795,-10.267 -12.785,-15.691c-0.328,-0.298 -2.071,-1.758 -5.23,-4.381Z" style="fill-rule:nonzero;"/></g></g></g><g><g id="Layer0_0_MEMBER_3_MEMBER_58_FILL"><path d="M296.036,59.501c-1.282,-1.043 -2.742,-1.49 -4.381,-1.341c-1.669,0.119 -3.04,0.82 -4.113,2.101l-7.913,9.477c-1.073,1.282 -1.535,2.742 -1.386,4.381c0.149,1.669 0.864,3.04 2.146,4.113l15.646,-18.731Z" style="fill:#ffca00;fill-rule:nonzero;"/></g></g><g><g id="Layer0_0_MEMBER_3_MEMBER_59_FILL"><path d="M310.475,66.341l-12.115,-10.103l-20.966,25.168l12.115,10.103l20.966,-25.168Z" style="fill:#74777b;fill-rule:nonzero;"/></g></g><g><g id="Layer0_0_MEMBER_3_MEMBER_60_FILL"><path d="M283.519,80.422l5.946,4.917l14.842,-17.792l-5.946,-4.962l-14.842,17.837Z" style="fill:#939393;fill-rule:nonzero;"/></g></g><g><g id="Layer0_0_MEMBER_3_MEMBER_61_FILL"><path d="M263.849,42.826l-0.447,-5.99l-4.47,3.979l-5.856,-1.386l2.414,5.499l-3.129,5.141l5.99,-0.626l3.889,4.56l1.252,-5.856l5.588,-2.325l-5.23,-2.995Z" style="fill:#fff;fill-rule:nonzero;"/></g></g><g><g id="Layer0_0_MEMBER_3_MEMBER_62_FILL"><path d="M268.051,60.931l-0.939,0.492c-0.536,0.238 -1.058,0.402 -1.565,0.492c-0.656,0.179 -1.371,0.238 -2.146,0.179c-0.864,0 -1.743,-0.089 -2.638,-0.268l-2.95,-0.671c-1.997,-0.507 -4.157,-1.311 -6.482,-2.414c-1.937,-0.894 -3.964,-1.997 -6.08,-3.308l-8.717,-5.946l0.805,0.626c1.192,0.894 2.235,1.639 3.129,2.235c1.52,1.103 3.099,2.161 4.739,3.174c1.818,1.132 3.845,2.25 6.08,3.353c2.116,0.983 4.277,1.788 6.482,2.414l2.95,0.626c0.894,0.179 1.773,0.268 2.638,0.268c0.626,0.03 1.356,-0.03 2.19,-0.179c0.566,-0.089 1.088,-0.268 1.565,-0.536l0.939,-0.536Z" style="fill:#fff;fill-rule:nonzero;"/></g></g><g><g id="Layer0_0_MEMBER_3_MEMBER_63_FILL"><path d="M272.075,61.781l0.045,-0.224l-0.134,0.313c0,0.387 0.134,0.685 0.402,0.894c0.238,0.238 0.551,0.402 0.939,0.492l0.402,0.089c-0.089,-0.06 -0.224,-0.104 -0.402,-0.134c-0.417,-0.179 -0.7,-0.343 -0.849,-0.492c-0.268,-0.209 -0.402,-0.522 -0.402,-0.939Z" style="fill:#fff;fill-rule:nonzero;"/></g></g><g><g id="Layer0_0_MEMBER_3_MEMBER_64_MEMBER_0_FILL"><path d="M270.644,62.854l7.242,9.477c1.013,-1.729 1.222,-3.547 0.626,-5.454c-0.566,-1.818 -1.594,-3.025 -3.085,-3.621c1.103,-1.013 1.937,-2.25 2.503,-3.71c0.298,-0.685 0.373,-1.416 0.224,-2.19c-0.149,-0.745 -0.492,-1.386 -1.028,-1.922l-6.482,7.421Z" style="fill:#fff;fill-rule:nonzero;"/></g></g><g><path id="Layer0_0_MEMBER_3_MEMBER_64_MEMBER_1_1_STROKES" d="M277.886,72.331c1.013,-1.729 1.222,-3.547 0.626,-5.454c-0.566,-1.818 -1.594,-3.025 -3.085,-3.621c1.103,-1.013 1.937,-2.25 2.503,-3.71c0.298,-0.685 0.373,-1.416 0.224,-2.19c-0.149,-0.745 -0.492,-1.386 -1.028,-1.922l-6.482,7.421" style="fill:none;fill-rule:nonzero;stroke:#1b294a;stroke-width:0.27px;"/></g><g><g id="Layer0_0_MEMBER_3_MEMBER_65_FILL"><path d="M270.555,62.943l0.134,-0.179l0.358,-0.358l5.99,-6.84c0.423,0.441 0.706,0.977 0.849,1.609c0.179,0.626 0.164,1.311 -0.045,2.056c-0.209,0.775 -0.566,1.505 -1.073,2.19l-1.475,1.788l-0.089,0.089l0.089,0c1.132,0.417 2.071,1.177 2.816,2.28c0.536,0.805 0.894,1.684 1.073,2.638c0.089,0.715 0.104,1.326 0.045,1.833c0.015,0.179 0.015,0.328 0,0.447l0.089,-0.358c0.089,-0.626 0.089,-1.252 0,-1.878c-0.179,-1.013 -0.536,-1.922 -1.073,-2.727c-0.635,-0.982 -1.529,-1.757 -2.682,-2.325c0.456,-0.5 0.918,-1.066 1.386,-1.699c0.477,-0.596 0.864,-1.341 1.162,-2.235c0.179,-0.715 0.179,-1.431 0,-2.146c-0.149,-0.715 -0.492,-1.296 -1.028,-1.743l-0.045,-0.045l-0.089,0.045l-6.303,7.376c-0.089,0.089 -0.119,0.149 -0.089,0.179Z" style="fill:#1b2d54;fill-rule:nonzero;"/></g></g><g><g id="Layer0_0_MEMBER_3_MEMBER_66_FILL"><path d="M288.079,59.68c-0.477,0.447 -0.924,0.939 -1.341,1.475l-3.085,3.71c-1.46,1.55 -2.831,3.368 -4.113,5.454c0.507,-0.417 0.969,-0.909 1.386,-1.475l3.085,-3.71c1.58,-1.758 2.936,-3.576 4.068,-5.454Z" style="fill:#263238;fill-rule:nonzero;"/></g></g><g><g id="Layer0_0_MEMBER_3_MEMBER_67_FILL"><path d="M174.397,293.839l-12.875,-3.845l-9.924,39.161c1.58,0.298 4.828,-2.444 9.745,-8.226l6.884,-8.807l1.162,0.268c-0.954,-7.063 0.715,-13.247 5.007,-18.552Z" style="fill:#74777b;fill-rule:nonzero;"/></g></g><g><g id="Layer0_0_MEMBER_3_MEMBER_68_FILL"><path d="M168.853,297.773c0.268,-0.295 0.402,-0.637 0.402,-1.028c-0.03,-0.417 -0.194,-0.775 -0.492,-1.073c-0.298,-0.298 -0.656,-0.462 -1.073,-0.492c-0.417,0 -0.775,0.149 -1.073,0.447c-0.298,0.298 -0.462,0.656 -0.492,1.073c0.03,0.447 0.194,0.834 0.492,1.162c0.328,0.298 0.715,0.462 1.162,0.492c0.447,-0.03 0.805,-0.224 1.073,-0.581Z" style="fill:#fff;fill-rule:nonzero;"/></g></g><g><g id="Layer0_0_MEMBER_3_MEMBER_69_FILL"><path d="M164.607,290.933l-3.085,-0.939l-9.88,39.161c0.775,0.358 1.565,0.015 2.369,-1.028l10.595,-37.194Z" style="fill:#263238;fill-rule:nonzero;"/></g></g><g><g id="Layer0_0_MEMBER_3_MEMBER_70_FILL"><path d="M167.423,308.457c-0.358,-0.328 -0.581,-0.432 -0.671,-0.313c-0.03,0.03 0.06,0.238 0.268,0.626c0.298,0.507 0.522,0.939 0.671,1.296c0.149,0.417 0.238,0.909 0.268,1.475c0.03,0.447 0.075,0.671 0.134,0.671c0.119,0.06 0.238,-0.149 0.358,-0.626c0.119,-0.536 0.075,-1.103 -0.134,-1.699c-0.179,-0.596 -0.477,-1.073 -0.894,-1.431Z" style="fill:#263238;fill-rule:nonzero;"/></g></g><g><g id="Layer0_0_MEMBER_3_MEMBER_71_FILL"><path d="M165.367,315.878c0.149,0.03 0.209,-0.194 0.179,-0.671c-0.03,-0.536 -0.224,-1.028 -0.581,-1.475c-0.328,-0.447 -0.73,-0.775 -1.207,-0.983c-0.447,-0.179 -0.685,-0.194 -0.715,-0.045c-0.03,0.06 0.119,0.209 0.447,0.447c0.417,0.358 0.73,0.685 0.939,0.983c0.209,0.298 0.417,0.7 0.626,1.207c0.149,0.358 0.253,0.536 0.313,0.536Z" style="fill:#263238;fill-rule:nonzero;"/></g></g><g><g id="Layer0_0_MEMBER_3_MEMBER_72_FILL"><path d="M159.823,316.996c0,0.06 0.164,0.179 0.492,0.358c0.447,0.268 0.79,0.507 1.028,0.715c0.238,0.179 0.536,0.477 0.894,0.894c0.268,0.268 0.432,0.387 0.492,0.358c0.119,-0.03 0.104,-0.238 -0.045,-0.626c-0.209,-0.447 -0.507,-0.834 -0.894,-1.162c-0.417,-0.328 -0.864,-0.536 -1.341,-0.626c-0.417,-0.06 -0.626,-0.03 -0.626,0.089Z" style="fill:#263238;fill-rule:nonzero;"/></g></g><g><g id="Layer0_0_MEMBER_3_MEMBER_73_FILL"><path d="M209.981,396.166c-3.129,0 -6.11,-0.656 -8.941,-1.967c-2.861,-1.282 -5.305,-3.099 -7.331,-5.454l-5.499,11.265l34.467,15.065c0.507,-1.401 -1.535,-4.798 -6.124,-10.192l-7.019,-7.689l0.447,-1.028Z" style="fill:#74777b;fill-rule:nonzero;"/></g></g><g><g id="Layer0_0_MEMBER_3_MEMBER_74_FILL"><path d="M195.452,393.886c-0.336,-0.005 -0.649,0.084 -0.939,0.268c-0.328,0.209 -0.536,0.507 -0.626,0.894c-0.03,0.417 0.06,0.775 0.268,1.073c0.209,0.328 0.507,0.536 0.894,0.626c0.417,0.06 0.805,-0.03 1.162,-0.268c0.328,-0.238 0.536,-0.566 0.626,-0.983c0.03,-0.417 -0.089,-0.79 -0.358,-1.118c-0.268,-0.298 -0.611,-0.462 -1.028,-0.492Z" style="fill:#fff;fill-rule:nonzero;"/></g></g><g><g id="Layer0_0_MEMBER_3_MEMBER_75_FILL"><path d="M222.677,415.121c0.268,-0.417 0.238,-0.924 -0.089,-1.52l-0.536,-0.805l-32.544,-15.512l-1.296,2.727l34.467,15.11Z" style="fill:#263238;fill-rule:nonzero;"/></g></g><g><g id="Layer0_0_MEMBER_3_MEMBER_76_FILL"><path d="M209.668,397.328c-0.536,-0.507 -1.237,-0.7 -2.101,-0.581c-0.566,0.089 -1.058,0.298 -1.475,0.626c-0.328,0.298 -0.462,0.492 -0.402,0.581c0.03,0.03 0.224,-0.03 0.581,-0.179c0.507,-0.209 0.969,-0.343 1.386,-0.402c0.358,-0.06 0.82,-0.06 1.386,0c0.387,0.03 0.596,0.015 0.626,-0.045Z" style="fill:#74777b;fill-rule:nonzero;"/></g></g><g><g id="Layer0_0_MEMBER_3_MEMBER_77_FILL"><path d="M212.574,400.413c0.03,-0.119 -0.179,-0.194 -0.626,-0.224c-0.477,-0.06 -0.954,0.03 -1.431,0.268c-0.477,0.238 -0.849,0.566 -1.118,0.983c-0.209,0.387 -0.253,0.596 -0.134,0.626c0.06,0.03 0.224,-0.075 0.492,-0.313c0.358,-0.328 0.7,-0.566 1.028,-0.715c0.328,-0.179 0.745,-0.328 1.252,-0.447c0.358,-0.06 0.536,-0.119 0.536,-0.179Z" style="fill:#263238;fill-rule:nonzero;"/></g></g><g><g id="Layer0_0_MEMBER_3_MEMBER_78_FILL"><path d="M212.708,405.643c0.06,0.03 0.209,-0.089 0.447,-0.358c0.328,-0.387 0.596,-0.671 0.805,-0.849c0.209,-0.209 0.522,-0.447 0.939,-0.715c0.298,-0.179 0.432,-0.298 0.402,-0.358c0,-0.119 -0.194,-0.149 -0.581,-0.089c-0.447,0.089 -0.849,0.313 -1.207,0.671c-0.358,0.328 -0.611,0.7 -0.76,1.118c-0.119,0.387 -0.134,0.581 -0.045,0.581Z" style="fill:#263238;fill-rule:nonzero;"/></g></g><g><g id="Layer0_0_MEMBER_3_MEMBER_79_FILL"><path d="M192.725,121.237c0.238,-0.268 0.328,-0.581 0.268,-0.939c-0.06,-0.358 -0.238,-0.641 -0.536,-0.849c-0.298,-0.238 -0.626,-0.343 -0.983,-0.313l-0.089,0c-0.358,0.089 -0.641,0.298 -0.849,0.626c-0.209,0.298 -0.283,0.626 -0.224,0.983c0.089,0.358 0.283,0.641 0.581,0.849c0.328,0.209 0.671,0.268 1.028,0.179c0.328,-0.06 0.596,-0.238 0.805,-0.536Z" style="fill:#1b2d54;fill-rule:nonzero;"/></g></g><g><g id="Layer0_0_MEMBER_3_MEMBER_80_FILL"><path d="M194.871,136.794l-0.581,3.263l8.136,22.531l19.58,31.784l0.581,-33.707l-5.633,-26.107l-0.447,0l-4.023,17.256l-5.364,-6.482l-12.249,-8.538Z" style="fill:#fafafa;fill-rule:nonzero;"/></g></g><g><g id="Layer0_0_MEMBER_3_MEMBER_81_FILL"><path d="M215.927,143.723l-0.268,-0.179l-0.358,1.162c-0.507,1.311 -1.222,2.965 -2.146,4.962c-0.358,0.685 -0.581,1.401 -0.671,2.146l0.939,-2.012c1.013,-1.937 1.788,-3.576 2.325,-4.917l0.134,-0.581c0.584,0.425 1.136,0.961 1.654,1.609l1.296,1.654c0.447,0.596 0.864,1.088 1.252,1.475c-0.209,-0.536 -0.522,-1.088 -0.939,-1.654c-0.745,-1.013 -1.177,-1.594 -1.296,-1.743c-0.596,-0.805 -1.237,-1.445 -1.922,-1.922Z" style="fill:#263238;fill-rule:nonzero;"/></g></g><g><g id="Layer0_0_MEMBER_3_MEMBER_82_FILL"><path d="M218.162,173.854c-1.341,-6.02 -2.459,-10.803 -3.353,-14.35l-1.118,-4.336c-0.179,-0.715 -0.343,-1.252 -0.492,-1.609c0.03,0.387 0.134,0.939 0.313,1.654c0.06,0.417 0.373,1.863 0.939,4.336l3.219,14.439c1.55,6.944 2.593,11.742 3.129,14.395l0.849,4.381c0.119,0.715 0.238,1.252 0.358,1.609c0,-0.536 -0.045,-1.073 -0.134,-1.609l-0.715,-4.426c-0.656,-3.576 -1.654,-8.404 -2.995,-14.484Z" style="fill:#263238;fill-rule:nonzero;"/></g></g><g><g id="Layer0_0_MEMBER_3_MEMBER_83_FILL"><path d="M165.501,130.759c-2.98,-0.089 -6.273,0.134 -9.88,0.671c-3.397,0.477 -6.87,1.743 -10.416,3.8c-3.576,2.086 -6.348,4.485 -8.315,7.197l2.772,2.995l5.677,-3.979c4.5,-2.772 8.524,-4.396 12.07,-4.873c3.576,-0.477 7.168,-0.387 10.774,0.268c1.46,0.238 5.409,1.207 11.847,2.906c4.888,1.282 10.401,1.967 16.54,2.056c5.156,0.06 8.985,-0.253 11.489,-0.939c4.023,-1.132 7.778,-2.772 11.265,-4.917l-1.118,-3.174c-2.414,1.758 -6.169,3.025 -11.265,3.8c-4.083,0.596 -7.764,0.775 -11.042,0.536c-2.772,-0.179 -6.229,-0.849 -10.371,-2.012c-4.619,-1.401 -8.017,-2.399 -10.192,-2.995c-3.219,-0.834 -6.497,-1.282 -9.835,-1.341Z" style="fill:#ffca00;fill-rule:nonzero;"/></g></g><g><g id="Layer0_0_MEMBER_3_MEMBER_84_FILL"><path d="M211.993,151.815c-0.358,-0.417 -0.79,-0.82 -1.296,-1.207l-3.845,-3.129l-0.045,0.358l-1.162,5.275c-2.262,-1.953 -4.438,-3.771 -6.527,-5.454c-0.685,-0.566 -1.386,-1.118 -2.101,-1.654c-0.268,-0.268 -0.536,-0.462 -0.805,-0.581l0.671,0.715l8.628,7.51l0.447,0.402l1.162,-5.812l3.397,2.593c0.387,0.298 0.879,0.626 1.475,0.983Z" style="fill:#263238;fill-rule:nonzero;"/></g></g><g><g id="Layer0_0_MEMBER_3_MEMBER_85_FILL"><path d="M123.479,167.193l6.214,0.447c0.03,-0.238 -0.596,-2.787 -1.878,-7.644l-9.254,-4.247l1.609,8.449c0.894,0.894 1.997,1.892 3.308,2.995Z" style="fill:#fff;fill-rule:nonzero;"/></g><path id="Layer0_0_MEMBER_3_MEMBER_85_1_STROKES" d="M129.693,167.64c0.03,-0.238 -0.596,-2.787 -1.878,-7.644l-9.254,-4.247l1.609,8.449c0.894,0.894 1.997,1.892 3.308,2.995l6.214,0.447Z" style="fill:none;fill-rule:nonzero;stroke:#1b294a;stroke-width:0.27px;"/></g><g><g id="Layer0_0_MEMBER_3_MEMBER_86_FILL"><path d="M143.596,152.083c-0.298,-3.397 -1.743,-6.199 -4.336,-8.404c-2.623,-2.205 -5.633,-3.159 -9.03,-2.861c-3.397,0.298 -6.199,1.743 -8.404,4.336c-2.205,2.623 -3.159,5.633 -2.861,9.03c0.298,3.427 1.743,6.229 4.336,8.404c2.623,2.205 5.633,3.159 9.03,2.861c3.397,-0.298 6.199,-1.743 8.404,-4.336c2.205,-2.593 3.159,-5.603 2.861,-9.03Z" style="fill:#ffca00;fill-rule:nonzero;"/></g></g><g><g><g id="flash0_ai_Assets_27_Layer_1__Group__3_0_Layer0_0_MEMBER_0_FILL"><path d="M143.596,152.083c-0.298,-3.397 -1.743,-6.199 -4.336,-8.404c-2.623,-2.205 -5.633,-3.159 -9.03,-2.861c-3.397,0.298 -6.199,1.743 -8.404,4.336c-2.205,2.623 -3.159,5.633 -2.861,9.03c0.298,3.427 1.743,6.229 4.336,8.404c2.623,2.205 5.633,3.159 9.03,2.861c3.397,-0.298 6.199,-1.743 8.404,-4.336c2.205,-2.593 3.159,-5.603 2.861,-9.03Z" style="fill-rule:nonzero;"/></g></g></g><g><g id="Layer0_0_MEMBER_3_MEMBER_88_FILL"><path d="M143.596,150.473c-0.298,-3.397 -1.743,-6.199 -4.336,-8.404c-2.623,-2.205 -5.633,-3.159 -9.03,-2.861c-3.397,0.298 -6.199,1.743 -8.404,4.336c-2.205,2.623 -3.159,5.633 -2.861,9.03c0.298,3.427 1.743,6.244 4.336,8.449c2.623,2.205 5.633,3.159 9.03,2.861c3.397,-0.298 6.199,-1.743 8.404,-4.336c2.205,-2.623 3.159,-5.648 2.861,-9.075Z" style="fill:#ffca00;fill-rule:nonzero;"/></g></g><g><g><g id="flash0_ai_Assets_27_Layer_1__Group__2_0_Layer0_0_MEMBER_0_FILL"><path d="M131.347,142.471l0.402,0c-2.623,-0.149 -4.917,0.656 -6.884,2.414c-1.967,1.729 -3.025,3.919 -3.174,6.571c-0.149,2.623 0.656,4.917 2.414,6.884c1.729,1.967 3.919,3.025 6.571,3.174l1.028,0c-2.384,-0.119 -4.441,-1.013 -6.169,-2.682c-1.729,-1.639 -2.697,-3.651 -2.906,-6.035c-0.209,-2.623 0.536,-4.947 2.235,-6.974c1.699,-1.997 3.859,-3.114 6.482,-3.353Z" style="fill-rule:nonzero;"/></g></g></g><g><g><g id="flash0_ai_Assets_27_Layer_1__Group__1_0_Layer0_0_MEMBER_0_FILL"><path d="M136.443,143.947l1.386,1.118l2.19,-2.28l-1.565,-1.296l-2.012,2.459Z" style="fill:#fff;fill-rule:nonzero;"/></g></g></g><g><g id="Layer0_0_MEMBER_3_MEMBER_91_FILL"><path d="M140.779,151.189c0,0.477 -0.06,1.252 -0.179,2.325l-0.179,0.76c-0.656,2.533 -2.116,4.455 -4.381,5.767c-2.265,1.311 -4.649,1.624 -7.153,0.939c-0.864,-0.268 -1.684,-0.626 -2.459,-1.073c-0.775,-0.477 -1.49,-1.088 -2.146,-1.833c-1.341,-1.52 -2.101,-3.293 -2.28,-5.32c-0.149,-1.997 0.298,-3.874 1.341,-5.633c0.447,-0.745 1.043,-1.46 1.788,-2.146c0.685,-0.596 1.431,-1.073 2.235,-1.431c1.46,-0.685 2.98,-0.969 4.56,-0.849c1.58,0.089 3.04,0.551 4.381,1.386c1.878,1.162 3.174,2.772 3.889,4.828c0.268,0.715 0.462,1.475 0.581,2.28c0,-0.864 -0.149,-1.654 -0.447,-2.369c-0.566,-1.818 -1.594,-3.308 -3.085,-4.47c-1.46,-1.192 -3.129,-1.892 -5.007,-2.101c-1.729,-0.179 -3.427,0.104 -5.096,0.849c-0.834,0.358 -1.609,0.864 -2.325,1.52c-0.745,0.626 -1.371,1.371 -1.878,2.235c-1.132,1.818 -1.609,3.785 -1.431,5.901c0.179,2.146 0.983,4.023 2.414,5.633c1.252,1.49 2.846,2.489 4.783,2.995l1.073,0.224c2.652,0.417 5.052,-0.164 7.197,-1.743c2.146,-1.58 3.412,-3.696 3.8,-6.348c0.149,-0.775 0.149,-1.55 0,-2.325Z" style="fill:#263238;fill-rule:nonzero;"/></g></g><g><g id="Layer0_0_MEMBER_3_MEMBER_92_FILL"><path d="M126.742,141.086c-0.656,0.06 -1.237,0.268 -1.743,0.626c-1.282,0.805 -2.399,1.878 -3.353,3.219c-0.954,1.252 -1.565,2.682 -1.833,4.292c-0.149,0.656 -0.149,1.296 0,1.922c0.06,-0.507 0.179,-1.132 0.358,-1.878c0.298,-1.46 0.909,-2.801 1.833,-4.023c0.834,-1.192 1.878,-2.265 3.129,-3.219c0.626,-0.447 1.162,-0.76 1.609,-0.939Z" style="fill:#fff;fill-rule:nonzero;"/></g></g><g><g id="Layer0_0_MEMBER_3_MEMBER_93_FILL"><path d="M129.112,140.236c-0.06,-0.149 -0.268,-0.179 -0.626,-0.089c-0.417,0.119 -0.596,0.253 -0.536,0.402c0.089,0.149 0.313,0.179 0.671,0.089c0.328,-0.089 0.492,-0.224 0.492,-0.402Z" style="fill:#fff;fill-rule:nonzero;"/></g></g><g><g id="Layer0_0_MEMBER_3_MEMBER_94_FILL"><path d="M135.325,159.012c-0.03,-0.03 -0.358,0.045 -0.983,0.224c-0.805,0.238 -1.55,0.402 -2.235,0.492c-0.685,0.089 -1.445,0.134 -2.28,0.134c-0.656,0 -0.983,0.015 -0.983,0.045c1.073,0.358 2.176,0.462 3.308,0.313c1.162,-0.149 2.22,-0.551 3.174,-1.207Z" style="fill:#fff;fill-rule:nonzero;"/></g></g><g><g id="Layer0_0_MEMBER_3_MEMBER_95_FILL"><path d="M140.824,155.927c0.06,0.03 0.164,-0.075 0.313,-0.313c0.179,-0.268 0.313,-0.566 0.402,-0.894c0.119,-0.358 0.149,-0.685 0.089,-0.983c-0.03,-0.268 -0.089,-0.402 -0.179,-0.402l-0.358,1.296c-0.209,0.834 -0.298,1.267 -0.268,1.296Z" style="fill:#fff;fill-rule:nonzero;"/></g></g><g><g><g id="flash0_ai_Assets_27_Layer_1__Group__0_Layer0_0_MEMBER_0_FILL"><path d="M132.554,148.372l-3.666,0l0,1.609l1.699,0l0,6.929l1.967,0l0,-8.538Z" style="fill-rule:nonzero;"/></g></g></g><g><g id="Layer0_0_MEMBER_3_MEMBER_97_FILL"><path d="M121.244,150.116c-1.282,1.013 -2.578,2.041 -3.889,3.085c-2.652,2.146 -4.083,3.383 -4.292,3.71c-0.328,0.566 -0.119,1.58 0.626,3.04c-0.626,0.745 -1.013,1.58 -1.162,2.503c-0.03,0.536 0.238,0.983 0.805,1.341c0.268,0.209 0.536,0.343 0.805,0.402c-0.089,0.715 -0.045,1.401 0.134,2.056c0.209,0.685 2.012,2.012 5.409,3.979l6.706,6.795l6.75,-9.254l-2.906,-1.207c-0.715,-0.328 -2.28,-0.671 -4.694,-1.028l-3.353,-0.492l0.492,-2.906c2.354,-0.715 3.845,-1.58 4.47,-2.593c0.596,-1.013 0.626,-2.086 0.089,-3.219l-1.967,0.581c0.656,-0.656 0.805,-1.639 0.447,-2.95l-2.19,0.447c0.387,-0.268 0.611,-0.641 0.671,-1.118c0.06,-0.447 -0.045,-0.864 -0.313,-1.252l-0.134,-0.134l-1.699,0.536c0.417,-0.477 0.417,-0.998 0,-1.565l-0.805,-0.76Z" style="fill:#fff;fill-rule:nonzero;"/></g><path id="Layer0_0_MEMBER_3_MEMBER_97_1_STROKES" d="M130.229,166.567c-0.715,-0.328 -2.28,-0.671 -4.694,-1.028l-3.353,-0.492l0.492,-2.906c2.354,-0.715 3.845,-1.58 4.47,-2.593c0.596,-1.013 0.626,-2.086 0.089,-3.219l-1.967,0.581c0.656,-0.656 0.805,-1.639 0.447,-2.95l-2.19,0.447c0.387,-0.268 0.611,-0.641 0.671,-1.118c0.06,-0.447 -0.045,-0.864 -0.313,-1.252l-0.134,-0.134l-1.699,0.536c0.417,-0.477 0.417,-0.998 0,-1.565l-0.805,-0.76c-1.282,1.013 -2.578,2.041 -3.889,3.085c-2.652,2.146 -4.083,3.383 -4.292,3.71c-0.328,0.566 -0.119,1.58 0.626,3.04c-0.626,0.745 -1.013,1.58 -1.162,2.503c-0.03,0.536 0.238,0.983 0.805,1.341c0.268,0.209 0.536,0.343 0.805,0.402c-0.089,0.715 -0.045,1.401 0.134,2.056c0.209,0.685 2.012,2.012 5.409,3.979l6.706,6.795l6.75,-9.254l-2.906,-1.207Z" style="fill:none;fill-rule:nonzero;stroke:#1b294a;stroke-width:0.27px;"/></g><g><g id="Layer0_0_MEMBER_3_MEMBER_98_FILL"><path d="M127.145,156.464c-0.447,0.03 -1.028,0.134 -1.743,0.313c-1.49,0.268 -2.891,0.671 -4.202,1.207c-0.745,0.328 -1.416,0.775 -2.012,1.341c-0.387,0.358 -0.82,0.849 -1.296,1.475c-0.477,0.566 -0.864,1.013 -1.162,1.341c0.119,0.119 0.581,-0.253 1.386,-1.118l1.341,-1.386c0.566,-0.477 1.222,-0.879 1.967,-1.207c1.311,-0.536 2.652,-0.969 4.023,-1.296c0.566,-0.119 1.132,-0.343 1.699,-0.671Z" style="fill:#1b2d54;fill-rule:nonzero;"/></g></g><g><g id="Layer0_0_MEMBER_3_MEMBER_99_FILL"><path d="M124.954,161.381c0.536,-0.298 0.775,-0.477 0.715,-0.536c-0.03,-0.03 -0.313,0.075 -0.849,0.313c-0.745,0.358 -1.46,0.551 -2.146,0.581l-0.179,0l0,0.224c-0.06,0.685 -0.149,1.326 -0.268,1.922l-0.313,1.386l-0.134,0.313l0.358,0c0.805,-0.03 1.684,0 2.638,0.089c0.715,0.06 1.073,0.075 1.073,0.045c-1.149,-0.465 -2.296,-0.689 -3.442,-0.671l0.268,-1.028c0.133,-0.667 0.208,-1.278 0.224,-1.833c0.788,-0.148 1.473,-0.416 2.056,-0.805Z" style="fill:#1b2d54;fill-rule:nonzero;"/></g></g><g><g id="Layer0_0_MEMBER_3_MEMBER_100_FILL"><path d="M117.176,158.207l2.146,-1.833l1.028,-0.492c0.924,-0.387 2.19,-0.82 3.8,-1.296c0.477,-0.089 0.998,-0.283 1.565,-0.581c-0.536,0 -1.103,0.089 -1.699,0.268c-1.311,0.268 -2.608,0.656 -3.889,1.162c-0.387,0.149 -0.73,0.328 -1.028,0.536c-0.417,0.298 -0.7,0.536 -0.849,0.715l-1.296,1.296c-0.417,0.328 -0.79,0.73 -1.118,1.207c0.536,-0.298 0.983,-0.626 1.341,-0.983Z" style="fill:#1b2d54;fill-rule:nonzero;"/></g></g><g><g id="Layer0_0_MEMBER_3_MEMBER_101_FILL"><path d="M117.98,154.631l0.447,-0.313l0.179,-0.179l0.224,-0.134c1.013,-0.447 2.176,-0.924 3.487,-1.431c0.536,-0.179 1.013,-0.402 1.431,-0.671c-0.626,0.06 -1.147,0.179 -1.565,0.358c-1.252,0.358 -2.444,0.805 -3.576,1.341l-0.268,0.134l-2.682,2.325c-0.775,0.745 -1.147,1.132 -1.118,1.162c0.447,-0.209 0.894,-0.507 1.341,-0.894l2.101,-1.699Z" style="fill:#1b2d54;fill-rule:nonzero;"/></g></g><g><g id="Layer0_0_MEMBER_4_MEMBER_0_FILL"><path d="M143.015,103.803c-0.328,0.715 -0.79,1.282 -1.386,1.699l-0.76,0.492l0.849,0.358c0.685,0.268 1.252,0.715 1.699,1.341l0.536,0.76l0.358,-0.849c0.268,-0.656 0.715,-1.222 1.341,-1.699l0.76,-0.492l-0.849,-0.358c-0.715,-0.328 -1.282,-0.79 -1.699,-1.386l-0.536,-0.715l-0.313,0.849Z" style="fill:#ffca00;fill-rule:nonzero;"/></g></g><g><g id="Layer0_0_MEMBER_4_MEMBER_1_FILL"><path d="M258.932,200.944l-0.313,0.849c-0.328,0.715 -0.79,1.282 -1.386,1.699l-0.76,0.536l0.849,0.358c0.745,0.268 1.311,0.715 1.699,1.341l0.536,0.76l0.358,-0.849c0.298,-0.715 0.745,-1.282 1.341,-1.699l0.76,-0.536l-0.849,-0.358c-0.656,-0.268 -1.222,-0.715 -1.699,-1.341l-0.536,-0.76Z" style="fill:#ffca00;fill-rule:nonzero;"/></g></g><g><g id="Layer0_0_MEMBER_4_MEMBER_2_FILL"><path d="M278.557,162.231c-0.358,0.775 -0.82,1.341 -1.386,1.699l-0.76,0.536l0.849,0.358c0.685,0.268 1.252,0.715 1.699,1.341l0.536,0.76l0.358,-0.849c0.268,-0.656 0.715,-1.222 1.341,-1.699l0.76,-0.536l-0.849,-0.358c-0.685,-0.268 -1.252,-0.715 -1.699,-1.341l-0.536,-0.76l-0.313,0.849Z" style="fill:#ffca00;fill-rule:nonzero;"/></g></g><g><g id="Layer0_0_MEMBER_4_MEMBER_3_FILL"><path d="M110.247,99.064l-0.268,-0.447l-0.224,0.492c-0.209,0.447 -0.477,0.775 -0.805,0.983l-0.402,0.313l0.492,0.224c0.298,0.089 0.626,0.343 0.983,0.76l0.268,0.447l0.224,-0.492c0.179,-0.387 0.447,-0.715 0.805,-0.983l0.402,-0.313l-0.492,-0.179c-0.417,-0.209 -0.745,-0.477 -0.983,-0.805Z" style="fill:#ffca00;fill-rule:nonzero;"/></g></g><g><g id="Layer0_0_MEMBER_4_MEMBER_4_FILL"><path d="M261.346,174.122l0.447,-0.313l-0.492,-0.224c-0.417,-0.149 -0.745,-0.402 -0.983,-0.76l-0.313,-0.447l-0.224,0.492c-0.119,0.358 -0.373,0.685 -0.76,0.983l-0.447,0.313l0.492,0.179c0.447,0.209 0.775,0.477 0.983,0.805l0.313,0.447l0.179,-0.492c0.209,-0.447 0.477,-0.775 0.805,-0.983Z" style="fill:#ffca00;fill-rule:nonzero;"/></g></g><g><g id="Layer0_0_MEMBER_4_MEMBER_5_FILL"><path d="M129.38,77.248l1.386,-0.715l-1.341,-0.76c-1.103,-0.656 -1.937,-1.535 -2.503,-2.638l-0.715,-1.386l-0.805,1.252c-0.656,1.162 -1.535,2.027 -2.638,2.593l-1.341,0.671l1.296,0.805c1.132,0.656 1.967,1.535 2.503,2.638l0.715,1.386l0.805,-1.341c0.626,-1.073 1.505,-1.907 2.638,-2.503Z" style="fill:#ffca00;fill-rule:nonzero;"/></g></g></svg>